<svg xmlns="http://www.w3.org/2000/svg" width="220" height="48" viewBox="0 0 220 48" fill="none"><path d="M91.3789 12V35.9522H106.949V31.7652H95.9321V25.7711H105.994V21.7035H95.9321V16.195H106.949V12H91.3789Z" fill="#0000CD"></path><path d="M72.4575 15.8687H69.1063V23.9801H72.4575C75.0844 23.9801 77.0108 22.7144 77.0108 19.9443C77.0108 17.1741 75.0844 15.9085 72.4575 15.9085M72.6963 27.8488H69.1063V35.9602H64.553V12.0398H72.6963C77.8068 12.0398 81.8028 14.3562 81.8028 19.9443C81.8028 25.5323 77.7749 27.8488 72.6963 27.8488Z" fill="#0000CD"></path><path d="M146.471 12V16.195H152.099V31.7652H146.471V35.9522H162.288V31.7652H156.653V16.195H162.288V12H146.471Z" fill="#0000CD"></path><path d="M131.204 19.4269C131.204 22.3164 129.532 23.2239 126.651 23.2239H122.822V15.8687H126.651C129.771 15.8687 131.204 17.0308 131.204 19.4269ZM135.98 19.4269C135.98 13.8547 132.151 12 127.12 12H118.268V35.9602H122.822V27.0925H127.279L131.92 35.9682H136.959L131.817 26.1453C134.316 25.0308 135.996 22.8896 135.996 19.4348" fill="#0000CD"></path><path d="M182.253 16.2507L185.524 26.8219H178.981L182.253 16.2507ZM179.236 12.0398L171.331 36H176.107L177.699 30.7303H186.647L188.278 36H193.055L185.246 12.0398H179.236Z" fill="#0000CD"></path><path d="M203.427 12V35.9522H219.037V31.7652H207.98V12H203.427Z" fill="#0000CD"></path><path d="M46.5073 12L40.76 26.0816L35.0048 12H28.5411V35.9522H32.8556V18.0418L38.364 30.6826H38.6028H42.9093H43.1561L48.6645 18.0418V35.9522H52.971V12H46.5073Z" fill="#0000CD"></path><path d="M0.927124 12V16.195H6.55499V31.7652H0.927124V35.9522H16.7361V31.7652H11.1082V16.195H16.7361V12H0.927124Z" fill="#0000CD"></path></svg>