<svg xmlns="http://www.w3.org/2000/svg" width="154" height="48" viewBox="0 0 154 48" fill="none"><path d="M25.7161 45.779C25.5491 45.6727 24.729 45.1411 23.8937 44.6096C19.1553 41.6025 15.6319 38.7777 14.4928 37.0615C13.8853 36.1655 13.7031 35.558 13.5816 34.2519C13.536 33.7659 13.3993 32.7788 13.2778 32.0498C13.1563 31.3208 13.0045 30.1514 12.9589 29.4376C12.8374 27.8581 12.9741 27.4784 14.2498 25.823C14.751 25.17 15.2674 24.3954 15.3889 24.0917C15.647 23.4842 15.6926 21.2972 15.48 19.657C15.3433 18.6091 15.4496 18.0776 15.8141 17.8498C16.1938 17.6068 16.5886 18.1079 16.9835 19.3533C17.3936 20.629 17.8492 21.2669 18.563 21.6162C18.8515 21.7529 20.4158 22.0566 22.0408 22.2996C24 22.5882 25.139 22.816 25.3972 22.9982C25.8528 23.2868 26.2477 24.1221 26.7337 25.7775L27.0526 26.8861L26.7185 27.9189C26.354 29.0275 26.2933 30.2121 26.5363 30.6981C26.7489 31.0778 27.3564 31.0778 29.2244 30.6677C30.9861 30.2881 31.3961 30.0906 31.9277 29.392C32.1555 29.1035 32.4289 28.8605 32.5504 28.8605C32.6719 28.8605 32.8845 29.149 33.0364 29.5135C33.4009 30.3792 33.7046 30.5918 34.5399 30.607C35.2233 30.6222 35.2385 30.607 36.0131 29.5591L36.7876 28.5112V25.7471L35.9067 24.2132C35.4208 23.3779 35.0259 22.573 35.0259 22.4363C35.0259 22.2996 35.3448 21.9807 35.7245 21.7073C36.1042 21.4491 36.4839 21.0694 36.5598 20.872C36.7572 20.3404 36.499 19.7785 35.9219 19.5507C35.4511 19.3685 35.4359 19.3077 35.4663 18.6547C35.4967 18.1687 35.4359 17.8953 35.2537 17.7131C34.9499 17.4093 33.978 17.3789 33.5983 17.6675C33.3401 17.8649 33.3401 17.8953 33.6439 18.4876C33.9932 19.1559 34.4791 19.5811 34.9044 19.5811C35.2385 19.5811 35.2537 19.8241 34.9348 19.9456C34.464 20.1278 33.7046 20.0367 33.4616 19.7785C33.0819 19.3381 32.277 17.6523 32.277 17.2726C32.277 16.4829 33.1882 15.7843 34.2362 15.7843C35.2385 15.7843 36.2257 16.8474 36.2257 17.9105C36.2257 18.5332 36.5446 18.4269 36.7269 17.7586C36.9091 17.06 36.7876 16.6955 36.0738 15.8906L35.4663 15.192L35.8612 14.4174C36.6054 12.9899 36.4839 11.2281 35.5878 10.2713C35.1929 9.8461 35.0866 9.81574 34.5247 9.90686C34.1906 9.96761 33.3553 10.2562 32.7022 10.5599C31.624 11.0611 31.5025 11.1522 31.5784 11.4559C31.6999 11.9571 31.4721 12.0179 30.6975 11.6686C29.2092 11.0307 26.0351 10.5599 22.9825 10.5295L20.7499 10.4992L19.7476 9.32974C18.6693 8.0692 18.3807 7.85659 17.7732 7.85659C17.2873 7.85659 15.7837 9.22343 15.48 9.93723C15.2066 10.5903 15.2218 12.7317 15.4952 13.8403C15.6167 14.3263 15.6926 14.7819 15.6319 14.8579C15.4952 15.0705 15.237 15.0249 15.0244 14.7364C14.8421 14.4934 14.8117 14.4934 14.4928 14.7668C13.9916 15.2224 12.1236 18.0624 11.4554 19.414C11.1213 20.0671 10.7416 21.0087 10.6049 21.5099C10.3619 22.3755 10.3619 22.5274 10.6201 24.1676C10.9238 26.142 10.8631 26.6128 10.1037 28.253C9.86072 28.7693 9.57217 29.5135 9.46586 29.9084C9.35955 30.3032 9.23805 30.6374 9.1773 30.6374C8.97987 30.6374 7.76489 27.9492 7.26372 26.4001C6.26136 23.3627 6.23099 22.8463 6.23099 13.5518V5.19883L7.97751 4.62171C11.182 3.55861 14.994 2.75369 19.216 2.28289C22.4509 1.9184 29.7256 1.9184 33.006 2.28289C37.0913 2.73851 40.2503 3.39155 43.9408 4.54578L45.9607 5.16846L45.8999 13.9163C45.8392 22.1173 45.824 22.74 45.5202 24.0765C44.1686 30.1058 40.7211 35.1783 34.6158 40.1445C33.2945 41.2076 33.2034 41.2684 32.7782 41.1165C32.1099 40.8583 31.6543 40.3723 31.1835 39.37C30.9405 38.8688 30.7431 38.5347 30.7431 38.6106C30.7431 38.6866 30.6824 39.2029 30.5912 39.7497C30.5001 40.3723 30.5001 41.1165 30.5912 41.7847C30.6975 42.5137 30.6824 42.8934 30.576 43.0301C30.4242 43.2123 26.0958 45.9916 25.9895 45.9764C26.0503 45.9764 25.8832 45.8853 25.7161 45.779ZM32.7326 33.1888C33.2186 32.9458 34.0083 32.1105 34.0083 31.8523C34.0083 31.5334 33.0667 31.26 32.034 31.26C30.333 31.26 27.7512 31.8827 27.4475 32.3535C27.1893 32.7636 27.812 33.2496 28.8295 33.4318C29.68 33.5989 32.2466 33.4318 32.7326 33.1888ZM32.52 27.8885C32.8237 26.5368 32.8237 26.5976 32.4441 26.3394C32.2314 26.2027 31.6999 26.0508 31.2595 25.9901C30.2723 25.8686 29.8319 25.4889 29.9534 24.8662C30.0445 24.4258 29.7256 23.3627 28.8447 21.1454C28.2676 19.7178 28.0094 19.3685 27.4779 19.414C26.8552 19.4596 26.8248 19.4292 27.1589 19.004C27.569 18.4876 27.5538 18.1535 27.1285 17.6523C26.4755 16.893 24.9416 16.9993 24.2734 17.8346C24.0152 18.1687 24 18.2446 24.1974 18.6243C24.3189 18.8521 24.6834 19.1559 25.0327 19.3229C25.8528 19.6874 25.7313 19.9456 24.7442 19.9152C24.1822 19.9 23.8026 19.7937 23.4988 19.5659C23.1495 19.3077 22.9369 19.247 22.5116 19.3381C21.4941 19.5355 21.3119 18.9736 21.9345 17.7283C22.7091 16.1944 23.9392 15.4805 25.7769 15.4805C26.8856 15.4805 27.0222 15.5109 27.569 15.9362C27.8879 16.1943 28.3132 16.5892 28.5106 16.817C29.3763 17.8346 31.6391 23.1197 31.548 23.9094L31.4873 24.3954L32.3226 24.2587C33.2945 24.1069 35.0259 24.2132 35.5878 24.4866C35.9371 24.6384 35.9675 24.7447 35.9371 25.2763C35.8916 25.8838 35.8764 25.899 35.0563 26.1268C34.3273 26.3394 34.1906 26.4457 33.9476 26.9621C33.5831 27.7518 33.1123 28.253 32.7478 28.253C32.5048 28.2226 32.4593 28.1467 32.52 27.8885ZM68.8022 23.3931C66.6304 22.6185 65.4154 20.5075 65.6432 17.9864C65.8255 16.0577 66.7519 14.5997 68.2858 13.8555C69.0452 13.4758 69.3185 13.4303 70.5943 13.4303C71.8548 13.4303 72.1282 13.491 72.8116 13.8403C73.7228 14.3111 74.2999 14.949 74.7859 16.0121C75.1656 16.8474 75.5149 18.6547 75.363 19.0344C75.2871 19.247 74.8467 19.2773 71.9307 19.2773H68.5896L68.6959 19.6874C68.9692 20.7809 69.9412 21.4187 71.4448 21.5251C72.2649 21.5858 73.5558 21.358 74.4366 21.0239C74.6796 20.9327 74.71 21.0087 74.6644 22.0262L74.6189 23.1349L74.0114 23.3627C73.6469 23.4994 72.6597 23.6057 71.5055 23.6513C69.926 23.6664 69.4704 23.6209 68.8022 23.3931ZM72.4167 17.0448C72.4167 16.574 71.9156 15.7539 71.4903 15.5413C70.5183 15.0401 69.2882 15.3894 68.8629 16.2855C68.3921 17.2878 68.4073 17.2878 70.5183 17.2878C72.1585 17.2878 72.4167 17.2575 72.4167 17.0448ZM103.748 23.3475L102.503 23.0438V19.414H104.932V21.0542L105.798 21.2365C107.833 21.6617 109.185 21.1757 109.185 20.0215C109.185 19.004 108.486 18.4572 106.588 17.9864C104.538 17.4853 103.353 16.7107 102.913 15.6324C102.017 13.3847 102.913 11.1674 105.008 10.3928C106.482 9.86129 109.595 9.95241 111.19 10.5751L111.615 10.7422V13.9466H109.185V13.2025C109.185 12.7924 109.109 12.4127 109.018 12.352C108.927 12.2912 108.426 12.2153 107.909 12.1697C106.36 12.0482 105.403 12.762 105.616 13.8859C105.737 14.5693 106.254 14.8882 107.894 15.3287C110.339 15.9817 111.311 16.6044 111.888 17.8649C112.222 18.5787 112.253 18.8521 112.192 19.8089C112.07 21.6617 111.053 22.9223 109.291 23.4538C108.152 23.7727 105.327 23.7272 103.748 23.3475ZM116.08 23.4235C115.822 23.2868 115.457 23.0286 115.275 22.8463C114.546 22.1781 114.485 21.9047 114.485 18.6547V15.6172H113.118L113.164 14.5845L113.21 13.5518L113.847 13.5062L114.485 13.4607V11.5167H117.219V13.491L118.464 13.5366L119.71 13.5821L119.755 14.6149L119.801 15.6476H117.219V18.2294C117.219 20.8113 117.219 20.8264 117.614 21.2061C117.978 21.5706 118.069 21.5858 118.981 21.5099L119.953 21.4187V22.3907C119.953 22.983 119.877 23.4083 119.77 23.469C119.664 23.5298 118.905 23.6057 118.069 23.6361C116.854 23.6664 116.444 23.6209 116.08 23.4235ZM122.261 23.3475C121.259 22.8463 120.818 22.1629 120.742 20.9935C120.697 20.1734 120.742 19.9304 121.061 19.3685C121.73 18.2142 123.37 17.5916 125.648 17.5916H126.787V16.9537C126.772 15.9058 126.195 15.435 124.904 15.435C123.628 15.435 123.461 15.5413 123.461 16.331V16.9993H121.183V14.2959L122.367 13.8555C123.4 13.4758 123.734 13.4303 125.131 13.4303C126.863 13.4455 127.44 13.6125 128.321 14.3567C129.262 15.1464 129.445 15.8299 129.505 18.7762L129.566 21.3884H130.447V23.5146L128.822 23.469L127.182 23.4235L127.136 22.8463L127.091 22.2692L126.802 22.6489C125.997 23.6664 123.643 24.0158 122.261 23.3475ZM125.693 21.3884C126.255 21.0391 126.787 20.2493 126.787 19.7482C126.787 19.4292 126.726 19.414 125.724 19.414C124.402 19.414 123.658 19.7026 123.506 20.2493C123.233 21.3884 124.554 22.087 125.693 21.3884ZM134.001 23.5601C133.53 23.4234 132.71 22.7552 132.391 22.2388C132.133 21.8136 132.102 21.4491 132.102 18.685V15.6172H130.736L130.781 14.5845L130.827 13.5518L131.465 13.5062L132.102 13.4607V11.5167H134.836V13.491L136.081 13.5366L137.327 13.5821L137.372 14.6149L137.418 15.6476H134.836V18.2294C134.836 20.8113 134.836 20.8264 135.231 21.2061C135.595 21.5706 135.702 21.5858 136.598 21.5251L137.57 21.4491V22.4059C137.57 22.9678 137.494 23.4083 137.388 23.469C137.175 23.5905 134.426 23.6816 134.001 23.5601ZM141.351 23.469C139.347 22.7248 138.314 21.4643 138.041 19.414C137.706 16.9841 138.785 14.7364 140.714 13.7948C141.685 13.324 143.812 13.2632 144.905 13.6885C146.409 14.2656 147.548 16.1032 147.73 18.2446L147.821 19.2773H140.956L141.093 19.7633C141.275 20.4012 142.111 21.1757 142.855 21.3884C143.69 21.6162 144.799 21.5706 145.999 21.2669C147.198 20.9479 147.198 20.9479 147.138 22.2388C147.092 23.1197 147.092 23.1197 146.485 23.3475C145.604 23.6513 142.096 23.7424 141.351 23.469ZM144.662 16.7259C144.525 15.9058 143.994 15.435 143.052 15.3439C141.959 15.2376 141.26 15.7539 141.002 16.8626L140.911 17.2878H144.738L144.662 16.7259ZM54.344 22.4515V21.3884H55.559V12.2761H54.344V10.3017H57.9585C62.0135 10.3017 62.6666 10.408 63.7904 11.2585C64.8231 12.0482 65.2028 12.8684 65.2028 14.3263C65.2028 15.7691 64.8839 16.4981 63.8815 17.3486C63.0462 18.0624 62.0894 18.3509 60.0695 18.4572L58.4293 18.5484V21.3732L59.0672 21.4187L59.7051 21.4643L59.7506 22.497L59.7962 23.5298H54.3288L54.344 22.4515ZM61.7553 15.7084C62.2565 15.1616 62.2869 15.0857 62.2261 14.2352C62.1198 12.8076 61.3301 12.2761 59.3102 12.2761H58.4597V16.407L59.8417 16.3462C61.2238 16.2855 61.2238 16.2855 61.7553 15.7084ZM76.6691 22.4515V21.3884H77.5804V15.6172H76.3654L76.411 14.5845L76.4565 13.5518H80.1014L80.1774 14.1289L80.2533 14.706L80.633 14.2959C81.3012 13.567 81.8176 13.3999 83.2148 13.3999C84.6424 13.3999 85.1132 13.567 85.9181 14.3871C86.8446 15.3287 86.9357 15.7084 86.9964 18.6547L87.042 21.3428L87.6039 21.3884L88.1658 21.4339V23.4083L85.7055 23.4538L83.2452 23.4994V21.3732H84.3083V19.3229C84.3083 16.9537 84.1412 16.3766 83.3819 15.9817C82.6529 15.6021 81.5139 15.7539 80.9823 16.2703C80.5874 16.6651 80.5723 16.7107 80.5267 19.0192L80.4811 21.3732H81.5746V23.4994H76.7147L76.6691 22.4515ZM89.3049 22.497L89.3504 21.4643L89.882 21.3884L90.4135 21.3124V15.6172H89.1074L89.153 14.5845L89.1986 13.5518H92.8435L92.9346 14.1593C92.9802 14.4934 93.0409 14.6908 93.0561 14.5845C93.1017 14.22 94.4685 13.491 95.3038 13.3847C97.2326 13.1417 98.8272 14.0378 99.4347 15.678C99.7081 16.3918 99.7537 16.8626 99.7537 18.9432V21.3732H100.817V23.4994H95.9569V21.3732H97.02V19.3685C97.02 17.0145 96.7922 16.2551 95.9721 15.921C95.1975 15.602 94.1496 15.7995 93.6484 16.3614C93.2232 16.8322 93.2232 16.8322 93.2232 19.1103V21.3884H94.2863V23.5146H89.2745L89.3049 22.497ZM17.2265 14.9794C16.6646 14.1137 16.3456 13.0962 16.2697 11.9116C16.209 10.8636 16.2393 10.5903 16.5127 10.0435C16.9228 9.2538 17.3936 8.9045 17.7732 9.10193C17.9251 9.17787 18.2289 9.60311 18.4567 10.0435C18.6845 10.484 19.1553 11.3193 19.5198 11.9268C19.8843 12.5191 20.188 13.1417 20.188 13.2936C20.188 13.4455 19.9906 13.6885 19.7628 13.8252C19.5198 13.9618 19.049 14.3567 18.6997 14.6908C17.9707 15.3894 17.5606 15.4654 17.2265 14.9794ZM34.0387 13.9315C33.5983 13.5973 33.249 13.2632 33.249 13.1873C33.249 13.0202 34.3121 11.6989 34.8133 11.2281C35.1474 10.9244 35.2537 10.894 35.4359 11.0611C35.7852 11.3496 35.9371 12.109 35.7852 12.8684C35.6486 13.567 35.2385 14.4174 34.9803 14.4934C34.9044 14.5238 34.4791 14.2808 34.0387 13.9315Z" fill="#B1CAE0"></path><path d="M25.1087 45.3538C20.5829 42.4986 17.834 40.4787 15.9052 38.5499C14.1587 36.8186 13.8094 36.1656 13.6271 34.2216C13.5512 33.4622 13.4297 32.551 13.3386 32.1713C13.2627 31.7916 13.1412 30.6374 13.0804 29.5895L12.9741 27.6911L13.6423 26.7495C14.0068 26.2331 14.5688 25.4434 14.8725 25.003C15.6774 23.8791 15.7989 23.0438 15.5863 20.4468C15.3889 18.1991 15.4648 17.8346 16.1027 17.9258C16.3305 17.9561 16.5127 18.2447 16.8013 19.1104C17.6821 21.6314 17.9251 21.7833 22.0712 22.3604C24.8657 22.7553 25.625 22.9831 25.8376 23.4691C26.2781 24.5625 26.8248 26.385 26.8248 26.7799C26.8248 27.0532 26.7185 27.5544 26.597 27.9037C26.3236 28.6783 26.2933 30.5007 26.5514 30.7589C26.84 31.0475 27.8575 30.9715 29.5737 30.5767C31.0317 30.2274 31.1835 30.1666 31.8062 29.5136C32.1707 29.1339 32.5352 28.815 32.6111 28.815C32.6871 28.815 32.8845 29.1491 33.0667 29.5591C33.3857 30.3033 33.6438 30.5007 34.6006 30.7134C34.9348 30.7893 35.0866 30.6982 35.5574 30.1514C36.6509 28.8909 36.9395 28.2379 36.9243 27.0684C36.9243 25.9446 36.8635 25.8079 35.603 23.4539C35.2992 22.892 35.0866 22.3452 35.117 22.2389C35.1474 22.1326 35.4967 21.8592 35.8612 21.6466C36.9243 21.0088 36.9546 19.8849 35.9371 19.5052C35.4967 19.3382 35.4815 19.2926 35.5726 18.7003C35.6486 18.1536 35.6182 18.0017 35.2841 17.6676C34.8284 17.212 34.1602 17.1512 33.6742 17.5461C33.3705 17.7891 33.3553 17.865 33.5375 18.2751C33.8109 18.8977 34.4336 19.566 34.7677 19.566C34.9196 19.566 35.0411 19.6267 35.0411 19.7178C35.0411 19.9001 34.0691 20.0975 33.7653 19.976C33.492 19.8697 32.3226 17.7739 32.3074 17.3942C32.3074 16.5893 33.2642 15.7692 34.221 15.7692C34.7525 15.7692 35.5422 16.24 35.8764 16.7412C36.013 16.9538 36.1649 17.3942 36.2105 17.7435C36.3016 18.4573 36.5598 18.4725 36.7572 17.7739C36.9395 17.1208 36.8028 16.6804 36.1194 15.8299C35.5271 15.1009 35.5271 15.0857 35.7852 14.7061C36.6965 13.4 36.6053 11.2586 35.603 10.1955C35.2081 9.77023 34.7373 9.77023 33.5831 10.1651C32.1555 10.6511 31.4569 11.1067 31.5176 11.5016C31.5784 11.9268 31.5025 11.9116 30.1508 11.4712C28.5561 10.9396 26.0654 10.6055 23.2254 10.5448L20.7499 10.484L20.431 10.0588C20.2488 9.83099 19.7324 9.23869 19.2768 8.76788C18.6085 8.06927 18.3655 7.88702 17.9707 7.88702C17.3632 7.88702 16.4216 8.57045 15.8293 9.42093C15.4496 9.98286 15.3737 10.2259 15.3281 11.3497C15.2977 12.0635 15.3585 13.1418 15.4648 13.7645C15.6774 14.9794 15.6167 15.2072 15.1762 14.8276C15.0244 14.6909 14.8269 14.5694 14.751 14.5694C14.2954 14.5694 11.4554 19.1407 10.8175 20.8873C10.4378 21.9352 10.4075 22.1174 10.529 23.1957C10.6049 23.8336 10.6656 24.9878 10.6656 25.732C10.6656 26.9925 10.6353 27.1899 10.0885 28.3593C9.7696 29.058 9.46586 29.8477 9.42029 30.1514C9.37473 30.4552 9.28361 30.683 9.22286 30.683C9.04061 30.683 7.78008 27.8278 7.32446 26.4306C6.3373 23.3476 6.30692 22.892 6.23099 13.7645C6.17024 6.93023 6.20061 5.41151 6.36767 5.29002C6.67141 5.09258 9.67848 4.16616 11.425 3.74092C22.132 1.08317 35.1929 1.55397 45.0646 4.98627L45.8999 5.27483V13.7645C45.8999 22.0263 45.8847 22.2997 45.5506 23.8791C44.4723 28.9061 42.1183 33.037 37.957 37.1831C36.2257 38.8992 33.492 41.1773 33.1579 41.1773C32.8086 41.1773 32.1403 40.8128 31.8062 40.4483C31.6543 40.2813 31.3658 39.7497 31.1835 39.2789C30.8798 38.5348 30.819 38.474 30.7431 38.7777C30.5305 39.5371 30.4697 41.2988 30.6216 42.0886C30.7735 42.8631 30.7583 42.939 30.4545 43.1668C29.8015 43.6832 26.3996 45.7487 26.1414 45.8094C26.0047 45.7942 25.5339 45.612 25.1087 45.3538ZM32.8997 33.1129C33.6135 32.7333 34.0843 32.141 33.9476 31.7916C33.7198 31.1842 31.791 31.0475 29.68 31.4879C27.5842 31.9283 27.007 32.3232 27.5538 32.9307C27.9487 33.3559 28.8751 33.523 30.6672 33.4774C31.9581 33.4622 32.3681 33.3863 32.8997 33.1129ZM32.5656 28.086C32.52 28.01 32.5504 27.7519 32.6263 27.5392C33.0364 26.4761 32.7478 26.1572 31.2139 25.9294C30.7127 25.8535 30.2419 25.7168 30.166 25.5953C30.09 25.489 30.0445 25.1093 30.0445 24.7752C30.0445 23.9095 28.465 19.7178 28.0398 19.4597C27.9335 19.3989 27.6449 19.3533 27.4171 19.3685C26.9463 19.3989 26.9007 19.3078 27.2349 18.8674C27.5538 18.4421 27.5082 17.9713 27.0982 17.5916C26.2933 16.8323 25.1238 16.893 24.3341 17.7283C23.9089 18.1687 23.9089 18.2143 24.1215 18.6092C24.243 18.837 24.6075 19.1407 24.9112 19.2926C25.5035 19.5812 25.6098 19.7634 25.2757 19.9001C24.9568 20.0216 23.8481 19.7786 23.3925 19.4748C23.1191 19.2926 22.7546 19.2167 22.3294 19.2318C21.5093 19.2774 21.3726 18.9433 21.8282 17.9106C22.2079 17.0297 22.8458 16.3767 23.8633 15.8451C24.4708 15.5262 24.8201 15.4502 25.6858 15.4654C26.2781 15.4654 26.9159 15.5565 27.0982 15.6629C28.3283 16.3463 29.2699 17.8498 30.6975 21.4795C31.5936 23.7121 31.6391 23.9551 31.3506 24.2588C31.1987 24.4259 31.2595 24.4411 31.6847 24.3499C31.9733 24.2892 32.8389 24.2436 33.6135 24.2436C35.2689 24.2436 35.846 24.4562 35.9219 25.0789C35.9827 25.656 35.7701 25.8687 34.9499 26.0813C34.4336 26.218 34.2058 26.3698 34.0083 26.7191C33.3097 28.0404 32.8237 28.496 32.5656 28.086ZM69.2274 23.4691C67.1923 22.892 66.0685 21.601 65.7344 19.4597C65.4306 17.4701 66.19 15.2832 67.5264 14.3568C68.5592 13.643 69.2274 13.4455 70.6094 13.4455C71.7333 13.4455 72.0219 13.4911 72.766 13.8556C74.224 14.5694 75.0897 16.0425 75.2719 18.0928L75.363 19.1255H68.6503V19.49C68.6503 20.052 69.273 20.8417 70.0171 21.2214C70.898 21.6618 72.4927 21.6922 73.8139 21.2669L74.7404 20.9784L74.6948 22.0567L74.6492 23.135L73.9658 23.3476C72.9635 23.6361 70.0779 23.7121 69.2274 23.4691ZM72.4167 16.9841C72.4167 16.5437 72.0219 15.8451 71.627 15.5565C71.4296 15.4199 70.9739 15.3136 70.5183 15.3136C70.0627 15.3136 69.6071 15.4047 69.4097 15.5565C69.0148 15.8299 68.6199 16.5437 68.6199 16.9841C68.6199 17.2879 68.711 17.2879 70.5183 17.2879C72.3256 17.2879 72.4167 17.2727 72.4167 16.9841ZM104.689 23.5146C104.264 23.4387 103.626 23.2868 103.247 23.1805L102.563 22.9831L102.518 21.2062L102.472 19.4293H104.902L104.948 20.2949C104.993 21.1454 104.993 21.1606 105.525 21.2821C106.527 21.5099 108 21.4644 108.501 21.2062C109.473 20.705 109.473 19.2926 108.501 18.6851C108.228 18.5181 107.378 18.1991 106.588 17.9865C105.798 17.7739 104.948 17.4701 104.689 17.3486C103.231 16.6045 102.624 15.5869 102.624 13.9011C102.624 12.0939 103.505 10.9245 105.251 10.3929C106.299 10.074 109.215 10.1044 110.521 10.4385L111.509 10.6966L111.554 12.3369L111.6 13.9771H109.17V13.157C109.17 12.3672 109.155 12.3369 108.699 12.2457C107.955 12.0939 106.755 12.1394 106.39 12.3217C105.51 12.7773 105.267 13.81 105.874 14.5086C106.132 14.7972 106.679 15.0402 108.031 15.4351C110.78 16.24 111.691 16.969 112.055 18.6092C112.511 20.6746 111.554 22.4819 109.549 23.3324C108.836 23.6058 105.889 23.7273 104.689 23.5146ZM116.232 23.4539C115.503 23.1805 114.713 22.33 114.576 21.677C114.531 21.4188 114.485 19.9457 114.485 18.4117V15.6173H113.118V13.643H114.485V11.5168H117.219V13.643H119.801V15.6173H117.219V18.1991C117.219 20.7658 117.219 20.7961 117.599 21.1758C117.948 21.5251 118.085 21.5555 118.889 21.5099L119.801 21.4644V22.406C119.801 22.9223 119.725 23.3931 119.649 23.4387C119.284 23.6665 116.839 23.6665 116.232 23.4539ZM122.823 23.5298C121.623 23.135 120.94 22.3756 120.788 21.2214C120.651 20.219 120.94 19.3837 121.638 18.761C122.413 18.0624 123.446 17.7587 125.42 17.6372L126.999 17.5461L126.893 16.9234C126.756 16.0425 126.453 15.6477 125.724 15.4654C125.147 15.3136 124.083 15.3591 123.522 15.5717C123.385 15.6173 123.309 15.8907 123.309 16.3159V16.9841H121.183V15.6932C121.183 14.4479 121.198 14.4023 121.608 14.1897C122.641 13.6733 123.734 13.4303 124.98 13.4303C126.513 13.4303 127.303 13.6278 128.123 14.2201C129.171 14.9794 129.308 15.4351 129.384 18.6396L129.46 21.4492L129.946 21.4947L130.432 21.5403V23.4843H127.242L127.151 22.8768L127.06 22.2693L126.665 22.6642C126.453 22.8768 126.058 23.1653 125.815 23.302C125.283 23.5906 123.415 23.7272 122.823 23.5298ZM125.724 21.434C126.316 21.1302 126.802 20.3253 126.802 19.6723V19.2318L125.617 19.3382C124.099 19.4748 123.552 19.7786 123.476 20.5228C123.4 21.5251 124.569 22.0111 125.724 21.434ZM133.879 23.4539C133.165 23.1805 132.664 22.7249 132.345 22.0719C132.163 21.677 132.102 20.9784 132.102 18.594V15.6173H130.735V13.643H132.102V11.5168L133.439 11.5623L134.775 11.6079L134.821 12.6406L134.866 13.6733H137.448V15.6477H134.866V18.2295C134.866 20.7961 134.866 20.8265 135.246 21.2062C135.595 21.5555 135.732 21.5859 136.537 21.5403L137.448 21.4947V22.4363C137.448 22.9527 137.372 23.4235 137.296 23.4691C136.917 23.6665 134.456 23.6665 133.879 23.4539ZM141.579 23.4691C140.152 23.1046 139.043 22.1782 138.466 20.8569C138.01 19.8241 137.904 17.9561 138.238 16.7867C139.058 13.9771 142.202 12.6102 145.057 13.8252C146.469 14.4327 147.441 16.0425 147.684 18.2295L147.791 19.1104H144.358C141.701 19.1104 140.926 19.1559 140.926 19.2926C140.941 19.809 141.534 20.7506 142.065 21.0847C142.824 21.5555 144.571 21.6618 145.877 21.3277C146.393 21.191 146.849 21.0847 146.91 21.0847C146.971 21.0847 146.986 21.5403 146.971 22.1022L146.925 23.1198L146.242 23.3324C145.254 23.6209 142.536 23.7121 141.579 23.4691ZM144.814 17.0297C144.768 16.8778 144.693 16.6197 144.647 16.4222C144.48 15.8147 143.705 15.3136 142.946 15.3136C142.004 15.3136 141.458 15.6325 141.169 16.3767C141.032 16.7108 140.926 17.0601 140.926 17.136C140.926 17.2271 141.716 17.2879 142.916 17.2879C144.723 17.2879 144.875 17.2727 144.814 17.0297ZM54.4503 23.4235C54.3895 23.3628 54.344 22.9223 54.344 22.4363V21.5555L54.9818 21.5099C55.3311 21.4795 55.6045 21.4188 55.5893 21.3429C55.5741 21.2669 55.5589 19.2167 55.5589 16.7563V12.2761H54.344V10.3018H57.8978C61.8161 10.3018 62.7577 10.4537 63.836 11.289C65.4458 12.5191 65.6736 15.4351 64.2764 16.9841C63.4259 17.9258 62.4691 18.2599 60.3277 18.351L58.5053 18.4421V21.4795L59.0976 21.5555L59.6899 21.6314V23.4539L57.1232 23.4995C55.7108 23.4995 54.511 23.4691 54.4503 23.4235ZM61.3453 16.1489C62.2565 15.678 62.621 14.0682 61.9983 13.2177C61.5123 12.5495 60.7985 12.2761 59.5532 12.2761H58.4597V16.3767H59.6747C60.4644 16.3767 61.0567 16.3007 61.3453 16.1489ZM76.6691 22.5427V21.5555L77.1551 21.5099L77.6411 21.4644L77.6867 18.5484L77.7322 15.6325L77.0792 15.5869L76.4261 15.5414V13.7189L78.279 13.6733L80.1318 13.6278V14.7516L80.557 14.3568C81.2557 13.7037 81.9543 13.4303 83.0174 13.4152C84.2931 13.4 85.2651 13.7645 85.9637 14.539C86.7838 15.4351 86.966 16.3159 86.966 19.1255V21.5403H88.0291V23.5146L85.6296 23.4691L83.23 23.4235L83.1844 22.4819L83.1389 21.5403H84.202V19.3382C84.202 16.3311 83.8982 15.7692 82.258 15.7692C81.5442 15.7692 81.3772 15.8299 80.9367 16.2703C80.5115 16.6956 80.4204 16.9082 80.3292 17.7587C80.2685 18.2902 80.2533 19.3533 80.2685 20.1127L80.314 21.4795L80.8912 21.5251L81.4683 21.5707L81.4227 22.5123L81.3772 23.4539L78.9776 23.4995L76.578 23.545L76.6691 22.5427ZM89.3808 23.4235C89.32 23.3628 89.2745 22.9223 89.2745 22.4363V21.5555L89.8516 21.5099L90.4287 21.4644L90.4743 18.5484L90.5198 15.6325L89.8668 15.5869L89.2137 15.5414L89.1682 14.5998L89.1226 13.6581H90.9299C92.8587 13.6581 92.9346 13.6885 92.9346 14.4631C92.9346 14.7668 92.9498 14.7668 93.3598 14.3871C94.104 13.6885 94.7571 13.4455 95.9113 13.4455C97.2326 13.4455 98.2349 13.9012 98.9639 14.8428C99.617 15.6932 99.784 16.5893 99.784 19.2926V21.5707H100.847V23.545H95.9872V21.5403H97.0503V19.4141C97.0503 16.4222 96.7162 15.7692 95.1823 15.7692C93.4661 15.7692 93.0713 16.4982 93.132 19.49L93.1776 21.4644L93.7547 21.5099L94.3318 21.5555L94.2863 22.4971L94.2407 23.4387L91.8715 23.4843C90.5502 23.4994 89.4415 23.4691 89.3808 23.4235ZM17.2265 14.8428C16.6798 14.1897 16.3153 12.8532 16.3001 11.5016C16.3001 10.4992 16.3456 10.2714 16.7101 9.70948C17.3176 8.79825 17.7581 8.82863 18.3048 9.84617C18.5326 10.2714 19.049 11.1675 19.4438 11.8509C19.8387 12.5191 20.1728 13.157 20.1728 13.2633C20.1728 13.3696 19.8539 13.6885 19.4438 13.9771C19.0338 14.2656 18.563 14.6909 18.3504 14.9035C17.8947 15.4351 17.7125 15.4199 17.2265 14.8428ZM34.0387 13.9163C33.2642 13.324 33.249 13.2937 33.4616 12.8988C33.5831 12.671 34.0235 12.1242 34.4488 11.6686L35.2233 10.8485L35.5119 11.213C35.9219 11.7142 35.8915 12.7773 35.4359 13.7797C35.2385 14.2201 35.0107 14.5694 34.9499 14.5694C34.8892 14.5694 34.4791 14.2505 34.0387 13.9163Z" fill="#92B2D2"></path><path d="M24.1063 44.6552C18.5933 41.2077 15.0092 38.2007 14.1587 36.3326C13.9309 35.8466 13.7486 35.0265 13.6575 34.1305C13.5816 33.3408 13.4449 32.3384 13.3538 31.8828C13.0956 30.4096 12.9893 28.1316 13.1715 27.6304C13.2626 27.3722 13.7334 26.628 14.2346 25.975C15.6167 24.1525 15.7078 23.9551 15.7078 22.2845C15.7078 21.4948 15.6622 20.295 15.5863 19.6267C15.48 18.6396 15.5103 18.351 15.6926 18.108C16.0571 17.622 16.4216 17.9865 16.8772 19.3078C17.6821 21.677 17.8795 21.7833 22.9976 22.5123C23.9848 22.649 24.972 22.8312 25.1542 22.9072C25.6402 23.0894 26.0503 23.8184 26.4907 25.2764C26.9311 26.704 26.9463 27.0685 26.6426 27.8126C26.5211 28.1164 26.3692 28.7239 26.3236 29.1947C26.2021 30.2122 26.4451 30.8956 26.9615 31.0171C27.3867 31.1234 30.6368 30.4552 31.2746 30.1211C31.5176 29.9996 31.8366 29.6958 31.9884 29.4377C32.4744 28.6327 32.6263 28.6935 33.2642 29.954C33.4312 30.2881 33.6742 30.4552 34.1602 30.5919C34.5247 30.6982 34.9499 30.7589 35.0714 30.7134C35.1929 30.6678 35.5726 30.2881 35.8916 29.8629C37.4406 27.7974 37.4255 26.5217 35.8308 23.788C35.117 22.573 35.0866 22.2237 35.6486 21.8744C36.4838 21.3581 36.742 21.024 36.742 20.5076C36.742 19.9305 36.3016 19.3989 35.8308 19.3989C35.5574 19.3989 35.5422 19.323 35.6182 18.7307C35.6941 18.1384 35.6637 18.0017 35.3144 17.6676C34.8436 17.1968 34.1754 17.1512 33.6742 17.5765L33.3097 17.8802L33.7046 18.6092C33.9932 19.1407 34.221 19.3837 34.5855 19.4749C35.2841 19.6875 35.1778 19.8545 34.3121 19.8545H33.5679L33.0212 18.8218C32.2314 17.3487 32.2163 17.1208 32.7934 16.4526C33.2945 15.8755 34.0083 15.6325 34.6918 15.7996C35.36 15.9666 36.1042 16.8627 36.2257 17.6372C36.332 18.3814 36.499 18.5029 36.742 18.0321C37.061 17.4398 36.9243 16.7867 36.2864 15.9362L35.6637 15.1161L36.0738 14.2808C36.6509 13.1114 36.6509 11.8357 36.089 10.7574C35.8004 10.1955 35.5574 9.93731 35.2841 9.86137C34.7069 9.72468 33.4616 10.0436 32.4137 10.6055C31.6847 11.0004 31.5025 11.1675 31.5328 11.4408C31.5784 11.8661 31.5936 11.8661 30.2875 11.4105C28.7384 10.8789 26.2325 10.5296 23.3621 10.4689L20.8562 10.4081L19.7324 9.17795C18.5174 7.85666 18.1074 7.59848 17.5302 7.82629C16.9531 8.03891 15.9356 9.04127 15.5863 9.72469C15.2218 10.4537 15.161 12.4432 15.4648 13.7493C15.5711 14.1745 15.6015 14.6302 15.5559 14.7668C15.4648 14.9795 15.4192 14.9795 15.1003 14.6757L14.7358 14.3416L13.9157 15.4503C12.3362 17.622 11.1972 19.6267 10.6808 21.1758C10.4682 21.8137 10.4378 22.2389 10.5138 23.0742C10.8327 26.5673 10.8479 26.5065 10.2252 27.8886C9.90628 28.5872 9.58735 29.4528 9.49622 29.8021C9.4051 30.1515 9.2836 30.44 9.22285 30.44C9.05579 30.44 7.96232 28.0708 7.5067 26.7343C6.39804 23.4995 6.21579 21.4492 6.21579 12.0331V5.24447L8.06863 4.63698C12.7159 3.13345 17.5606 2.29815 23.1191 2.03997C31.0013 1.69066 39.3846 2.79933 45.3532 5.00147L45.991 5.24447V12.7621C45.991 22.2845 45.8088 23.9855 44.4571 27.4785C43.1662 30.8045 41.4045 33.4623 38.5493 36.4238C36.5294 38.5196 33.5375 41.071 33.1123 41.071C32.3529 41.071 31.4721 40.0839 31.0924 38.8233C30.7735 37.7147 30.576 38.4437 30.5608 40.828C30.5608 42.7416 30.5305 42.9542 30.2571 43.1517C29.7711 43.501 26.4147 45.6272 26.1869 45.7183C26.0958 45.8094 25.1542 45.3083 24.1063 44.6552ZM32.3985 33.3711C33.0515 33.1889 33.9932 32.3536 33.9932 31.9587C33.9932 31.822 33.8109 31.6094 33.5983 31.4575C32.8389 30.9564 29.0118 31.3209 27.8423 31.9891C27.0678 32.4447 27.1893 32.9611 28.1613 33.2952C28.8903 33.5686 31.548 33.5989 32.3985 33.3711ZM32.6111 28.1467C32.5656 28.1012 32.6111 27.7215 32.6871 27.3114C32.8845 26.3243 32.7022 26.1268 31.4265 25.9446C30.2267 25.7775 30.0445 25.6257 30.0445 24.7448C30.0445 23.9703 28.7536 20.3861 28.2524 19.7179C28.0398 19.4293 27.8423 19.3382 27.493 19.3686C26.9767 19.4141 26.8855 19.2471 27.25 18.9433C27.6145 18.6396 27.5234 17.9106 27.0982 17.5157C26.3236 16.7867 25.1086 16.9082 24.3037 17.8043C23.9544 18.184 23.9392 18.2295 24.1519 18.6244C24.2734 18.8522 24.6378 19.1711 24.9416 19.3382C25.2453 19.5052 25.5035 19.7027 25.5035 19.7786C25.5035 20.0216 23.8937 19.7786 23.4381 19.4749C23.1191 19.2471 22.8306 19.1863 22.3598 19.2319C21.5093 19.323 21.3878 18.9737 21.9345 17.8346C22.618 16.407 24.0759 15.4654 25.6554 15.4654C26.8096 15.4654 27.4019 15.7084 28.1005 16.483C28.9206 17.3942 29.3459 18.1991 30.5305 21.0847C31.381 23.1653 31.5632 23.7728 31.4569 24.0158C31.3202 24.3348 31.3354 24.3348 33.4009 24.3348C35.7397 24.3348 36.0282 24.4411 35.9523 25.2156C35.9067 25.7168 35.7245 25.8535 34.8284 26.0813C34.2817 26.218 34.1602 26.3243 33.8413 27.0077C33.4312 27.8886 32.8693 28.4049 32.6111 28.1467ZM69.3033 23.4691C67.7998 23.0742 66.8127 22.2997 66.1748 20.9936C65.8559 20.3405 65.8103 20.0368 65.8103 18.5029C65.8103 16.9082 65.8407 16.6956 66.2204 15.997C66.9797 14.5542 68.0124 13.7949 69.6678 13.5063C71.4144 13.1874 72.9179 13.6582 73.9962 14.8731C74.7404 15.6932 75.1504 16.7564 75.2719 18.1688L75.3479 19.1104H68.5744L68.6655 19.6723C68.7718 20.3709 69.5008 21.1455 70.2753 21.3733C71.0803 21.6163 72.6445 21.5859 73.6773 21.3125C74.1633 21.191 74.5885 21.0847 74.6189 21.0847C74.6492 21.0847 74.6948 21.5251 74.6948 22.0719V23.059L73.9051 23.302C72.8116 23.621 70.2753 23.7121 69.3033 23.4691ZM72.4167 16.9538C72.4167 16.5134 71.9156 15.6932 71.5207 15.4806C71.2321 15.3288 70.6702 15.2528 70.0171 15.2984C69.4704 15.3288 68.7566 16.0729 68.6655 16.726L68.5744 17.3031H70.5031C72.3864 17.2879 72.4167 17.2879 72.4167 16.9538ZM104.841 23.5147C104.34 23.4387 103.626 23.2868 103.247 23.1805L102.563 22.9831L102.518 21.2062L102.472 19.4293H104.902L104.948 20.295C104.993 21.1151 105.024 21.1606 105.449 21.2821C105.707 21.3581 106.436 21.4188 107.089 21.434C108.061 21.4492 108.35 21.4036 108.684 21.1455C109.261 20.705 109.443 20.0064 109.124 19.3534C108.836 18.7307 108.395 18.4877 106.694 18.0017C104.932 17.4853 104.446 17.2727 103.778 16.6804C102.973 15.9818 102.639 15.1769 102.639 13.9619C102.639 12.7469 102.973 11.9572 103.809 11.213C104.72 10.3777 105.297 10.241 107.727 10.241C109.322 10.241 110.066 10.3018 110.734 10.5144L111.615 10.7878V13.9771L110.461 13.9315L109.306 13.886L109.291 13.1266L109.276 12.3673L108.593 12.185C107.469 11.8813 106.072 12.2306 105.707 12.8836C105.464 13.3392 105.525 14.0378 105.844 14.4479C106.193 14.8883 106.512 15.025 108.198 15.4806C110.263 16.0426 111.478 16.8627 111.949 18.0321C112.207 18.6699 112.146 20.4772 111.858 21.1606C111.478 22.0567 110.612 22.8616 109.641 23.2261C108.653 23.5906 106.299 23.7425 104.841 23.5147ZM116.475 23.4995C115.67 23.2565 115.093 22.7705 114.789 22.0871C114.546 21.5555 114.5 21.0695 114.5 18.5484V15.6325L113.863 15.5869L113.225 15.5414L113.179 14.5998L113.134 13.6582H114.5V11.532L115.837 11.5775L117.173 11.6231L117.189 12.6103L117.204 13.5974L118.525 13.643L119.846 13.6885L119.801 14.6301L119.755 15.5718L118.464 15.6173L117.173 15.6629L117.219 18.2751C117.264 20.7202 117.28 20.9025 117.599 21.2366C117.887 21.5555 118.054 21.5859 118.89 21.5403L119.846 21.4948V22.4212C119.846 23.1653 119.786 23.378 119.588 23.4539C119.072 23.621 117.006 23.6665 116.475 23.4995ZM122.914 23.5298C120.894 23.0438 120.059 20.6746 121.335 19.0496C122.018 18.1839 124.023 17.5917 126.286 17.5917C126.878 17.5917 126.939 17.5613 126.939 17.212C126.939 15.7236 125.617 14.9946 123.871 15.4806C123.324 15.6325 123.294 15.6629 123.294 16.3159V16.9993H121.168V14.4175L121.851 14.129C123.005 13.6278 123.78 13.4759 125.056 13.4759C127.121 13.4759 128.336 14.0682 128.989 15.3895C129.353 16.1337 129.369 16.2704 129.369 18.8674V21.5403H130.432V23.3628H128.837C127.288 23.3628 127.242 23.3476 127.242 23.0287C127.242 22.3604 127.03 22.2693 126.559 22.7705C125.845 23.4995 124.235 23.8488 122.914 23.5298ZM125.83 21.3884C126.377 21.0543 126.726 20.4772 126.802 19.7938C126.848 19.3534 126.848 19.3382 126.103 19.2926C125.223 19.2319 124.084 19.49 123.704 19.8242C123.552 19.9609 123.43 20.2798 123.43 20.5683C123.446 21.5707 124.797 22.0263 125.83 21.3884ZM134.092 23.4995C133.287 23.2565 132.71 22.7705 132.406 22.0871C132.163 21.5555 132.118 21.0695 132.118 18.5484V15.6325L131.48 15.5869L130.842 15.5414L130.796 14.5998L130.751 13.6582H132.118V11.532H134.699L134.745 12.5647L134.79 13.5974L136.127 13.643L137.463 13.6885L137.418 14.6301L137.372 15.5718L136.036 15.6173L134.699 15.6629V17.7435C134.715 20.1279 134.851 21.0847 135.231 21.3733C135.383 21.4948 135.914 21.5707 136.461 21.5707H137.418V22.4667C137.418 23.1653 137.357 23.378 137.16 23.4539C136.689 23.621 134.623 23.6665 134.092 23.4995ZM141.853 23.5147C140.319 23.1957 139.058 22.1782 138.451 20.8265C137.798 19.3382 137.98 16.8627 138.845 15.4958C139.833 13.9315 141.883 13.1114 143.888 13.4911C146.075 13.9012 147.32 15.4958 147.654 18.3206L147.745 19.1104H140.865L140.956 19.5812C141.093 20.2798 141.625 20.9328 142.323 21.2518C143.098 21.6011 144.936 21.6314 145.999 21.3125C146.409 21.191 146.804 21.0847 146.864 21.0847C146.925 21.0847 146.971 21.5403 146.94 22.1022L146.895 23.1198L146.211 23.3172C145.361 23.5754 142.718 23.6969 141.853 23.5147ZM144.86 17.136C144.86 17.0601 144.753 16.7108 144.617 16.3767C144.313 15.6325 143.69 15.2528 142.764 15.2984C141.959 15.3288 141.473 15.6325 141.154 16.3007C140.683 17.2879 140.698 17.2879 142.885 17.2879C144.085 17.2879 144.86 17.2272 144.86 17.136ZM54.344 22.4667V21.5707L54.9818 21.5251L55.6197 21.4796L55.6653 16.893L55.7108 12.3065H54.344V10.3018L58.1711 10.3474C61.9376 10.3929 62.0135 10.4081 62.8488 10.7878C64.4586 11.5472 65.1876 12.7014 65.1724 14.4479C65.1724 15.7236 64.7016 16.6956 63.7752 17.4094C62.864 18.108 61.8464 18.3662 60.0088 18.3662H58.4445V21.5403H59.6595V23.3628H54.344V22.4667ZM61.3149 16.1641C62.5451 15.5262 62.7121 13.8404 61.6186 12.7925C61.1934 12.3824 61.0567 12.3521 59.7962 12.2913L58.4445 12.2458V14.2808C58.4445 15.4047 58.4901 16.3767 58.566 16.4374C58.7483 16.6349 60.7985 16.4222 61.3149 16.1641ZM76.6691 22.4515V21.5403H77.7322V15.6173H76.5173V13.643H78.2486C80.1166 13.643 80.1622 13.6582 80.1622 14.5087V14.9035L80.4659 14.5238C81.3164 13.4455 83.5034 13.0962 84.9462 13.81C85.8878 14.2808 86.6016 15.2073 86.8294 16.24C86.9205 16.6652 86.9964 18.0321 86.9964 19.2774V21.5555H88.0595V23.378H83.1996V21.5555H84.2627V19.3078C84.2627 16.893 84.1716 16.5589 83.473 16.0274C82.9566 15.6477 81.7569 15.6325 81.1949 15.997C80.5419 16.4222 80.4052 17.0297 80.4052 19.3534V21.4796L80.9823 21.5251L81.5594 21.5707V23.3628H76.6995V22.4515H76.6691ZM89.4264 22.4515V21.5403H90.4895V15.6477L89.8516 15.6021L89.2138 15.5566L89.1682 14.615L89.1226 13.6734H90.9451C92.7372 13.6734 92.7676 13.6734 92.7827 14.0075C92.7827 14.6453 92.9954 14.7668 93.3902 14.3568C94.0888 13.6126 95.6531 13.2785 97.0655 13.567C97.9768 13.7493 98.8424 14.4935 99.2829 15.4654C99.6473 16.2704 99.6777 16.5286 99.7385 18.9433L99.7992 21.5555H100.832V23.378H95.9721V21.5555H97.0352V19.2926C97.0352 17.1968 97.0048 16.9993 96.6859 16.5285C95.9721 15.4806 94.2255 15.4351 93.4813 16.4374C93.1928 16.8171 93.1624 17.1208 93.1169 19.2015L93.0713 21.5403H94.3166V23.3628H89.4567V22.4515H89.4264ZM17.4087 15.0554C16.7709 14.3264 16.2241 12.5799 16.2241 11.2586C16.2241 10.6207 16.9228 9.29945 17.3176 9.16276C17.4695 9.1172 17.6973 9.14757 17.8188 9.25388C18.001 9.40575 18.806 10.7422 19.9298 12.7925L20.2487 13.3696L19.8083 13.7037C19.5653 13.886 19.0338 14.3264 18.6237 14.6757C17.7884 15.4047 17.7277 15.4199 17.4087 15.0554ZM34.5247 14.2353C34.3728 14.0682 34.0539 13.81 33.8109 13.6734C33.5679 13.5367 33.3857 13.3241 33.3857 13.1874C33.3857 12.8229 34.8892 11.0612 35.1929 11.0612C35.8764 11.0612 35.9827 12.7318 35.36 13.9467C35.0107 14.6453 34.9196 14.6757 34.5247 14.2353Z" fill="#6DA8D6"></path><path d="M23.8633 44.4882C21.2511 42.8328 19.5197 41.6178 17.515 39.9776C14.4928 37.5021 13.8246 36.4541 13.6879 33.9331C13.5816 31.9739 13.7942 31.0931 14.6143 29.8781C16.1482 27.6152 16.1786 27.5393 16.376 26.0813C16.4671 25.3068 16.5886 24.6233 16.6342 24.5626C16.7861 24.3196 17.0291 24.6233 17.4543 25.5801C17.758 26.2484 18.0162 26.6129 18.3351 26.7647C19.0034 27.114 21.8889 28.0708 22.2686 28.0708C22.6939 28.0708 22.8002 27.8886 22.9976 26.7799C23.1039 26.1724 23.2406 25.8535 23.3925 25.8231C23.5899 25.7927 23.6507 26.0054 23.7114 26.9925C23.8025 28.3746 24.1367 29.0884 25.1846 30.1363C26.1414 31.0931 26.8703 31.2146 28.8599 30.7893C30.9557 30.3337 31.4417 30.1211 32.0188 29.4073C32.5655 28.7391 32.6111 28.7542 33.1275 29.7262C33.4008 30.2426 33.5983 30.44 34.0691 30.5919C34.9196 30.8804 35.1929 30.7589 35.8612 29.8629C37.0002 28.3442 37.2736 27.1444 36.8028 25.7927C36.6053 25.2308 36.6205 25.0486 36.8787 23.9399C37.2584 22.3756 37.2432 21.8289 36.8331 20.5987C36.5446 19.7331 36.4383 19.5964 36.013 19.4749C35.5422 19.3382 35.527 19.3078 35.6182 18.6244C35.6941 17.9865 35.6637 17.8802 35.284 17.5917C34.7677 17.1816 34.145 17.1664 33.6742 17.5613L33.3097 17.865L33.7046 18.594C33.9931 19.1256 34.2209 19.3686 34.5854 19.4597C35.2992 19.6723 35.1625 19.8394 34.3121 19.8394H33.5527L32.9452 18.6244C32.2466 17.2424 32.2618 16.8779 32.9604 16.2704C33.5831 15.754 34.2969 15.6477 34.9955 15.9666C35.603 16.2552 36.1345 16.969 36.1345 17.5005C36.1345 18.2903 36.6205 18.6244 36.8028 17.9713C37.0154 17.1512 36.8939 16.6652 36.2864 15.8907L35.6637 15.1162L36.0434 14.3264C36.5901 13.1874 36.6661 12.3976 36.3623 11.4105C36.2105 10.9549 35.9371 10.3929 35.7245 10.1803C35.4055 9.83102 35.2689 9.78545 34.6006 9.86138C34.145 9.90695 33.3856 10.1651 32.6719 10.5296C31.6847 11.0308 31.5024 11.1827 31.5328 11.456C31.548 11.6383 31.5328 11.7902 31.5024 11.7902C31.4569 11.7902 30.9253 11.6231 30.3178 11.4105C28.6928 10.8637 26.3995 10.5448 23.4684 10.4689L20.9018 10.4081L19.5805 9.02609C18.3655 7.75037 18.2288 7.64406 17.8188 7.75037C16.7709 8.00855 15.5559 9.3754 15.3281 10.56C15.1762 11.3345 15.2825 13.0051 15.5711 14.3416C15.6926 14.9035 15.4648 14.9947 15.0243 14.5998C14.7813 14.3872 14.7054 14.4327 14.0675 15.268C13.0956 16.5437 11.911 18.4725 11.182 19.9912L10.5593 21.2821L10.6201 22.8768C10.7567 26.8862 10.7567 26.9166 10.0581 28.4353C9.70883 29.1947 9.42027 29.9237 9.42027 30.0603C9.42027 30.6982 9.10134 30.3185 8.47867 28.982C7.67375 27.2507 7.11182 25.5953 6.73214 23.788C6.48915 22.6338 6.45877 21.5859 6.45877 13.8556V5.21411L7.74968 4.77368C12.0477 3.31571 17.7125 2.32855 23.2102 2.08555C31.062 1.73625 39.2479 2.82972 45.3835 5.07742L46.0366 5.32042L45.9758 13.6886C45.8999 23.0439 45.8847 23.302 44.8064 26.5521C43.4548 30.6071 41.3285 33.8268 37.5621 37.4869C35.7549 39.2486 33.4616 41.1166 33.1275 41.1166C33.006 41.1166 32.6719 40.9647 32.3833 40.7825C31.8366 40.4332 31.062 39.0815 30.8798 38.1095C30.8342 37.8362 30.6975 37.6236 30.6064 37.6236C30.5153 37.6236 29.6952 38.3677 28.7991 39.279C26.6577 41.4811 26.278 42.2405 26.278 44.3363C26.278 45.1564 26.2173 45.8246 26.1565 45.8246C26.0958 45.8246 25.0327 45.2323 23.8633 44.4882ZM32.3985 33.3711C33.0515 33.1889 33.9931 32.3536 33.9931 31.9587C33.9931 31.822 33.8109 31.5942 33.5831 31.4576C32.5048 30.7438 27.3108 31.6246 27.3108 32.5207C27.326 33.2041 28.2828 33.5382 30.2723 33.5382C31.1076 33.5382 32.0644 33.4623 32.3985 33.3711ZM32.7022 27.3418C32.8237 26.2635 32.7174 26.142 31.3961 25.9294C30.8646 25.8383 30.3786 25.7168 30.3026 25.6561C30.0748 25.4282 31.0013 24.5778 31.6391 24.4259C32.6111 24.1981 34.8436 24.2436 35.4511 24.5018C35.9219 24.6993 35.9827 24.7752 35.9371 25.2004C35.8763 25.732 35.7245 25.8687 34.7981 26.0965C34.2513 26.2332 34.1146 26.3547 33.8716 26.9166C33.5679 27.6152 33.0515 28.2227 32.7782 28.2227C32.6567 28.2227 32.6415 27.9493 32.7022 27.3418ZM69.5615 23.5147C68.0428 23.1957 66.8126 22.2541 66.1596 20.948C65.871 20.3557 65.8103 20.0064 65.8103 18.5788C65.8103 17.1512 65.8559 16.8019 66.1748 16.1033C66.6152 15.1162 67.7542 14.053 68.7262 13.7341C69.8349 13.3544 71.7181 13.4152 72.6445 13.8556C74.1025 14.539 75.0593 16.1185 75.2567 18.1536L75.3478 19.1104H68.6351V19.566C68.6351 20.1127 69.4097 21.0543 70.1083 21.3429C70.7613 21.6163 72.8116 21.6011 73.738 21.3277C74.148 21.2062 74.5277 21.0999 74.6037 21.0999C74.6796 21.0999 74.7252 21.5403 74.7252 22.0871V23.0742L73.9354 23.3172C72.9331 23.5754 70.4728 23.7121 69.5615 23.5147ZM72.3712 16.726C72.2648 16.0274 71.5966 15.3743 70.8372 15.2376C69.8805 15.0554 68.787 15.8299 68.5592 16.8779L68.468 17.3031H72.4471L72.3712 16.726ZM104.674 23.4539C104.082 23.3476 103.338 23.1654 103.034 23.059L102.487 22.8768V19.4141H104.917L104.963 20.295L105.008 21.1758L106.056 21.3733C107.879 21.7226 109.079 21.3125 109.276 20.2646C109.489 19.1559 108.805 18.5636 106.649 17.941C103.642 17.0905 102.654 16.0729 102.67 13.7949C102.67 12.3065 103.399 11.2586 104.872 10.5752C105.555 10.2563 105.859 10.2259 107.757 10.2259C109.352 10.2259 110.096 10.2866 110.764 10.4992L111.645 10.7726V13.9467H109.398L109.352 13.157L109.306 12.3673L108.456 12.1698C106.892 11.7902 105.586 12.4584 105.586 13.6278C105.586 14.5087 106.102 14.9035 108.076 15.4655C110.582 16.1944 111.372 16.7108 111.888 17.941C112.222 18.7459 112.192 20.5532 111.843 21.3277C111.478 22.1478 110.43 23.0135 109.473 23.302C108.334 23.6362 105.996 23.6969 104.674 23.4539ZM116.429 23.4539C114.713 22.8464 114.576 22.5275 114.516 18.7003L114.47 15.6325L113.832 15.587L113.194 15.5414L113.149 14.5998L113.103 13.6582H114.47V11.532H117.052L117.097 12.5647L117.143 13.5974L118.479 13.643L119.816 13.6886L119.77 14.6302L119.725 15.5718L118.388 15.6173L117.052 15.6629V17.8195C117.052 20.1735 117.189 21.0847 117.599 21.3733C117.75 21.4796 118.282 21.5707 118.829 21.5707H119.786V23.3628L119.026 23.5298C118.039 23.7121 117.128 23.6969 116.429 23.4539ZM122.671 23.4235C121.411 23.0287 120.575 21.6466 120.803 20.3102C121.076 18.7155 122.307 17.9713 125.101 17.698L126.939 17.5157V17.0601C126.939 15.6933 125.572 14.9947 123.871 15.4655C123.324 15.6173 123.294 15.6477 123.294 16.3008V16.9842L122.261 16.9386L121.228 16.8931L121.183 15.6629L121.137 14.4327L121.866 14.0986C123.02 13.5822 123.932 13.4152 125.435 13.4911C126.954 13.5671 127.683 13.8101 128.366 14.4935C129.202 15.3288 129.262 15.587 129.323 18.6548L129.369 21.51H130.401V23.3324H127.212V22.0871L126.513 22.6946C125.541 23.6362 124.144 23.8792 122.671 23.4235ZM125.83 21.3885C126.346 21.0695 126.681 20.538 126.863 19.7482L126.969 19.2623H126.088C124.342 19.2623 123.415 19.7179 123.415 20.538C123.415 20.7658 123.567 21.1151 123.765 21.3125C124.205 21.7833 125.131 21.8289 125.83 21.3885ZM134.289 23.5298C133.424 23.302 132.801 22.8464 132.452 22.1478C132.133 21.5251 132.118 21.2821 132.118 18.5485V15.6325L131.48 15.587L130.842 15.5414V13.7189L131.48 13.6734L132.118 13.6278V11.5168H134.699V13.643H137.433L137.387 14.5846L137.342 15.5262L136.005 15.5718L134.669 15.6173V17.8498C134.669 20.2494 134.821 21.1303 135.276 21.3733C135.428 21.4644 135.975 21.5251 136.491 21.5251H137.418V22.4212C137.418 23.2261 137.387 23.3172 137.084 23.4084C136.461 23.5906 134.775 23.6513 134.289 23.5298ZM141.746 23.4691C140.106 23.0439 139.073 22.1934 138.435 20.7962C138.192 20.2494 138.116 19.7634 138.101 18.5788C138.086 17.2424 138.132 16.9538 138.481 16.2248C139.362 14.372 140.47 13.6278 142.581 13.5215C144.829 13.4 146.105 14.0682 146.955 15.8148C147.381 16.6956 147.806 18.7003 147.624 18.9889C147.578 19.0648 146.044 19.1104 144.191 19.1104H140.835L140.926 19.5964C141.169 20.8417 142.293 21.5403 144.055 21.5251C144.677 21.5251 145.573 21.4188 146.029 21.2973C146.485 21.1758 146.879 21.0695 146.91 21.0695C146.925 21.0695 146.94 21.51 146.94 22.0415V23.0287L146.15 23.2717C145.087 23.621 142.703 23.7121 141.746 23.4691ZM144.86 17.136C144.86 16.7564 144.343 15.754 144.039 15.5566C142.794 14.7365 141.26 15.3591 140.972 16.8019L140.881 17.2879H142.87C144.07 17.2879 144.86 17.2272 144.86 17.136ZM54.344 22.4516V21.5403H55.7108V12.3065L55.073 12.261L54.4351 12.2154V10.3929L57.6244 10.3474C61.9224 10.2866 63.0462 10.5144 64.1853 11.7142C64.8839 12.4432 65.1421 13.1874 65.1421 14.4175C65.1421 17.0601 63.4259 18.3662 59.9632 18.3662H58.4597V21.5403H59.6747V23.3628H54.3592V22.4516H54.344ZM60.7985 16.3615C62.1046 15.997 62.6817 14.782 62.1654 13.5215C61.7705 12.5647 61.163 12.2761 59.6443 12.2761H58.4597V16.5286H59.3405C59.7962 16.5286 60.4644 16.4526 60.7985 16.3615ZM76.6691 22.4516V21.5403H77.7322V15.6173H76.5173V13.643H80.0103L80.1014 14.2505L80.1926 14.858L80.4811 14.4935C80.633 14.296 81.0886 13.9771 81.4835 13.7949C82.4554 13.3393 84.369 13.4 85.2195 13.9316C86.5864 14.782 86.9964 15.9818 86.9964 19.2926V21.5403H88.0595V23.3628H83.1996V21.5403H84.2627V16.8323L83.8071 16.3159C83.0022 15.3895 81.4227 15.4503 80.7393 16.4071C80.4204 16.8627 80.39 17.0905 80.3444 19.2167L80.2989 21.5251H81.5442V23.3476H76.6843L76.6691 22.4516ZM89.4264 22.4516V21.5403H90.4895V15.6173H89.2745V13.643H92.7675V14.8883L93.3295 14.4024C94.104 13.7189 94.7267 13.4911 95.8505 13.4911C97.5819 13.4911 98.569 14.053 99.2525 15.4351C99.6473 16.24 99.6625 16.4071 99.7233 18.8826L99.7688 21.4796L100.3 21.5251L100.832 21.5707V23.3628H95.972V21.5403H97.0655L97.02 19.0952L96.9744 16.6501L96.4884 16.2096C95.8809 15.6781 95.1823 15.5262 94.4078 15.7844C93.3143 16.1489 93.1776 16.5134 93.132 19.1863L93.0865 21.5251H94.1496L94.1951 22.4364L94.2407 23.3476H89.4416L89.4264 22.4516ZM23.7418 19.6267C23.4988 19.4901 23.2254 19.3382 23.1647 19.2623C23.1039 19.1863 22.785 19.1711 22.4812 19.2167C22.0864 19.2774 21.8586 19.2167 21.7219 19.0496C21.5548 18.8522 21.6004 18.6548 21.9801 17.8347C22.7242 16.24 24.2126 15.3743 26.0199 15.4958C26.84 15.5414 27.0982 15.6325 27.569 16.0122C28.5106 16.7716 28.7384 17.1816 28.6169 17.8347C28.4954 18.4573 27.6753 19.4141 27.2348 19.4141C26.9918 19.4141 26.9918 19.3838 27.2197 19.0344C27.5841 18.4877 27.5234 17.9258 27.0678 17.5157C26.2932 16.7867 25.1694 16.893 24.3341 17.7587C23.9088 18.1991 23.9088 18.2447 24.1215 18.6244C24.243 18.8522 24.6075 19.1711 24.9112 19.3382C25.2149 19.5052 25.4731 19.6875 25.4731 19.7634C25.4883 19.9609 24.2126 19.8697 23.7418 19.6267ZM17.3935 15.0402C16.9531 14.5542 16.5279 13.3696 16.3456 12.1395C16.1938 11.0612 16.1938 10.8637 16.4519 10.317C16.8316 9.46652 17.3935 8.96534 17.7125 9.17796C17.9858 9.34502 20.1576 12.9899 20.1728 13.2937C20.1728 13.4 19.9906 13.5974 19.7627 13.7493C19.5349 13.886 19.0186 14.3112 18.6237 14.6605C17.8188 15.4047 17.7428 15.4199 17.3935 15.0402ZM34.5247 14.2353C34.3728 14.0682 34.0539 13.8101 33.8109 13.6734C33.5679 13.5367 33.3856 13.3241 33.3856 13.1874C33.3856 12.8077 34.8892 11.0612 35.2081 11.0612C35.8763 11.0612 35.9675 12.7621 35.36 13.9619C35.0107 14.6453 34.9196 14.6757 34.5247 14.2353Z" fill="#568AB9"></path><path d="M24.4708 44.8678C19.6109 41.8304 15.8141 38.8385 14.6295 37.1224C13.9461 36.12 13.6423 34.9658 13.6423 33.28C13.6423 31.655 13.9157 30.8652 15.0244 29.3313C15.9964 27.9797 16.376 27.1292 16.376 26.2635C16.376 25.3371 16.5583 24.5777 16.7709 24.5777C16.8772 24.5777 17.1506 24.9878 17.3784 25.4738C17.6062 25.9598 17.9099 26.4913 18.0466 26.6128C18.1985 26.7495 19.2312 27.1596 20.3399 27.5392L22.375 28.2227L22.6331 27.9037C22.785 27.7215 22.9369 27.2507 22.9976 26.8558C23.1799 25.489 23.6659 25.413 23.6659 26.7495C23.6659 27.8885 23.9241 28.6479 24.6075 29.5591C25.7617 31.093 26.5666 31.3057 29.194 30.7286C31.2595 30.2881 31.4113 30.2122 31.9581 29.4984C32.1859 29.2098 32.4441 28.9668 32.5504 28.9668C32.6567 28.9668 32.8997 29.2858 33.0971 29.6958C33.4009 30.3033 33.5527 30.4552 34.1147 30.6222C35.0107 30.9108 35.2993 30.7437 36.1953 29.4376C36.8028 28.5416 36.9395 28.2227 37.0002 27.5089C37.0458 27.0381 36.985 26.2939 36.8787 25.8383C36.7117 25.1245 36.7117 24.8663 36.9547 23.8639C37.4255 21.8592 37.0154 19.8545 36.0434 19.4597C35.5726 19.2622 35.5574 19.2167 35.6334 18.6396C35.7852 17.5613 34.8588 16.969 33.7805 17.4549C33.3249 17.6676 33.3097 17.865 33.6439 18.5332C34.0083 19.2622 34.3121 19.5508 34.707 19.5508C34.9044 19.5508 35.0563 19.6267 35.0563 19.7027C35.0563 19.976 33.7502 19.8849 33.5072 19.5812C33.0819 19.0952 32.4289 17.6524 32.4441 17.212C32.4744 16.3767 33.7198 15.6021 34.6614 15.8299C35.2689 15.9818 36.1194 17.0145 36.1194 17.622C36.1194 18.2751 36.4839 18.6244 36.7117 18.1839C37.1217 17.4246 36.8635 16.4982 35.9979 15.5566L35.6334 15.1617L36.0586 14.3416C36.3927 13.6885 36.4839 13.3089 36.4839 12.4584C36.499 11.5168 36.4383 11.289 36.0282 10.6359L35.5574 9.89173L34.6614 9.90693C33.9628 9.92211 33.492 10.0436 32.5656 10.4688C31.4569 10.9852 31.381 11.046 31.4721 11.4105C31.5784 11.8509 31.4873 11.8813 30.7431 11.5623C29.1485 10.8941 25.8225 10.4233 22.7395 10.4233H20.8259L19.8843 9.28425C18.8515 8.0389 18.2289 7.61366 17.6518 7.76553C17.1961 7.88703 15.8445 9.11719 15.5407 9.6943C15.1003 10.5296 15.1155 12.3217 15.5711 14.4175C15.6774 14.8883 15.4344 14.9794 15.0699 14.5998C14.8573 14.3871 14.8117 14.3871 14.5384 14.6301C13.9916 15.1313 12.0325 18.2143 11.2731 19.7634C10.4682 21.434 10.4834 21.2669 10.6353 25.3827C10.696 26.8862 10.6808 26.9166 10.0733 28.2682C9.72404 29.0276 9.38993 29.8325 9.32918 30.0907C9.22287 30.5311 9.19249 30.5007 8.55463 29.1795C7.67377 27.357 7.03591 25.3371 6.67142 23.2261C6.39805 21.6466 6.36768 20.7354 6.36768 13.3848V5.29002L7.00554 5.04703C10.6656 3.71056 15.8445 2.66264 21.0841 2.20702C24.1063 1.94884 31.3202 2.1159 34.2817 2.51077C37.9722 3.01194 41.2678 3.74093 44.3812 4.74328L46.0214 5.27484L45.9455 13.6582C45.8695 22.649 45.8392 22.9072 45.0039 25.8383C43.8345 29.8933 41.2374 33.9179 37.471 37.5324C36.089 38.8537 33.6439 40.904 33.2794 41.0558C33.1882 41.1014 32.8541 41.0103 32.5504 40.8584C31.8821 40.5395 31.1835 39.4156 30.9405 38.2462C30.8494 37.8058 30.7127 37.4565 30.6368 37.4565C30.5609 37.4565 29.7407 38.231 28.8295 39.1574C26.6578 41.3748 26.2629 42.0886 26.111 44.2603L26.0047 45.7942L24.4708 44.8678ZM32.5959 33.3104C33.3401 33.0066 33.9932 32.3536 33.9932 31.9435C33.9932 31.4272 33.2338 31.1842 31.6391 31.2297C30.1356 31.2601 28.0398 31.7309 27.5842 32.141C27.0526 32.6118 27.2956 33.1433 28.1765 33.4015C28.9662 33.6141 31.9733 33.5686 32.5959 33.3104ZM32.6263 27.9493C32.6263 27.7974 32.6871 27.4481 32.7782 27.1747C32.9908 26.4306 32.52 26.0053 31.2898 25.8687C30.7735 25.8079 30.3179 25.7016 30.2723 25.6408C30.2267 25.5801 30.3634 25.3067 30.576 25.0637C31.0317 24.517 31.9581 24.274 33.5831 24.274C35.0714 24.274 35.7852 24.4866 35.9067 24.9574C36.0586 25.5497 35.8916 25.7472 34.9803 26.0053C34.221 26.218 34.0995 26.3243 33.8868 26.8103C33.659 27.3722 32.9756 28.2075 32.7478 28.2075C32.6871 28.2227 32.6263 28.1012 32.6263 27.9493ZM69.759 23.4995C68.0884 23.2261 66.8127 22.2845 66.1748 20.8873C65.8711 20.219 65.8103 19.8545 65.8103 18.5029C65.8103 17.0601 65.8559 16.8171 66.2355 16.0425C66.7671 14.9491 67.7998 14.0226 68.8174 13.7189C69.6982 13.4607 71.3232 13.4152 72.1282 13.643C73.8443 14.129 74.9985 15.7996 75.2567 18.2295L75.3479 19.1104H68.4529L68.544 19.5356C68.8781 20.948 69.9868 21.6314 71.87 21.6011C72.5534 21.5859 73.3887 21.4796 73.7684 21.3429C74.1481 21.2062 74.4974 21.0999 74.5581 21.0999C74.6189 21.0999 74.6796 21.5403 74.6796 22.0719V23.059L74.0418 23.2413C72.5838 23.621 71.0651 23.7273 69.759 23.4995ZM72.4167 16.8475C72.4167 16.0425 71.3992 15.1617 70.488 15.1617C69.6527 15.1617 68.7718 15.9362 68.5592 16.8627L68.4681 17.2879H72.4167V16.8475ZM105.191 23.5146C104.629 23.4539 103.793 23.2868 103.323 23.1501L102.472 22.9072L102.518 21.2062L102.563 19.5052L103.748 19.4597L104.932 19.4141V21.2062L105.889 21.3733C107.165 21.6011 107.712 21.5859 108.334 21.3277C108.957 21.0695 109.337 20.5531 109.337 19.976C109.337 19.004 108.714 18.5181 106.74 17.9561C104.203 17.2423 103.171 16.483 102.821 15.0858C102.305 13.0355 103.049 11.3801 104.826 10.6055C106.178 10.0284 108.972 10.0284 111.053 10.6207L111.63 10.7878V13.9467H109.352V13.1874C109.352 12.3217 109.23 12.2154 108.122 12.0483C106.649 11.8205 105.555 12.5039 105.555 13.643C105.555 14.3568 106.102 14.9491 106.983 15.1617C110.947 16.164 112.086 17.1057 112.086 19.3989C112.086 20.6898 111.903 21.3277 111.311 22.0263C110.202 23.3628 108.167 23.8488 105.191 23.5146ZM116.703 23.4995C115.822 23.2868 115.153 22.816 114.85 22.1782C114.607 21.6922 114.561 21.1606 114.516 18.5332L114.47 15.4654H113.285V13.643H114.5L114.546 12.6102L114.592 11.5775L115.837 11.5319L117.082 11.4864V13.6126H119.664V15.4351L118.419 15.4806L117.173 15.5262L117.128 17.7739C117.082 20.5531 117.204 21.1606 117.948 21.4644C118.312 21.6162 118.707 21.6618 119.148 21.5859L119.816 21.4796V22.3908C119.816 23.2109 119.786 23.3172 119.482 23.3931C118.707 23.5906 117.264 23.6513 116.703 23.4995ZM123.051 23.5298C121.411 23.1198 120.575 21.8137 120.879 20.1583C121.031 19.2926 121.441 18.8066 122.458 18.2902C123.248 17.8802 123.506 17.8346 125.162 17.7739L126.984 17.7131L126.908 16.9538C126.802 15.9059 126.331 15.4351 125.253 15.3591C124.812 15.3287 124.205 15.3591 123.916 15.4351C123.43 15.5566 123.385 15.6173 123.339 16.2096L123.294 16.8475H121.198V14.4479L121.927 14.1441C123.081 13.6582 123.795 13.5063 125.01 13.5063C126.498 13.5063 127.592 13.8404 128.351 14.5238C129.232 15.3136 129.399 16.0729 129.399 19.08V21.5403H130.462V23.3628H127.273V22.7553C127.273 22.4212 127.227 22.1478 127.182 22.1478C127.136 22.1478 126.924 22.3452 126.726 22.5882C126.058 23.3476 124.22 23.8336 123.051 23.5298ZM126.164 21.1758C126.544 20.8113 126.939 19.9153 126.939 19.4293C126.939 19.2015 125.055 19.2167 124.372 19.4597C124.084 19.566 123.719 19.8242 123.552 20.052C123.279 20.4165 123.279 20.5228 123.446 20.9328C123.719 21.5707 123.992 21.7226 124.934 21.6466C125.557 21.6011 125.83 21.4947 126.164 21.1758ZM134.335 23.4995C133.484 23.2868 132.892 22.892 132.512 22.2997C132.209 21.7985 132.178 21.5403 132.133 18.6244L132.087 15.4654H130.903V13.643H132.118L132.163 12.6102L132.209 11.5775L133.454 11.5319L134.699 11.4864V13.6126H137.281V15.4351L136.036 15.4806L134.79 15.5262L134.745 17.8043C134.684 20.5835 134.821 21.1454 135.58 21.4644C135.945 21.6162 136.34 21.6618 136.78 21.5859L137.448 21.4796V22.3908C137.448 23.2109 137.418 23.3172 137.114 23.3931C136.34 23.5906 134.882 23.6513 134.335 23.4995ZM142.08 23.5146C141.078 23.3476 139.802 22.6945 139.301 22.1022C138.299 20.9176 137.889 19.2015 138.177 17.4701C138.496 15.5566 139.544 14.2808 141.245 13.7037C142.247 13.3696 144.222 13.4607 145.087 13.8708C146.485 14.539 147.411 16.1033 147.563 18.0776L147.639 19.1104H144.282C141.002 19.1104 140.926 19.1104 140.926 19.4141C140.926 20.3253 141.944 21.2821 143.174 21.5403C143.979 21.7074 145.604 21.5555 146.469 21.2366C146.682 21.1454 146.895 21.0847 146.94 21.0847C146.986 21.0847 147.001 21.5251 147.001 22.0567C147.001 23.0287 147.001 23.0287 146.515 23.1957C145.877 23.4083 144.055 23.6665 143.356 23.6513C143.052 23.6361 142.49 23.5754 142.08 23.5146ZM144.799 16.8019C144.662 16.0729 144.222 15.5717 143.508 15.3287C142.946 15.1313 142.794 15.1313 142.232 15.3287C141.534 15.5717 140.896 16.3311 140.896 16.9386C140.896 17.3031 140.896 17.3031 142.885 17.3031H144.875L144.799 16.8019ZM54.344 22.4515V21.5403H55.7108V12.3065L55.073 12.2609L54.4351 12.2154V10.3929H58.08C62.2565 10.3929 62.8792 10.5144 64.0182 11.5623C64.8991 12.3672 65.1876 13.1874 65.1117 14.615C65.0358 16.2248 64.5042 17.0449 63.107 17.7587C62.135 18.2447 61.9679 18.2902 60.267 18.351L58.4445 18.4117V21.5403H59.6595V23.3628H54.344V22.4515ZM61.406 16.164C62.3324 15.5566 62.6362 14.4023 62.1502 13.3848C61.7553 12.5343 61.1782 12.2761 59.7051 12.2761H58.4597V16.5589L59.7354 16.4982C60.5859 16.4526 61.1326 16.3463 61.406 16.164ZM76.6691 22.4515V21.5403H77.7322V15.4654H76.5173V13.643H80.0103V14.0682C80.0103 14.296 80.0711 14.5846 80.147 14.6909C80.2533 14.8579 80.3141 14.8428 80.4507 14.5846C80.5419 14.4175 80.9671 14.0986 81.4075 13.886C83.1541 13.0203 85.3866 13.5519 86.313 15.0706C86.7686 15.8147 86.7686 15.8299 86.8445 18.6396L86.9205 21.4644L87.4976 21.5099L88.0747 21.5555V23.3476H83.2756L83.2907 22.4667C83.3059 21.6011 83.3059 21.5859 83.8223 21.5099L84.3387 21.434V19.2319C84.3387 16.7108 84.202 16.2552 83.2604 15.8147C82.6073 15.511 81.7265 15.5717 81.1342 15.9666C80.4659 16.407 80.3141 17.0449 80.3141 19.3837V21.5099H81.3468L81.3923 22.4212L81.4379 23.3324H76.6388L76.6691 22.4515ZM89.4264 22.4515V21.5403H90.4895V15.4654H89.2745V13.643H92.7675V14.2505C92.7675 14.5846 92.7979 14.8579 92.8283 14.8579C92.8587 14.8579 93.1169 14.6301 93.4206 14.3568C94.7267 13.1266 97.43 13.2025 98.645 14.5086C99.4803 15.4047 99.5258 15.6477 99.617 18.6547L99.6929 21.4644L100.27 21.5099L100.847 21.5555V23.3476H95.9872V21.5251H97.0503V16.8323L96.5492 16.2855C95.9265 15.6021 95.0001 15.4502 94.1648 15.8755C93.2687 16.3311 93.1017 16.893 93.1017 19.3837V21.5403H94.1648V23.3628H89.4567L89.4264 22.4515ZM23.6659 19.5356C23.3166 19.3078 22.9065 19.2015 22.4509 19.2015C21.7979 19.2015 21.7675 19.1711 21.7219 18.7459C21.646 17.9865 22.5117 16.7563 23.5748 16.1033C24.41 15.5869 24.5619 15.5566 25.6554 15.5566C26.7185 15.5566 26.9007 15.6021 27.4779 16.0122C27.8272 16.2703 28.2524 16.65 28.4347 16.8778C28.708 17.2575 28.7232 17.3486 28.5561 17.9258C28.3435 18.6092 27.6601 19.4293 27.2652 19.4293C27.0678 19.4293 27.083 19.3534 27.3412 18.9129C27.6297 18.4269 27.6297 18.3662 27.4019 17.9258C26.9007 16.969 25.5795 16.7412 24.5923 17.4549C23.9241 17.9258 23.8481 18.4421 24.3493 18.9737C24.5771 19.2167 24.9264 19.4445 25.1238 19.5052C25.7161 19.6571 25.5339 19.9001 24.8353 19.9001C24.4404 19.8697 24.0152 19.7482 23.6659 19.5356ZM17.4847 15.0858C17.0443 14.782 16.5887 13.5974 16.376 12.2457C16.209 11.213 16.2242 10.9852 16.4368 10.4081C16.5735 10.0436 16.862 9.58799 17.0746 9.39056C17.5606 8.93494 17.834 9.08682 18.3352 10.0284C18.5326 10.3929 19.0338 11.2586 19.4287 11.942C19.8235 12.6254 20.1728 13.2481 20.1728 13.3392C20.1728 13.4303 19.945 13.6278 19.6868 13.7948C19.4287 13.9619 18.9882 14.3112 18.7452 14.5846C18.0922 15.2376 17.8492 15.3439 17.4847 15.0858ZM34.3728 14.0834C34.1298 13.8404 33.7957 13.5974 33.6439 13.5519C33.492 13.5063 33.3705 13.3696 33.3705 13.2329C33.3705 12.9444 34.6766 11.2586 35.0107 11.1371C35.7549 10.8485 35.9827 12.5495 35.36 13.8252C35.1626 14.2201 34.9651 14.539 34.9044 14.539C34.874 14.539 34.631 14.3416 34.3728 14.0834Z" fill="#4379B0"></path><path d="M24.2733 44.7311C18.8515 41.2988 15.0699 38.2006 14.265 36.53C13.8246 35.6188 13.5816 33.9179 13.7031 32.5054C13.7942 31.3057 14.1739 30.3944 15.0092 29.3617C15.9811 28.1467 16.2545 27.524 16.4368 26.0509C16.6494 24.3955 16.8468 24.2588 17.3632 25.4738C17.5606 25.9294 17.8795 26.4458 18.077 26.6128C18.2744 26.7799 19.3223 27.2203 20.4006 27.5848L22.3598 28.253L22.6179 27.9341C22.7546 27.767 22.9521 27.2051 23.0584 26.6888C23.3166 25.3978 23.5747 25.5649 23.6962 27.114C23.7722 28.1467 23.8633 28.4656 24.2733 29.1035C24.9264 30.121 25.6554 30.7285 26.4451 30.9412C27.1741 31.1386 27.6905 31.093 29.7559 30.6222C31.0924 30.3185 31.2443 30.2425 31.8214 29.6351C32.1707 29.2706 32.5048 28.9668 32.5959 28.9668C32.687 28.9668 32.8845 29.2858 33.0667 29.6654C33.3097 30.1666 33.5527 30.4248 33.9324 30.5767C34.874 30.9715 35.1474 30.8804 35.9067 29.8932C36.2864 29.3921 36.7116 28.7542 36.8331 28.4505C37.1065 27.8126 37.1217 26.5672 36.8787 25.7623C36.7268 25.2763 36.7572 24.9574 36.985 23.9702C37.4558 21.8896 37.0761 19.8849 36.1193 19.49C35.6637 19.3078 35.6485 19.247 35.6789 18.6092C35.7093 18.0624 35.6485 17.865 35.3752 17.6068C34.9651 17.2271 34.1754 17.1816 33.6438 17.5309C33.3249 17.7435 33.2945 17.8194 33.4464 18.1687C33.7501 18.8825 34.3273 19.566 34.631 19.566C34.7981 19.566 34.9196 19.6419 34.9196 19.7178C34.9196 19.7938 34.6462 19.8697 34.3273 19.8697C33.6742 19.8697 33.4616 19.6571 32.8237 18.3965C32.3681 17.5005 32.3985 16.9082 32.9452 16.3615C33.3249 15.9818 33.5071 15.921 34.1754 15.921C34.8892 15.921 35.0259 15.9818 35.5574 16.5133C36.013 16.969 36.1497 17.2271 36.1497 17.6068C36.1497 18.6851 36.6357 18.761 36.9091 17.7283C37.0913 17.0449 36.9243 16.5893 36.1345 15.6932L35.6789 15.1617L36.089 14.3568C36.6661 13.2177 36.742 12.0787 36.3168 11.0763C36.1345 10.6511 35.846 10.1803 35.6941 10.0436C35.2537 9.63354 33.9931 9.81579 32.5959 10.484C31.4873 11.0156 31.4265 11.0611 31.5176 11.4408C31.6239 11.8812 31.7151 11.8964 30.2115 11.3497C28.7991 10.8485 26.6881 10.56 23.6962 10.4688L20.8714 10.3929L19.8539 9.19311C19.2919 8.52488 18.6693 7.91739 18.4718 7.82627C17.8947 7.56808 17.3176 7.81108 16.3912 8.7375C15.161 9.98285 14.9636 10.9548 15.4192 13.5518C15.5407 14.2201 15.647 14.782 15.647 14.7972C15.6622 14.9491 15.2673 14.782 15.1003 14.5694C14.9029 14.3264 14.8573 14.3416 14.3713 14.8883C13.0652 16.3463 11.3187 19.3533 10.7112 21.1758L10.3315 22.3148L10.5897 23.9247C10.9086 25.9446 10.8175 26.6736 10.0733 28.329C9.73921 29.058 9.42028 29.8477 9.35953 30.1059C9.25322 30.5463 9.22285 30.5159 8.64573 29.2858C7.856 27.6 7.20295 25.7168 6.82327 23.9551C6.53471 22.6186 6.50434 21.9048 6.44359 13.9011L6.38284 5.29L8.25087 4.68252C13.4449 2.99674 18.32 2.25256 24.8201 2.11588C31.9125 1.97919 37.4558 2.67781 43.4396 4.46989L45.8088 5.18369V13.9467C45.8088 22.5275 45.8088 22.7097 45.4595 24.2588C44.2445 29.6958 41.1919 34.4342 36.013 38.9144C33.1578 41.3748 33.173 41.3748 32.2162 40.5698C31.6239 40.0687 31.2898 39.446 31.0772 38.3981C30.9861 37.9425 30.819 37.5476 30.7127 37.502C30.6064 37.4716 29.7711 38.2158 28.8599 39.1574C26.7033 41.4051 26.2932 42.1797 26.1566 44.2907L26.0654 45.8094L24.2733 44.7311ZM32.6719 33.3255C33.3857 33.0218 34.0387 32.2776 33.978 31.8372C33.8716 31.0627 31.7454 30.9108 29.3155 31.4879C27.9031 31.822 27.326 32.1258 27.326 32.551C27.326 33.28 28.0246 33.5078 30.409 33.523C31.6088 33.5382 32.3377 33.4774 32.6719 33.3255ZM32.6263 27.8734C32.6263 27.767 32.687 27.4633 32.763 27.1747C32.8389 26.8862 32.8693 26.5824 32.8237 26.4609C32.7174 26.1876 32.1099 25.9598 31.1683 25.8383C30.1812 25.7016 30.1356 25.6712 30.4393 25.2308C30.8038 24.6688 31.4569 24.3955 32.687 24.3044C34.7373 24.1525 35.9675 24.4714 35.9523 25.1397C35.9523 25.5953 35.7245 25.7775 34.9499 25.975C34.2969 26.142 34.1602 26.2483 33.8261 26.8558C33.6135 27.2355 33.3553 27.6607 33.2338 27.7974C33.006 28.1163 32.6263 28.1467 32.6263 27.8734ZM69.8349 23.5146C67.3746 23.1046 65.9318 21.4644 65.7799 18.9281C65.6432 16.6804 66.5393 14.8579 68.225 13.9923C68.8173 13.6885 69.3033 13.5822 70.2449 13.5215C72.28 13.4152 73.6013 14.0378 74.4822 15.5262C74.877 16.1944 75.3175 17.8194 75.3175 18.6092V19.0952H68.4377L68.544 19.5204C68.7262 20.2798 69.1667 20.8417 69.8501 21.2214C70.4272 21.5403 70.7157 21.601 71.7333 21.5859C72.7964 21.5707 73.6924 21.4188 74.4822 21.1151C74.6644 21.0543 74.6948 21.2214 74.6948 22.0111V22.9831L74.1177 23.1501C73.4039 23.3628 71.5814 23.6361 70.9739 23.6057C70.7309 23.6361 70.2146 23.5754 69.8349 23.5146ZM72.4775 16.8778C72.2952 16.1185 71.9763 15.6629 71.4599 15.4199C70.3816 14.9035 69.2882 15.268 68.787 16.3007C68.6199 16.65 68.4832 17.0297 68.4832 17.1208C68.4832 17.2575 69.0603 17.3031 70.5335 17.3031H72.5838L72.4775 16.8778ZM105.677 23.5602C105.069 23.4994 103.869 23.2564 103.095 23.059L102.563 22.9223L102.594 21.2062L102.624 19.49H104.841L104.887 20.3557C104.932 21.2214 104.932 21.2214 105.494 21.3429C105.798 21.4036 106.588 21.4644 107.241 21.4644C108.395 21.4644 108.441 21.4492 108.881 20.9632C109.458 20.3253 109.473 19.6115 108.927 18.9737C108.623 18.6092 108.213 18.4117 106.983 18.0321C104.872 17.379 104.674 17.3031 103.991 16.8171C102.472 15.7084 102.184 13.1114 103.414 11.6079C103.96 10.9548 104.689 10.56 105.783 10.317C107.18 10.0284 109.397 10.1499 111.023 10.6359L111.6 10.803V13.9467H109.322V13.1114C109.322 12.3369 109.291 12.2761 108.896 12.1698C108.046 11.9268 106.618 12.0331 106.163 12.3672C105.51 12.8532 105.297 13.3848 105.51 14.0378C105.737 14.7364 106.147 14.9794 107.833 15.435C110.992 16.2703 112.04 17.2727 112.04 19.4748C112.04 21.8137 110.84 23.1046 108.228 23.5146C107.302 23.6665 106.74 23.6817 105.677 23.5602ZM116.566 23.4539C115.624 23.1957 114.865 22.4667 114.652 21.601C114.561 21.2366 114.485 19.7026 114.485 18.1991V15.4654H113.27V13.643H114.485V11.699L115.776 11.6534L117.067 11.6079V13.6733H119.649V15.4958L118.403 15.5414L117.158 15.5869L117.113 18.0169C117.082 20.0975 117.113 20.5228 117.34 20.9632C117.659 21.5707 118.206 21.7833 119.163 21.6314L119.801 21.5403V22.4515C119.801 23.3628 119.801 23.3628 119.315 23.4539C118.085 23.6361 117.249 23.6513 116.566 23.4539ZM122.944 23.4539C121.547 23.059 120.833 22.163 120.833 20.7961C120.833 18.761 122.428 17.7587 125.617 17.7435H126.954V17.0601C126.954 16.5285 126.863 16.2703 126.529 15.8907C126.164 15.4806 125.967 15.4047 125.283 15.3439C124.828 15.3135 124.22 15.3439 123.932 15.4199C123.446 15.5414 123.4 15.6021 123.355 16.1944L123.309 16.8323H121.213V14.4327L121.942 14.1138C122.99 13.6581 123.856 13.4911 125.086 13.4911C126.498 13.4911 127.607 13.8252 128.351 14.4934C129.232 15.2832 129.399 16.0425 129.399 19.0496V21.5403H130.462V23.3628H127.273V22.7553C127.273 22.4211 127.227 22.1478 127.182 22.1478C127.136 22.1478 126.924 22.3452 126.726 22.5882C125.997 23.4235 124.266 23.8184 122.944 23.4539ZM126.103 21.2214C126.574 20.8113 126.939 20.0368 126.954 19.4445C126.954 19.3078 126.635 19.2622 125.86 19.2622C123.977 19.2622 123.066 19.9304 123.461 20.9784C123.658 21.4947 124.023 21.677 124.873 21.677C125.435 21.6922 125.663 21.601 126.103 21.2214ZM134.183 23.4539C133.302 23.2109 132.467 22.4363 132.254 21.6922C132.178 21.4036 132.102 19.8697 132.102 18.3054V15.4502H130.887V13.6278H132.102L132.148 12.6254L132.193 11.6231L133.454 11.5927L134.715 11.5623V13.6278H137.296V15.4502H134.715V18.0017C134.715 20.2342 134.745 20.5987 135.003 21.0239C135.337 21.5555 135.93 21.7377 136.856 21.601L137.448 21.5099V22.4211C137.448 23.3324 137.448 23.3324 136.962 23.4235C135.702 23.6361 134.866 23.6513 134.183 23.4539ZM141.883 23.4387C140.835 23.2109 140.47 23.0438 139.696 22.4363C137.722 20.8872 137.57 16.7563 139.423 14.8427C140.258 13.9923 141.184 13.5974 142.597 13.5063C145.042 13.3696 146.53 14.3416 147.29 16.6348C147.457 17.1512 147.608 17.9106 147.608 18.3358V19.0952H144.267C141.002 19.0952 140.926 19.0952 140.926 19.3989C140.926 19.8545 141.306 20.5228 141.837 20.9632C142.703 21.6922 144.723 21.8288 146.302 21.2821C146.621 21.1758 146.91 21.0695 146.94 21.0695C146.971 21.0695 147.001 21.5099 147.001 22.0567V23.0438L146.363 23.2261C145.604 23.4387 143.933 23.6665 143.295 23.6513C143.022 23.6513 142.399 23.545 141.883 23.4387ZM144.799 16.8019C144.662 16.0881 144.298 15.6173 143.705 15.3743C142.414 14.8276 141.306 15.4199 140.896 16.8474L140.774 17.2879H144.905L144.799 16.8019ZM54.4806 22.4515L54.5262 21.5403H55.7108L55.6652 16.8626L55.6197 12.185H54.4655V10.3625L58.1408 10.3929C62.4235 10.4385 62.9095 10.5296 64.0334 11.6534C64.7927 12.4128 65.0965 13.157 65.0965 14.3264C65.0965 15.4502 64.8383 16.164 64.1701 16.893C63.2437 17.8954 62.3324 18.2295 60.191 18.3054L58.3989 18.3814V21.5403H59.6139V23.3628H54.3895L54.4806 22.4515ZM61.1782 16.2703C62.2717 15.7236 62.6817 14.4479 62.135 13.3544C61.7249 12.5495 61.0719 12.2457 59.6898 12.2305L58.5204 12.2154L58.4749 14.3719L58.4293 16.5285H59.538C60.2973 16.5285 60.8289 16.4374 61.1782 16.2703ZM76.6691 22.4515V21.5403H77.7322V15.4654H76.5172V13.643H78.2638C80.0103 13.643 80.0103 13.643 80.0103 14.0075C80.0103 14.2049 80.0559 14.4783 80.1014 14.6149C80.1774 14.8276 80.2533 14.7972 80.5874 14.4479C81.2253 13.7948 82.0758 13.4911 83.2148 13.4759C84.5968 13.4759 85.6599 14.0226 86.2978 15.0554C86.7534 15.7995 86.7534 15.7995 86.8293 18.6244L86.9053 21.4492L87.4824 21.4947L88.0595 21.5403V23.3324H83.3515V21.5099H84.4146V19.4141C84.4146 17.6676 84.369 17.2119 84.1108 16.6804C83.64 15.6325 82.2884 15.268 81.2556 15.8907C80.4659 16.3766 80.314 16.9386 80.314 19.3685V21.4947H81.3771V23.3172H76.6691V22.4515ZM89.4264 22.4515V21.5403H90.4895V15.4654H89.2745V13.643H92.7675V14.2504C92.7675 14.9187 92.9042 15.0098 93.1776 14.5694C93.4965 14.053 94.8634 13.4911 95.805 13.4911C97.0351 13.4911 97.7337 13.7341 98.4931 14.4327C99.4499 15.3135 99.617 15.997 99.617 19.0648V21.5403H100.832V23.3628H95.972V21.5707L96.5491 21.5251L97.1263 21.4795V19.2774C97.1263 17.379 97.0807 16.9993 96.8225 16.5893C96.2606 15.6477 94.9241 15.3591 93.9977 15.9818C93.1928 16.5285 93.1016 16.8323 93.1016 19.323V21.5707H94.1647V23.3931H89.4567V22.4515H89.4264ZM23.9848 19.7026C23.7874 19.6267 23.514 19.4748 23.3925 19.3685C23.271 19.2622 22.8609 19.1863 22.4661 19.1863C21.7978 19.1863 21.7675 19.1711 21.7219 18.7307C21.646 17.9713 22.5116 16.7411 23.5747 16.0881C24.41 15.5717 24.5619 15.5414 25.6554 15.5414C26.7185 15.5414 26.9007 15.5869 27.4778 15.997C27.8423 16.2552 28.2676 16.6804 28.4194 16.9538C28.6928 17.4246 28.6928 17.4853 28.465 18.108C28.1916 18.8218 27.8727 19.1711 27.3563 19.323L27.007 19.4293L27.326 18.8825C27.7208 18.2143 27.569 17.7435 26.8096 17.2879C26.1262 16.8778 25.3668 16.9082 24.6834 17.3638C23.9088 17.8954 23.8025 18.3965 24.3645 18.9737C24.6075 19.2167 24.9568 19.4596 25.139 19.5052C25.3364 19.5508 25.4883 19.6571 25.4883 19.733C25.4883 19.9153 24.4556 19.8849 23.9848 19.7026ZM17.1657 14.6757C16.8164 14.0986 16.4368 12.838 16.3001 11.7294C16.1938 10.8485 16.5279 9.86134 17.1202 9.32979C17.5454 8.95011 17.8492 9.11717 18.3352 10.0132C18.5326 10.3777 19.0338 11.2586 19.4286 11.942C19.8387 12.6406 20.1728 13.2633 20.1728 13.324C20.1728 13.3848 19.8994 13.6278 19.5653 13.8404C19.2312 14.0682 18.7756 14.4479 18.5478 14.6909C18.0162 15.3135 17.5454 15.2984 17.1657 14.6757ZM34.2969 13.9923C33.9172 13.7037 33.5527 13.4151 33.4768 13.3392C33.2945 13.1722 33.8261 12.3369 34.5854 11.5927C35.1626 11.0308 35.2233 11.0004 35.4663 11.2434C35.846 11.6231 35.7852 12.9595 35.3296 13.8252L34.9803 14.5086L34.2969 13.9923Z" fill="#2D70A9"></path><path d="M24.4252 44.7767C19.1705 41.5114 15.3585 38.3981 14.3258 36.53C13.8853 35.7403 13.8853 35.6796 13.8853 33.447C13.8853 30.8956 13.8246 31.0778 15.1914 29.1946C16.0723 27.9797 16.5431 26.7799 16.5431 25.7168C16.5431 25.1548 16.695 24.5777 16.8316 24.5777C16.8924 24.5777 17.1202 25.0181 17.3632 25.5649C17.6669 26.2635 17.9403 26.628 18.2744 26.8254C18.9579 27.2355 22.2535 28.2682 22.5268 28.1771C22.7546 28.086 22.9521 27.5088 23.1495 26.3546C23.3166 25.3523 23.6051 25.7775 23.6962 27.2051C23.7874 28.6175 23.9089 28.8909 24.9416 30.0147C26.0655 31.2297 26.7033 31.3512 29.2548 30.7893C31.0317 30.4096 31.4265 30.2122 31.9885 29.5136C32.2163 29.225 32.4896 28.982 32.5808 28.982C32.6719 28.982 32.8541 29.2402 32.9756 29.5591C33.2946 30.3337 33.6742 30.6374 34.4792 30.7589C35.1778 30.85 35.1778 30.85 35.8004 30.0451C36.7724 28.8149 37.0762 28.1315 37.0762 27.1444C37.0762 26.6736 36.985 26.0813 36.8787 25.8231C36.6661 25.3067 36.6965 25.0182 37.0914 23.545C37.547 21.8744 37.0306 19.9153 36.0131 19.4293C35.603 19.2318 35.5574 19.1559 35.6789 18.837C35.846 18.3965 35.5878 17.6675 35.193 17.4549C34.7525 17.2119 33.902 17.2879 33.5224 17.5916L33.1731 17.865L33.5375 18.5332C33.735 18.8977 34.145 19.3533 34.4336 19.5508L34.9651 19.9153L34.2817 19.8697C33.6287 19.8241 33.5831 19.7938 33.0971 18.9281C32.2466 17.4246 32.2466 16.7563 33.0971 16.2551C34.3577 15.4806 35.846 16.2096 36.0586 17.6827C36.1953 18.6092 36.4687 18.7307 36.7876 18.0017C37.1065 17.2575 36.9547 16.7259 36.2409 15.921L35.6486 15.2528L36.0434 14.4479C36.6205 13.2633 36.6813 12.1242 36.1801 11.0459C35.6486 9.89172 35.2841 9.67909 34.2362 9.89171C33.7805 9.98284 32.9452 10.3018 32.3833 10.5903C31.4265 11.0763 31.3506 11.1371 31.4417 11.5016C31.5177 11.8357 31.5025 11.8812 31.2595 11.7749C30.2116 11.3497 29.1333 11.0459 28.0246 10.8637C26.0806 10.5448 22.8458 10.317 21.7523 10.4233L20.7955 10.5144L20.1424 9.66391C19.1553 8.38818 18.3807 7.75033 17.834 7.75033C17.2569 7.75033 15.8141 9.05642 15.3889 9.95247C15.0547 10.6966 15.0244 12.2154 15.3281 13.7493C15.4344 14.3264 15.5104 14.8427 15.48 14.8731C15.4496 14.9035 15.2977 14.8276 15.1459 14.6909C14.7814 14.3719 14.7358 14.3719 14.3561 14.782C13.126 16.1033 10.8631 20.0519 10.4834 21.5555C10.2556 22.4363 10.2556 22.6489 10.4834 24.2132C10.772 26.2027 10.696 26.7343 9.92147 28.496C9.63292 29.1642 9.31399 29.878 9.23805 30.0755C9.10137 30.4096 9.05581 30.3489 8.55463 29.3161C7.78008 27.7367 7.24853 26.1724 6.79291 24.2436C6.41323 22.573 6.39805 22.5426 6.3373 13.9771L6.27655 5.38112L7.70414 4.9255C11.0909 3.83203 14.2954 3.13342 18.3807 2.60187C20.5829 2.31331 21.6915 2.26775 25.8984 2.25256C29.027 2.25256 31.4417 2.31331 32.5048 2.43481C36.9395 2.95118 41.1615 3.83203 44.3964 4.91032L45.8088 5.38112L45.748 14.1289L45.6873 22.8768L45.2924 24.4714C43.8041 30.5159 40.5237 35.2543 34.3577 40.2357L33.1882 41.1773L32.6719 40.9647C31.9429 40.6609 31.3354 39.7801 31.0317 38.6107C30.895 38.0639 30.6975 37.5779 30.576 37.5476C30.4697 37.5172 29.6041 38.2766 28.6625 39.2637C26.4755 41.5266 26.1718 42.1189 26.0351 44.2603L25.944 45.8094L24.4252 44.7767ZM32.8997 33.2192C33.6742 32.8396 34.2058 32.1106 33.9932 31.7157C33.659 31.093 32.2011 30.9563 29.9989 31.3512C28.4347 31.6246 27.5234 31.9739 27.3108 32.3536C27.0982 32.7484 27.7209 33.3407 28.4802 33.4774C28.7991 33.523 29.1636 33.5989 29.3003 33.6293C29.4218 33.6597 30.1356 33.6597 30.8798 33.6141C31.8366 33.5533 32.4289 33.447 32.8997 33.2192ZM32.6719 27.7518C32.7174 27.5544 32.7934 27.2203 32.8541 27.0229C32.8997 26.8102 32.8541 26.5217 32.7478 26.3698C32.5352 26.0812 31.6543 25.8231 30.8494 25.8079C30.3027 25.8079 30.2419 25.656 30.5912 25.1245C30.9861 24.5322 31.6391 24.3651 33.5679 24.3651C35.5574 24.3651 35.8308 24.4714 35.8308 25.2763C35.8308 25.7471 35.7853 25.7775 35.0563 25.9597C34.4488 26.1116 34.221 26.2483 34.0235 26.5976C33.5072 27.5544 33.1427 28.01 32.8845 28.0556C32.6415 28.086 32.6111 28.0252 32.6719 27.7518ZM68.8326 23.2413C67.2987 22.6945 66.433 21.7377 65.9622 20.0975C65.3851 18.0776 66.0837 15.5413 67.5417 14.4479C69.4704 12.9899 72.7357 13.2481 74.0418 14.9794C74.6796 15.8147 75.1201 17.0449 75.1808 18.1384L75.2264 19.0344L71.8244 19.08L68.4225 19.1255L68.5136 19.5963C68.6503 20.2646 69.2426 20.9935 69.926 21.3277C70.6702 21.6922 72.9179 21.7073 73.8899 21.3429L74.5278 21.0999V23.0134L73.9507 23.2109C73.6317 23.3172 72.5231 23.4387 71.4903 23.4691C69.9412 23.5146 69.4704 23.4691 68.8326 23.2413ZM72.5079 17.2423C72.6446 16.893 72.2041 15.8907 71.7941 15.5869C71.2777 15.2072 70.2602 15.0705 69.683 15.3135C68.9692 15.6173 68.2555 16.8323 68.544 17.2727C68.6959 17.5309 72.4167 17.5005 72.5079 17.2423ZM104.386 23.3476C104.052 23.2716 103.52 23.1349 103.201 23.059L102.624 22.9071V19.566H103.763C104.386 19.566 104.887 19.6115 104.887 19.6874C104.887 19.7634 104.872 20.1127 104.887 20.5076C104.902 21.2062 104.902 21.2062 105.586 21.3884C106.406 21.601 107.788 21.6162 108.304 21.4188C109.413 20.9935 109.671 19.7634 108.82 18.9129C108.334 18.4421 107.985 18.275 105.753 17.622C103.596 16.9841 102.73 15.9362 102.715 13.9771C102.715 13.081 102.791 12.7013 103.049 12.185C104.021 10.3625 106.876 9.73985 110.491 10.56L111.585 10.8029V13.7796L110.445 13.8252L109.306 13.8708V13.081C109.306 12.2913 109.306 12.2913 108.744 12.1394C107.317 11.7445 106.026 12.0939 105.601 12.9595C105.297 13.5822 105.297 13.7037 105.586 14.2656C105.813 14.706 106.785 15.3287 107.241 15.3287C107.742 15.3287 109.884 16.1033 110.567 16.5437C111.6 17.1967 112.101 18.2902 112.01 19.7178C111.903 21.6162 110.931 22.8312 109.139 23.302C108.243 23.545 105.373 23.5754 104.386 23.3476ZM115.943 23.1653C114.759 22.4819 114.728 22.3756 114.637 18.7458L114.561 15.5262L113.923 15.4806L113.285 15.435V13.643H114.652V11.6686H117.082V13.643H119.664V15.4654H117.052L117.097 18.2143L117.143 20.9632L117.583 21.3429C117.978 21.6922 118.13 21.7225 118.92 21.6466L119.801 21.5707V23.3324L119.224 23.4235C117.963 23.6361 116.566 23.5298 115.943 23.1653ZM122.231 23.1805C121.335 22.7249 120.879 21.92 120.879 20.8113C120.879 18.7914 122.504 17.7587 125.693 17.7587H126.939V17.1512C126.939 16.3615 126.665 15.7995 126.164 15.5413C125.724 15.3135 124.585 15.2528 123.78 15.4199C123.339 15.511 123.309 15.5565 123.309 16.1792V16.8474H121.335L121.38 15.6021L121.426 14.3567L122.413 14.0074C124.6 13.2177 127.167 13.4607 128.336 14.5694C129.202 15.3895 129.399 16.2551 129.399 19.1711V21.5403H129.839C130.28 21.5403 130.28 21.5555 130.325 22.4515L130.371 23.3627H127.273V22.7553C127.273 22.0566 127.197 22.0111 126.802 22.5123C125.982 23.5146 123.598 23.8639 122.231 23.1805ZM125.921 21.4188C126.377 21.1606 126.939 20.1431 126.939 19.5963C126.939 19.2774 126.863 19.2622 125.8 19.2622C124.129 19.2622 123.294 19.7026 123.294 20.5987C123.294 21.0087 123.841 21.6618 124.251 21.7377C124.737 21.8288 125.435 21.6922 125.921 21.4188ZM133.636 23.1805C132.391 22.5426 132.345 22.4211 132.269 18.761L132.194 15.5413L131.556 15.4958L130.918 15.4502V13.643H132.285V11.6686H134.715V13.643H137.296V15.4654H134.684L134.73 18.2143L134.775 20.9632L135.216 21.3429C135.611 21.6922 135.763 21.7225 136.552 21.6466L137.448 21.5707L137.403 22.4211C137.342 23.4235 137.266 23.4691 135.459 23.4994C134.532 23.5146 134.153 23.4387 133.636 23.1805ZM141.2 23.2413C139.149 22.4819 138.132 20.8872 138.147 18.4725C138.162 16.8019 138.527 15.8603 139.529 14.8579C140.516 13.8708 141.473 13.4759 142.885 13.4759C145.346 13.4759 146.986 14.8579 147.441 17.3486C147.533 17.8346 147.609 18.4421 147.609 18.6699V19.0952H140.744L140.85 19.4293C141.169 20.4468 141.503 20.872 142.323 21.3277C142.992 21.6922 145.437 21.677 146.287 21.3125C146.606 21.1758 146.88 21.0543 146.895 21.0543C146.91 21.0543 146.91 21.4795 146.895 21.9959L146.88 22.9527L146.287 23.1653C145.361 23.545 142.08 23.5754 141.2 23.2413ZM144.86 17.0297C144.86 16.4526 144.358 15.6932 143.781 15.3895C143.098 15.0402 142.08 15.1769 141.534 15.6932C141.108 16.0881 140.698 17.0753 140.85 17.3182C140.896 17.3942 141.807 17.4397 142.9 17.4397H144.86V17.0297ZM54.4959 22.4515V21.5403H55.7108V12.1242H54.4959V10.4233L58.4142 10.4688C62.1806 10.5144 62.3476 10.5296 63.0007 10.8789C64.322 11.5775 64.9446 12.4584 65.0813 13.8556C65.2028 15.0402 64.8991 16.0729 64.2005 16.8778C63.35 17.8498 62.3476 18.1839 60.0848 18.2902L58.2927 18.3814V21.5403H59.6595V23.3627H54.4959V22.4515ZM61.0719 16.3159C61.892 15.9666 62.2869 15.4047 62.3476 14.5086C62.4691 12.9443 61.3605 12.0635 59.3861 12.1394L58.3534 12.185L58.3078 14.3416L58.2623 16.4981H59.4165C60.0696 16.5285 60.7985 16.4374 61.0719 16.3159ZM76.6692 22.4515V21.5403H77.7323V15.4654H76.5173V13.643H80.0103V14.2504C80.0103 14.5846 80.0711 14.8579 80.1318 14.8579C80.1926 14.8579 80.4508 14.6605 80.6786 14.4023C81.8784 13.1418 84.5361 13.2025 85.8118 14.5086C86.6927 15.4047 86.8294 16.0273 86.8294 18.9585V21.5099L87.4065 21.5555L87.9836 21.601L87.9988 22.4819L88.014 23.3627H83.3515V21.5403H84.4146L84.3994 19.4445C84.3843 17.0297 84.2476 16.4526 83.5186 15.9514C82.8352 15.4958 81.7265 15.4806 81.1646 15.921C80.4204 16.5133 80.3141 16.9234 80.3141 19.323V21.5403H81.3772V23.3627H76.6692V22.4515ZM89.4264 22.4515V21.5403H90.4895V15.4654H89.2745V13.643H92.7676V14.2504C92.7676 14.5846 92.8131 14.8579 92.8587 14.8579C92.9043 14.8579 93.208 14.6301 93.5269 14.3416C94.8027 13.1873 97.02 13.2025 98.3717 14.3567C99.374 15.2072 99.6018 16.0729 99.6018 19.0496V21.5403H100.635L100.68 22.4515L100.726 23.3627H96.0176L96.0632 22.4515L96.1088 21.5403H97.1719L97.1263 19.2318C97.0807 17.2575 97.0352 16.8474 96.7922 16.483C96.3973 15.9058 95.7898 15.6173 94.9393 15.6173C94.3167 15.6173 94.1648 15.6932 93.6484 16.2096L93.0561 16.8019V21.5403H94.1192V23.3627H89.4112V22.4515H89.4264ZM24.0759 19.7178C23.8329 19.6419 23.514 19.4748 23.3621 19.3381C23.1799 19.1711 22.8761 19.1103 22.4357 19.1407C21.8586 19.1863 21.7675 19.1559 21.7371 18.8673C21.6764 18.4421 22.3294 17.1816 22.8761 16.6652C23.8785 15.7236 25.4732 15.2832 26.6578 15.6021C26.9919 15.6932 27.569 16.0273 27.9031 16.3615C28.4498 16.8778 28.541 17.0297 28.541 17.5916C28.541 18.1384 28.4498 18.3358 27.9487 18.837C27.2804 19.5052 26.8248 19.6419 27.3108 19.0192C27.7512 18.4573 27.7057 18.108 27.1134 17.5005C26.6881 17.0753 26.4907 16.9841 25.9288 16.9841C25.1846 16.9841 24.4252 17.379 24.0456 17.9561C23.8178 18.3054 23.8178 18.3662 24.0607 18.7307C24.1974 18.9433 24.5923 19.2622 24.9112 19.4293C25.2302 19.5963 25.4883 19.7634 25.4883 19.7938C25.4883 19.9153 24.5467 19.8545 24.0759 19.7178ZM17.0898 14.4479C16.3153 12.8988 16.133 11.0763 16.6646 10.0436C16.9987 9.37535 17.5303 8.9653 17.7581 9.19311C17.834 9.26904 18.3959 10.2106 19.0338 11.2889L20.1728 13.2633L19.7628 13.6126C18.3048 14.8579 17.8947 15.1617 17.6973 15.1617C17.5606 15.1617 17.2873 14.8427 17.0898 14.4479ZM34.145 13.8556C33.7654 13.567 33.4312 13.2936 33.4009 13.2633C33.3097 13.1721 34.0995 12.0787 34.6918 11.5167C35.2233 11.0156 35.2385 11.0004 35.4511 11.2889C35.6789 11.5927 35.7245 11.8812 35.6789 12.671C35.6486 13.2025 35.1474 14.4175 34.9651 14.4023C34.8892 14.3871 34.5247 14.1441 34.145 13.8556Z" fill="#025397"></path></svg>