<svg xmlns="http://www.w3.org/2000/svg" width="150" height="48" viewBox="0 0 150 48" fill="none"><path d="M11.6589 32.8181C12.8941 35.1336 14.5523 37.1998 16.5959 38.9638C19.867 41.7855 23.1873 43.0018 24.0561 43.2889C24.9249 43.0018 28.2413 41.7893 31.5163 38.9676C33.5636 37.2036 35.2218 35.1374 36.457 32.8181H11.6589ZM24.0787 39.3756C22.7227 39.3756 21.6197 38.2764 21.6197 36.9203C21.6197 35.5643 22.7227 34.4613 24.0787 34.4613C25.4348 34.4613 26.5378 35.5643 26.5378 36.9203C26.5378 38.2764 25.4348 39.3756 24.0787 39.3756ZM25.3404 12.1071V10.1996C25.3404 9.48943 24.7624 8.9115 24.0523 8.9115C23.3422 8.9115 22.7642 9.48943 22.7642 10.1996V12.1071H8.99591V20.3379H39.1125V12.1071H25.3404ZM15.7195 18.691C14.3635 18.691 13.2605 17.588 13.2605 16.2319C13.2605 14.8759 14.3635 13.7767 15.7195 13.7767C17.0756 13.7767 18.1786 14.8797 18.1786 16.2319C18.1786 17.5842 17.0756 18.691 15.7195 18.691ZM32.4077 18.691C31.0517 18.691 29.9487 17.588 29.9487 16.2319C29.9487 14.8759 31.0517 13.7767 32.4077 13.7767C33.7638 13.7767 34.8668 14.8797 34.8668 16.2319C34.8668 17.5842 33.7638 18.691 32.4077 18.691Z" fill="white"></path><path d="M36.7365 32.2667C38.3117 29.0824 39.1125 25.4259 39.1125 21.3993V20.3379H8.99591V21.3993C8.99591 25.4259 9.7967 29.0824 11.3718 32.2629C11.4663 32.448 11.5607 32.6331 11.6589 32.8181H36.457C36.5552 32.6368 36.6497 32.4517 36.7403 32.2667H36.7365Z" fill="#FFB81C"></path><path d="M22.2014 5.74233H25.9825V6.65267H22.2014V5.74233ZM25.9788 5.15685C25.9788 4.67713 26.6889 4.47315 26.6889 3.62703V3H25.5897V3.62326H24.6416V3H23.5424V3.62326H22.5943V3H21.4951V3.62326C21.4951 4.43916 22.2052 4.67335 22.2052 5.15307H25.9825L25.9788 5.15685ZM15.4211 8.13338H19.1947V7.22304H15.4211V8.13338ZM19.1909 6.64889C19.1909 6.16917 19.9048 5.96519 19.9048 5.11908V4.49582H18.8056V5.11908H17.8575V4.49582H16.7583V5.11908H15.8102V4.49582H14.711V5.11908C14.711 5.93498 15.4211 6.16917 15.4211 6.64889H19.1947H19.1909ZM28.9099 8.13338H32.6835V7.22304H28.9099V8.13338ZM32.6835 6.64889C32.6835 6.16917 33.3974 5.96519 33.3974 5.11908V4.49582H32.2982V5.11908H31.3501V4.49582H30.2509V5.11908H29.3028V4.49582H28.2036V5.11908C28.2036 5.93498 28.9137 6.16917 28.9137 6.64889H32.6873H32.6835ZM40.7141 10.5357V21.3955C40.7141 25.6903 39.8528 29.5999 38.153 33.0146C36.7894 35.7531 34.8894 38.1782 32.506 40.2217C28.4529 43.693 24.4414 44.8451 24.2714 44.8942L24.0561 44.9547L23.8408 44.8942C23.6708 44.8451 19.6593 43.693 15.6062 40.2179C13.2227 38.1744 11.3228 35.7493 9.95915 33.0108C8.25558 29.5999 7.39435 25.6903 7.39435 21.3993V10.5395H14.711V10.3356C14.711 9.51965 15.3569 9.14192 15.4211 8.73775H19.1947C19.2665 9.13059 19.9086 9.48565 19.9086 10.3356V10.5395H20.6943V10.328C20.6943 9.03615 19.9086 8.85862 19.9086 8.03894V7.22304H21.0078V7.85763H21.7142V7.22304H22.8171V7.85763H23.5008V7.22304H24.6V7.85763H25.2837V7.22304H26.3867V7.85763H27.0931V7.22304H28.1923V8.03894C28.1923 8.85862 27.4066 9.03615 27.4066 10.328V10.5395H28.1998V10.3356C28.1998 9.51965 28.8457 9.14192 28.9099 8.73775H32.6835C32.7553 9.13059 33.3974 9.48565 33.3974 10.3356V10.5395H40.7141V10.5357ZM36.4533 32.8181C36.5515 32.6368 36.6459 32.4517 36.7365 32.2667C38.3117 29.0824 39.1125 25.4259 39.1125 21.3993V12.1071H25.3404V10.1996C25.3404 9.48943 24.7625 8.9115 24.0523 8.9115C23.3422 8.9115 22.7643 9.48943 22.7643 10.1996V12.1071H8.99593V21.3993C8.99593 25.4259 9.79672 29.0824 11.3719 32.2629C11.4663 32.448 11.5607 32.6331 11.6589 32.8181C12.8941 35.1336 14.5524 37.1998 16.5959 38.9638C19.8671 41.7855 23.1873 43.0018 24.0561 43.2889C24.9249 43.0018 28.2414 41.7893 31.5163 38.9676C33.5636 37.2036 35.2218 35.1374 36.457 32.8181H36.4533ZM15.8631 28.2174H12.5844V31.4961H15.8631V28.2174ZM19.1418 24.9387H15.8631V28.2174H19.1418V24.9387ZM15.8631 21.66H12.5844V24.9387H15.8631V21.66ZM35.5391 28.2174H32.2604V31.4961H35.5391V28.2174ZM35.5391 21.66H32.2604V24.9387H35.5391V21.66ZM28.9855 21.66H25.7106V24.9387H28.9855V21.66ZM25.7068 24.9387H22.4281V28.2174H25.7068V24.9387ZM32.2642 24.9387H28.9855V28.2174H32.2642V24.9387ZM28.9855 28.2174H25.7106V31.4961H28.9855V28.2174ZM22.4167 28.2174H19.138V31.4961H22.4167V28.2174ZM22.4281 21.66H19.1494V24.9387H22.4281V21.66ZM24.0788 34.4613C22.7227 34.4613 21.6197 35.5643 21.6197 36.9203C21.6197 38.2764 22.7227 39.3756 24.0788 39.3756C25.4348 39.3756 26.5378 38.2764 26.5378 36.9203C26.5378 35.5643 25.4348 34.4613 24.0788 34.4613ZM15.7196 13.7767C14.3635 13.7767 13.2605 14.8797 13.2605 16.2319C13.2605 17.5842 14.3635 18.691 15.7196 18.691C17.0756 18.691 18.1786 17.588 18.1786 16.2319C18.1786 14.8759 17.0756 13.7767 15.7196 13.7767ZM32.4077 13.7767C31.0517 13.7767 29.9487 14.8797 29.9487 16.2319C29.9487 17.5842 31.0517 18.691 32.4077 18.691C33.7638 18.691 34.8668 17.588 34.8668 16.2319C34.8668 14.8759 33.7638 13.7767 32.4077 13.7767Z" fill="#003594"></path><path d="M48.7673 11.2836C49.8967 11.2836 49.9912 11.3365 49.9987 11.9824L50.0063 12.3224C50.0176 12.7303 50.0252 13.0816 50.0252 13.8107V16.7872C50.0252 17.3727 50.2103 20.3001 53.8894 20.3001C54.9017 20.3001 55.8385 19.979 56.4579 19.42C57.3494 18.6192 57.78 17.3538 57.78 15.552V12.6208C57.78 11.8918 57.8329 11.582 57.9802 11.4347C58.1388 11.2761 58.4599 11.2761 58.9963 11.2799H59.1361C59.2796 11.2799 59.3854 11.1325 59.3854 10.9361C59.3854 10.6868 59.2909 10.5811 59.0718 10.5811C58.9963 10.5811 58.7583 10.5886 58.5052 10.5999C58.154 10.6151 57.6289 10.6339 57.3834 10.6339C56.8281 10.6339 56.2653 10.6113 55.8951 10.5962H55.846C55.6723 10.5886 55.5438 10.5811 55.4758 10.5811C55.3701 10.5811 55.2416 10.6377 55.2416 10.9097C55.2416 11.0192 55.2416 11.2799 55.4758 11.2799H55.5665C56.1746 11.2799 56.541 11.2799 56.745 11.4687C56.9452 11.6538 57.0208 12.058 57.0208 12.9117V15.484C57.0208 18.045 56.1482 19.2915 54.354 19.2915C51.9365 19.2915 51.5739 17.3311 51.5739 16.1602V13.8069C51.5739 13.0741 51.5814 12.7228 51.5928 12.3186L51.6003 11.9787C51.6116 11.3327 51.7023 11.2799 52.8317 11.2799C53.1075 11.2799 53.1075 10.9928 53.1075 10.8832C53.1075 10.6755 52.9828 10.5811 52.8582 10.5811C52.8393 10.5811 52.7826 10.5811 52.7033 10.5848H52.5862C52.1745 10.6037 51.4077 10.6302 50.792 10.6302C50.1763 10.6302 49.4321 10.6037 49.0166 10.5886H48.9109C48.8202 10.5811 48.7635 10.5811 48.7409 10.5811C48.6162 10.5811 48.4916 10.6755 48.4916 10.8832C48.4916 10.9928 48.4916 11.2799 48.7673 11.2799V11.2836Z" fill="#003594"></path><path d="M58.5279 14.7739C58.5279 14.8457 58.5279 15.0345 58.7621 15.061C59.3212 15.1176 59.4118 15.2989 59.4118 15.7107V17.4898C59.4118 18.6041 59.3703 19.2349 59.3438 19.3105C59.2872 19.4427 59.2758 19.5409 58.815 19.5409C58.3995 19.5409 58.3051 19.5409 58.3051 19.8695C58.3051 20.0961 58.4335 20.1452 58.543 20.1452C58.5997 20.1452 58.6677 20.1452 58.7734 20.1415C59.0227 20.1339 59.4345 20.1226 60.2995 20.1226C61.0209 20.1226 61.2665 20.1377 61.376 20.1452H61.3949C61.4176 20.1452 61.4327 20.1452 61.444 20.1452C61.6178 20.1452 61.7046 20.0433 61.7046 19.8431C61.7046 19.5409 61.5687 19.5409 61.2514 19.5409C60.8207 19.5409 60.7301 19.5409 60.7301 18.7779V15.552C60.7301 15.5029 60.7528 15.4538 60.7905 15.4236C61.0021 15.2423 61.4969 14.9817 61.8482 14.9817C63.0834 14.9817 63.1702 15.6918 63.1702 16.8628V19.1896C63.1702 19.4993 63.1022 19.5371 62.4941 19.5371C62.2788 19.5371 62.2486 19.6957 62.2486 19.8506C62.2486 20.1264 62.4337 20.1377 62.4714 20.1377C62.4979 20.1377 62.5319 20.1377 62.581 20.1339C62.7283 20.1264 63.0305 20.1112 63.835 20.1112C64.2241 20.1112 64.9758 20.1377 65.1496 20.1377C65.3573 20.1377 65.4631 20.0357 65.4631 19.8355C65.4631 19.7524 65.4631 19.5333 65.2024 19.5333C64.4885 19.5333 64.4885 19.3558 64.4885 19.1971V16.0771C64.4885 14.7361 63.8313 13.9958 62.6414 13.9958C62.0408 13.9958 61.4742 14.3017 61.0021 14.6039C60.9492 14.6379 60.8472 14.6681 60.7905 14.6379C60.7339 14.6039 60.7376 14.517 60.7414 14.4528C60.7414 14.3546 60.749 14.2753 60.7528 14.2111C60.7528 14.1544 60.7565 14.1166 60.7565 14.094C60.7565 14.026 60.7565 13.8182 60.5866 13.8182C60.5072 13.8182 60.443 13.856 60.3486 13.9127C60.1635 14.0222 59.7744 14.2489 58.7432 14.4604C58.611 14.4868 58.5317 14.5095 58.5317 14.7701L58.5279 14.7739Z" fill="#003594"></path><path d="M66.1014 20.1454C66.1581 20.1454 66.2261 20.1454 66.3318 20.1416C66.5774 20.134 66.9853 20.1227 67.8465 20.1227C68.5114 20.1227 68.7493 20.1378 68.8551 20.1454H68.874C68.8966 20.1454 68.9155 20.1454 68.9269 20.1454C69.1006 20.1454 69.1875 20.0434 69.1875 19.8432C69.1875 19.541 68.9911 19.541 68.7456 19.541C68.3149 19.541 68.2809 19.541 68.2809 18.778V15.9714C68.2809 15.0233 68.2998 14.4114 68.3376 14.1546C68.3414 14.1281 68.4056 13.8259 68.1336 13.8259C68.0543 13.8259 67.9863 13.8637 67.8957 13.9166C67.7106 14.0261 67.3253 14.2528 66.2865 14.4643C66.1581 14.4907 66.075 14.6078 66.075 14.774C66.075 14.8458 66.075 15.0347 66.3092 15.0611C66.8682 15.1178 66.9589 15.2046 66.9589 15.6164V17.4899C66.9589 18.6042 66.9173 19.235 66.8909 19.3106C66.8342 19.4428 66.7511 19.541 66.4603 19.541C66.041 19.541 65.8597 19.541 65.8597 19.8696C65.8597 20.0963 65.9881 20.1454 66.0977 20.1454H66.1014Z" fill="#003594"></path><path d="M67.6124 12.281C68.0959 12.281 68.4207 11.8579 68.4207 11.4613C68.4207 11.0647 68.0959 10.6378 67.6124 10.6378C67.1289 10.6378 66.804 11.0647 66.804 11.4613C66.804 11.8579 67.1289 12.281 67.6124 12.281Z" fill="#003594"></path><path d="M69.467 14.8759C69.4935 14.8759 69.7616 14.857 69.8296 14.9968C69.8976 15.1365 70.23 16.0317 70.5247 16.8401C70.8797 17.7995 71.605 19.5862 71.6427 19.6731C71.8392 20.1037 71.926 20.3001 72.13 20.3001C72.3151 20.3001 72.47 20.1301 72.8704 19.1745C72.9459 18.9932 73.996 16.621 74.3058 15.8882C74.7741 14.7852 74.6533 14.8986 75.3672 14.8608H75.3898C75.556 14.8419 75.6543 14.7588 75.6543 14.551C75.6543 14.3924 75.5938 14.2224 75.4314 14.2224C75.2463 14.2224 75.0234 14.23 74.8384 14.2337H74.827C74.6306 14.2413 74.4417 14.2489 74.2604 14.2489C74.0791 14.2489 73.8903 14.2413 73.7089 14.2375H73.6825C73.5012 14.23 73.2443 14.2224 73.0744 14.2224C72.8779 14.2224 72.8439 14.4151 72.8439 14.551C72.8439 14.7701 72.9384 14.8381 73.063 14.8381C73.7241 14.8381 73.8336 14.8797 73.8336 15.0421C73.8336 15.3329 73.6636 15.7938 72.6966 17.9506C72.6664 18.0148 72.6135 18.1168 72.5455 18.1206C72.4775 18.1206 72.4133 18.0148 72.3869 17.9506C71.8845 16.7457 71.3443 15.2612 71.3443 14.9892C71.3443 14.959 71.3141 14.8608 71.4501 14.8532C71.5861 14.8457 71.7636 14.8532 71.9374 14.8532H72.0054C72.1602 14.8532 72.2207 14.6946 72.2207 14.5586C72.2207 14.3471 72.1338 14.2262 71.9903 14.2262C71.8656 14.2262 70.5738 14.2526 70.4453 14.2526C70.2451 14.2526 69.2064 14.2262 69.2064 14.2262C68.9495 14.2262 68.9495 14.483 68.9495 14.5964C68.9495 14.857 69.1573 14.8759 69.4708 14.8759H69.467Z" fill="#003594"></path><path d="M78.3513 20.3001C80.119 20.3001 80.7196 18.6608 80.7196 18.5172C80.7196 18.3926 80.527 18.2301 80.3797 18.2301C80.2626 18.2301 80.1946 18.3359 80.1266 18.4341C80.1115 18.4568 80.0964 18.4794 80.0775 18.5059C79.73 19.0045 79.2918 19.2274 78.6648 19.2274C77.3616 19.2274 76.6666 18.0602 76.6666 17.214C76.6666 17.0478 76.6741 16.9005 76.6855 16.7608C76.693 16.6739 76.7232 16.6059 76.8139 16.6059H80.2928C80.3721 16.6059 80.5799 16.6059 80.5799 16.3302C80.5799 16.0846 80.5119 13.9504 78.1208 13.9504C76.7799 13.9504 75.3898 15.1667 75.3898 17.2027C75.3898 19.2387 76.4701 20.3001 78.355 20.3001H78.3513ZM76.863 15.7484C77.0594 14.959 77.4825 14.5586 78.1171 14.5586C78.423 14.5586 79.1294 14.6644 79.1294 15.6616C79.1294 15.9146 79.0349 15.96 78.8196 15.96H77.0292C76.9763 15.96 76.9045 15.9524 76.8705 15.9109C76.8403 15.8693 76.8517 15.8013 76.863 15.7522V15.7484Z" fill="#003594"></path><path d="M81.1918 20.1452C81.2712 20.1452 81.3769 20.1452 81.4789 20.1377H81.5016C81.7169 20.1301 82.0455 20.1188 82.7292 20.1188C83.0541 20.1188 83.3223 20.1264 83.5602 20.1339C83.7906 20.1415 84.0437 20.1452 84.2628 20.1452C84.4215 20.1452 84.5423 20.1226 84.5423 19.8317C84.5423 19.5182 84.4026 19.5447 83.8775 19.5447C83.3525 19.5447 83.36 19.3973 83.36 18.9101V15.96C83.36 15.8467 83.3714 15.7031 83.4167 15.6313C83.564 15.4009 83.9455 15.1554 84.2137 15.1554C84.3421 15.1554 84.4252 15.231 84.5385 15.3367C84.6896 15.4765 84.8747 15.6465 85.2147 15.6465C85.6944 15.6465 85.9853 15.2498 85.9853 14.8646C85.9853 14.3508 85.5962 14.0033 85.022 14.0033C84.6028 14.0033 84.1419 14.2186 83.6433 14.6417C83.5904 14.687 83.4771 14.7437 83.4129 14.7097C83.3487 14.6757 83.3563 14.5699 83.36 14.4982C83.3638 14.4302 83.3714 14.3735 83.3751 14.3206V14.3017C83.3865 14.1997 83.394 14.1355 83.394 14.0789C83.394 13.9769 83.3449 13.8182 83.2089 13.8182C83.1296 13.8182 83.0616 13.856 82.971 13.9089C82.7859 14.0184 82.4006 14.2451 81.3618 14.4566C81.1654 14.4944 81.1503 14.6001 81.1503 14.7663C81.1503 14.8381 81.1503 15.027 81.3845 15.0534C81.9435 15.1101 82.0342 15.2914 82.0342 15.7031V19.0045C82.0342 19.4918 81.9889 19.5333 81.5016 19.5333C81.1805 19.5333 80.9652 19.5333 80.9652 19.8355C80.9652 20.0584 81.0634 20.1377 81.1843 20.1377L81.1918 20.1452Z" fill="#003594"></path><path d="M86.5556 19.9414C86.5745 20.0396 86.5972 20.1756 86.7294 20.2133C86.8465 20.2473 86.9447 20.2171 87.2393 20.2171C87.4848 20.2171 88.127 20.3002 88.365 20.3002C90.3216 20.3002 90.5105 18.8459 90.5105 18.4002C90.5105 17.1613 89.857 16.9044 88.9504 16.5456C88.7049 16.4511 88.4292 16.3416 88.1383 16.2018C87.9381 16.0998 87.6019 15.8694 87.6019 15.4501C87.6019 14.9213 87.9419 14.6078 88.5085 14.6078C89.0487 14.6078 89.4566 14.944 89.7323 15.6126L89.755 15.6692C89.8494 15.9147 89.9854 15.8959 90.1214 15.8959C90.3518 15.8959 90.3972 15.7977 90.3972 15.6579C90.3972 15.5786 90.3783 15.4804 90.3518 15.3519C90.3178 15.1706 90.2687 14.9251 90.2536 14.6191C90.2536 14.3396 90.2196 14.1734 89.959 14.1281C89.8872 14.113 89.1242 14.0072 88.5236 14.0072C87.3035 14.0072 86.4159 14.808 86.4159 15.9072C86.4159 17.0064 87.3602 17.3615 88.1194 17.6599C88.7654 17.9129 89.3282 18.1358 89.3282 18.676C89.3282 18.8459 89.2791 19.6996 88.2781 19.6996C87.5264 19.6996 87.2167 19.1859 87.0127 18.8044C86.8918 18.574 86.8238 18.3889 86.6425 18.3889C86.4008 18.3889 86.2648 18.4267 86.2648 18.5664C86.2648 18.642 86.3214 18.8913 86.4536 19.4654C86.5065 19.7034 86.5443 19.8469 86.5632 19.9451L86.5556 19.9414Z" fill="#003594"></path><path d="M91.2546 20.1454C91.3112 20.1454 91.3792 20.1454 91.485 20.1416C91.7305 20.134 92.146 20.1227 93.011 20.1227C93.6758 20.1227 93.9138 20.1378 94.0196 20.1454H94.0385C94.0611 20.1454 94.08 20.1454 94.0913 20.1454C94.2651 20.1454 94.352 20.0434 94.352 19.8432C94.352 19.541 94.1555 19.541 93.91 19.541C93.4794 19.541 93.4454 19.541 93.4454 18.778V15.9714C93.4454 15.0233 93.4643 14.4114 93.5021 14.1545C93.5059 14.1281 93.5096 14.113 93.5096 14.0979C93.5096 13.909 93.4039 13.8221 93.2981 13.8221C93.2188 13.8221 93.1508 13.8599 93.0601 13.9128C92.875 14.0223 92.4898 14.249 91.451 14.4605C91.3226 14.487 91.2395 14.604 91.2395 14.7703C91.2395 14.842 91.2395 15.0309 91.4737 15.0573C92.0327 15.114 92.1234 15.2009 92.1234 15.6126V17.4861C92.1234 18.6005 92.0818 19.2313 92.0554 19.3068C91.9987 19.439 91.9345 19.5372 91.6436 19.5372C91.2243 19.5372 91.0166 19.5372 91.0166 19.8659C91.0166 20.0925 91.145 20.1416 91.2546 20.1416V20.1454Z" fill="#003594"></path><path d="M92.7772 12.281C93.2607 12.281 93.5856 11.8579 93.5856 11.4613C93.5856 11.0647 93.2607 10.6378 92.7772 10.6378C92.2937 10.6378 91.9689 11.0647 91.9689 11.4613C91.9689 11.8579 92.2937 12.281 92.7772 12.281Z" fill="#003594"></path><path d="M94.4313 15.027C94.4766 15.0534 94.522 15.0534 94.5597 15.0534H95.2057C95.2057 15.0534 95.2057 15.0723 95.2057 15.0912V18.5588C95.2057 19.6844 95.7836 20.3039 96.8337 20.3039C98.0349 20.3039 98.6959 19.6882 98.6959 19.4842C98.6959 19.3558 98.5675 19.1443 98.4202 19.1443C98.3711 19.1443 98.3371 19.1631 98.254 19.2085C98.1066 19.2916 97.8309 19.4427 97.5363 19.4427C96.6864 19.4427 96.524 19.1669 96.524 17.7013V15.1856C96.524 15.1403 96.524 15.0799 96.5542 15.0496C96.5882 15.0156 96.6524 15.0156 96.6977 15.0156C97.321 15.0194 97.4834 15.0383 97.6043 15.0459C97.6534 15.0459 97.6874 15.0496 97.7063 15.0496C97.9896 15.0496 98.1897 15.061 98.1897 14.6832C98.1897 14.2791 98.0424 14.2375 97.9442 14.2375C97.6836 14.2375 97.457 14.2451 97.3021 14.2526H97.2832C97.1208 14.264 97.0603 14.2715 96.709 14.2753C96.6637 14.2753 96.5957 14.2753 96.5617 14.2451C96.5277 14.2111 96.5353 14.1469 96.5391 14.1015C96.5579 13.6407 96.5655 13.3574 96.5655 13.2479C96.5655 13.0514 96.422 12.9457 96.2784 12.9457C96.1047 12.9457 95.9838 13.0892 95.7647 13.3461C95.523 13.6332 95.1528 14.0675 94.4804 14.5737C94.3973 14.6379 94.3558 14.6946 94.3558 14.857C94.3558 14.9401 94.3822 14.9968 94.4389 15.0308L94.4313 15.027Z" fill="#003594"></path><path d="M98.8999 14.8835C99.3041 14.8835 99.576 14.9099 99.6516 15.095C99.7536 15.3443 99.8367 15.6389 99.95 16.0129C100.158 16.7004 100.445 17.6409 100.977 19.0121L101.015 19.1103C101.159 19.4729 101.423 20.1453 101.423 20.421C101.423 21.0065 100.86 22.0642 100.702 22.1473C100.668 22.1435 100.611 22.1095 100.562 22.083C100.445 22.0188 100.282 21.9282 100.056 21.9282C99.5836 21.9282 99.1719 22.3172 99.1719 22.763C99.1719 23.2578 99.5571 23.662 100.033 23.662C100.547 23.662 100.993 23.4655 102.016 20.9007C102.171 20.5079 102.775 19.2123 103.361 17.9582L103.384 17.9091C103.829 16.9572 104.354 15.8429 104.573 15.3405C104.736 14.959 104.827 14.9137 105.28 14.9137C105.506 14.9137 105.612 14.8079 105.612 14.5926C105.612 14.536 105.627 14.4 105.537 14.3093C105.488 14.2602 105.412 14.2375 105.336 14.2375C105.129 14.2375 104.928 14.2451 104.755 14.2527C104.385 14.2678 103.954 14.264 103.554 14.2527C103.357 14.2451 103.104 14.2375 102.893 14.2375C102.753 14.2375 102.67 14.3698 102.67 14.5397C102.67 14.9099 102.874 14.9099 102.938 14.9099H103.055C103.293 14.9099 103.633 14.891 103.754 15.0119C103.788 15.0459 103.803 15.0912 103.803 15.1517C103.803 15.3179 103.557 16.0507 102.439 18.3888C102.409 18.453 102.352 18.487 102.277 18.487C102.205 18.487 102.148 18.4417 102.126 18.3775C101.518 16.791 101.113 15.6163 101.113 15.0459C101.113 14.959 101.144 14.8948 101.62 14.8948C101.79 14.8948 101.869 14.7135 101.869 14.5435C101.869 14.2715 101.665 14.2413 101.578 14.2413C101.389 14.2413 101.193 14.2489 100.97 14.2527C100.751 14.2602 100.52 14.2678 100.29 14.2678C99.9991 14.2678 99.6138 14.2564 99.3192 14.2489H99.2285C99.1039 14.2451 98.9528 14.2413 98.9074 14.2413C98.7715 14.2413 98.6884 14.3395 98.6884 14.5284C98.6884 14.7173 98.7186 14.8948 98.8923 14.8948L98.8999 14.8835Z" fill="#003594"></path><path d="M114.538 15.061H115.157C115.275 15.061 115.365 15.0875 115.365 15.2574V19.2198C115.365 19.3785 115.286 19.5296 115.018 19.5296C114.598 19.5296 114.557 19.5334 114.493 19.6013C114.428 19.6693 114.428 19.7713 114.428 19.8393C114.428 20.0622 114.508 20.1415 114.678 20.1415C114.7 20.1415 114.723 20.1415 114.757 20.1415H114.802C114.957 20.1339 115.278 20.1188 116.056 20.1188C116.362 20.1188 116.615 20.1264 116.887 20.1339C117.095 20.1415 117.348 20.1453 117.575 20.1453C117.734 20.1453 117.87 20.1226 117.87 19.8318C117.87 19.5711 117.722 19.5447 117.31 19.5447C116.638 19.5447 116.687 19.3974 116.687 18.9101V15.2423C116.687 15.197 116.706 15.1517 116.74 15.1177C116.774 15.0837 116.819 15.0686 116.865 15.0723C117.076 15.0799 117.337 15.095 117.556 15.1063H117.575C117.79 15.1214 118.013 15.1441 118.047 15.1441C118.349 15.1441 118.432 14.9968 118.432 14.7097C118.432 14.3735 118.319 14.3055 118.157 14.3055H116.861C116.767 14.3055 116.691 14.23 116.691 14.1356V12.7606C116.691 11.9598 116.819 11.008 117.431 11.008C117.628 11.008 117.696 11.0948 117.919 11.2761C118.289 11.5821 118.625 11.6048 118.719 11.6048C119.165 11.6048 119.464 11.295 119.464 10.8342C119.464 10.3734 118.984 10.1429 118.512 10.1429C118.266 10.1429 117.9 10.1996 117.684 10.2525C116.158 10.6529 115.478 11.6954 115.339 13.8409C115.305 14.3244 115.263 14.2829 114.768 14.4075C114.428 14.4944 114.262 14.5133 114.262 14.7588C114.262 15.027 114.372 15.0497 114.549 15.061H114.538Z" fill="#003594"></path><path d="M60.4468 25.0067C59.4194 23.7451 57.7385 23.1067 55.4418 23.1067C54.6184 23.1067 53.4512 23.152 52.8166 23.1785C52.5484 23.1898 52.352 23.1973 52.2991 23.1973C51.2717 23.1973 50.1461 23.1482 49.5417 23.1256H49.5115C49.3113 23.1142 49.1791 23.1105 49.1337 23.1105C48.9335 23.1105 48.8051 23.2729 48.8051 23.5297C48.8051 23.7186 48.8051 24.0359 49.1791 24.0359C50.6938 24.0359 51.0186 24.153 51.0413 25.392L51.0526 25.917C51.0715 26.6498 51.0828 27.2315 51.0828 28.5083V33.9325C51.0828 34.8541 51.0639 36.2253 51.0186 37.3585C50.9997 37.8307 50.9846 38.2726 49.247 38.2726C48.6011 38.2726 48.4954 38.4237 48.4954 38.7788C48.4954 38.9752 48.5445 39.1981 48.8013 39.1981C49.2886 39.1981 49.621 39.1527 52.2991 39.1527C54.286 39.1527 55.7705 39.1981 56.3069 39.1981C56.6166 39.1981 56.6581 38.9337 56.6581 38.7372C56.6581 38.3368 56.4693 38.2726 55.7629 38.2726C53.6061 38.2726 53.6212 37.842 53.5834 37.0639V36.9354C53.5607 36.3122 53.5419 35.6663 53.5381 32.5424C53.5381 32.4933 53.5607 32.4442 53.5985 32.414C53.6363 32.38 53.6854 32.3687 53.7345 32.3762C54.4182 32.4858 55.1661 32.5387 56.084 32.5387C57.644 32.5387 58.9661 32.1118 59.8991 31.3035C60.8925 30.446 61.4176 29.1731 61.4176 27.6281C61.4176 27.3902 61.3722 26.1437 60.4506 25.0142L60.4468 25.0067ZM58.7659 27.7981C58.7659 30.1136 57.1568 31.6057 54.6675 31.6057C53.5381 31.6057 53.5381 31.277 53.5381 30.8955V25.7357C53.5268 24.9274 53.5607 24.4514 53.7647 24.2474C53.9763 24.0321 54.4371 24.0321 55.2643 24.0321C57.323 24.0321 58.7621 25.5808 58.7621 27.7981H58.7659Z" fill="#003594"></path><path d="M66.2941 38.3557C65.4744 38.3557 65.4064 38.25 65.4064 36.9581V32.176C65.4064 30.5593 65.4404 29.513 65.5084 29.0673C65.5122 29.0295 65.516 29.0069 65.516 28.9918C65.516 28.7311 65.3838 28.6178 65.2516 28.6178C65.142 28.6178 65.0476 28.6745 64.8965 28.7613C64.5754 28.9502 63.9106 29.3468 62.1277 29.7057C61.9502 29.7397 61.8444 29.9059 61.8444 30.1438C61.8444 30.2609 61.8444 30.4989 62.1617 30.5405C63.1778 30.6424 63.3516 30.99 63.3516 31.7379V34.771C63.3516 36.3726 63.2987 37.7514 63.2307 37.9062C63.106 38.2009 62.9436 38.3595 62.445 38.3595C61.6442 38.3595 61.4742 38.401 61.4742 38.8241C61.4742 38.9261 61.4742 39.1981 61.7802 39.1981C61.8784 39.1981 61.9955 39.1943 62.1579 39.1905C62.5734 39.1754 63.2722 39.1565 64.7681 39.1565C65.8899 39.1565 66.3092 39.183 66.4867 39.1943C66.5434 39.1981 66.5774 39.2018 66.6038 39.2018C66.9551 39.2018 66.9551 38.8959 66.9551 38.7826C66.9551 38.3822 66.7625 38.3633 66.2941 38.3633V38.3557Z" fill="#003594"></path><path d="M64.3715 23.1974C63.752 23.1974 63.0909 23.7224 63.0909 24.5006C63.0909 25.2787 63.752 25.8037 64.3715 25.8037C64.9909 25.8037 65.652 25.2787 65.652 24.5006C65.652 23.7224 64.9909 23.1974 64.3715 23.1974Z" fill="#003594"></path><path d="M73.8034 37.6682C73.7467 37.6682 73.6938 37.6984 73.5692 37.7664C73.3086 37.9099 72.8251 38.1744 72.3 38.1744C70.6304 38.1744 70.4831 37.3811 70.4831 35.1185V30.7746C70.4831 30.7293 70.502 30.6877 70.5322 30.6537C70.5662 30.6197 70.6115 30.6046 70.6531 30.6046C71.8845 30.6122 72.5606 30.6726 72.8515 30.699C72.9648 30.7104 73.0215 30.7142 73.0592 30.7142C73.6145 30.7255 73.7883 30.4649 73.7883 30.0305C73.7883 29.8831 73.7883 29.4336 73.437 29.4336H70.6569C70.6115 29.4336 70.57 29.4148 70.536 29.3845C70.502 29.3505 70.4869 29.309 70.4869 29.2637C70.4945 28.6517 70.5171 28.2778 70.5322 27.9983C70.5436 27.817 70.5511 27.6772 70.5511 27.5299C70.5511 27.2428 70.3434 27.1106 70.1545 27.1106C69.9014 27.1106 69.6974 27.3523 69.3537 27.7565C68.9382 28.2476 68.3074 28.9917 67.1515 29.8605C67.0004 29.9814 66.9702 30.072 66.9702 30.2722C66.9702 30.4875 67.1024 30.6008 67.2346 30.6008H68.2885C68.398 30.6008 68.432 30.6311 68.432 30.7293V36.5803C68.432 38.9563 69.8863 39.4549 71.1064 39.4549C73.1537 39.4549 74.1811 38.401 74.1811 38.1517C74.1811 37.9742 73.996 37.6682 73.8072 37.6682H73.8034Z" fill="#003594"></path><path d="M81.2749 37.6682C81.2183 37.6682 81.1654 37.6984 81.0407 37.7664C80.7801 37.9099 80.2966 38.1744 79.7716 38.1744C78.102 38.1744 77.9547 37.3811 77.9547 35.1185V30.7746C77.9547 30.7293 77.9736 30.6877 78.0038 30.6537C78.0378 30.6197 78.0831 30.6046 78.1247 30.6046C79.3561 30.6122 80.0322 30.6726 80.3231 30.699C80.4364 30.7104 80.493 30.7142 80.5308 30.7142C81.0861 30.7255 81.2598 30.4649 81.2598 30.0305C81.2598 29.8831 81.2598 29.4336 80.9085 29.4336H78.1284C78.0831 29.4336 78.0416 29.4148 78.0076 29.3845C77.9736 29.3505 77.9585 29.309 77.9585 29.2637C77.966 28.6517 77.9887 28.2778 78.0038 27.9983C78.0151 27.817 78.0227 27.6772 78.0227 27.5299C78.0227 27.2428 77.8149 27.1106 77.626 27.1106C77.373 27.1106 77.169 27.3523 76.8253 27.7565C76.4098 28.2476 75.7789 28.9917 74.6231 29.8605C74.472 29.9814 74.4418 30.072 74.4418 30.2722C74.4418 30.4875 74.574 30.6008 74.7062 30.6008H75.7601C75.8696 30.6008 75.9036 30.6311 75.9036 30.7293V36.5803C75.9036 38.9563 77.3579 39.4549 78.5779 39.4549C80.6252 39.4549 81.6527 38.401 81.6527 38.1517C81.6527 37.9742 81.4676 37.6682 81.2787 37.6682H81.2749Z" fill="#003594"></path><path d="M86.6576 33.2488C86.6576 33.2488 85.7624 32.8976 85.2638 32.6596C84.9011 32.4783 84.2968 32.0628 84.2968 31.296C84.2968 30.3516 84.9238 29.7662 85.9361 29.7662C86.8956 29.7662 87.6246 30.363 88.1043 31.5339L88.1156 31.5604C88.2554 31.923 88.4631 31.9532 88.6822 31.9532C88.9013 31.9532 89.0562 31.8286 89.0562 31.6435C89.0562 31.5188 89.0222 31.3526 88.9806 31.1411C88.9202 30.8314 88.8371 30.4083 88.8107 29.8719C88.8107 29.6302 88.72 29.2033 88.38 29.124C88.2743 29.0976 86.9749 28.92 85.9588 28.92C83.9341 28.92 82.4648 30.2421 82.4648 32.059C82.4648 33.8759 83.9757 34.4311 85.3091 34.9562C86.397 35.383 87.4244 35.7872 87.4244 36.7731C87.4244 38.2236 86.2421 38.6126 85.5395 38.6126C84.2023 38.6126 83.6924 37.657 83.3524 37.0262C83.1522 36.6484 83.0049 36.3765 82.7518 36.3765C82.6196 36.3765 82.223 36.3765 82.223 36.6409C82.223 36.7731 82.7065 38.8997 82.733 39.0319C82.7594 39.1641 82.8576 39.2737 82.9747 39.2737C83.885 39.2737 84.7727 39.4512 85.5206 39.4512C88.9882 39.4512 89.2602 37.0488 89.2602 36.3123C89.2602 34.2649 88.1723 33.8381 86.6614 33.2451L86.6576 33.2488Z" fill="#003594"></path><path d="M98.8659 29.9966C98.016 29.2222 96.8677 28.7954 95.6287 28.7954C94.6957 28.7954 94.0158 28.9994 93.3548 29.4715C93.3019 29.5093 93.2339 29.5169 93.1735 29.4866C93.1168 29.4564 93.0828 29.3998 93.0828 29.3355V25.7395C93.0828 23.73 93.1281 23.4165 93.181 22.9103C93.181 22.8914 93.1886 22.8121 93.1886 22.7819C93.1886 22.5062 93.0488 22.4646 92.9279 22.4646C92.8335 22.4646 92.6862 22.525 92.4218 22.6346C91.9081 22.8499 91.0468 23.2163 89.8268 23.4165C89.5812 23.458 89.5435 23.6167 89.5435 23.8547C89.5435 24.0737 89.6568 24.2173 89.8608 24.2513H89.9099C90.6552 24.3218 91.0279 24.9501 91.0279 26.1362V37.6872C91.0279 37.978 90.9826 38.6693 90.9826 38.8166C90.9826 38.9186 90.9826 39.2359 91.2886 39.2359C91.5945 39.2359 91.6399 39.0659 91.7305 38.9224C91.8363 38.7524 91.9383 38.59 92.1989 38.59C92.4293 38.59 92.6824 38.7184 93.0639 38.8733C93.7061 39.1339 94.5031 39.4588 95.5607 39.4588C96.7355 39.4588 97.9064 39.0093 98.779 38.2236C99.8555 37.2528 100.426 35.8212 100.426 34.0836C100.426 32.3461 99.8857 30.9333 98.8621 29.9966H98.8659ZM98.0689 34.3934C98.0689 37.2377 97.1925 38.624 95.387 38.624C93.8383 38.624 93.0828 37.7023 93.0828 35.8099V31.7832C93.0828 30.4914 93.8949 29.7246 95.2548 29.7246C97.5816 29.7246 98.0689 32.2667 98.0689 34.3971V34.3934Z" fill="#003594"></path><path d="M111.818 37.8458C111.747 37.8458 111.104 37.9326 110.938 37.9326C110.545 37.9326 110.515 37.6607 110.515 37.2452V33.0826C110.515 31.8134 110.647 30.4573 110.696 29.9474C110.712 29.7887 110.715 29.7396 110.715 29.7208C110.715 29.4412 110.557 29.2788 110.273 29.2788C109.99 29.2788 109.703 29.2977 109.423 29.3128C109.148 29.3279 108.864 29.3468 108.589 29.3468C107.686 29.3468 107.059 29.2788 106.715 29.2788C106.428 29.2788 106.379 29.4715 106.379 29.853C106.379 30.2043 106.787 30.2043 107.218 30.2043C108.305 30.2043 108.46 30.2798 108.46 31.4017V37.1356C108.46 37.7022 107.195 38.1782 106.398 38.1782C104.951 38.1782 104.358 37.4605 104.358 35.6965V29.7208C104.358 29.4148 104.313 29.2788 104.052 29.2788C103.931 29.2788 103.739 29.2901 103.493 29.3015H103.478C103.108 29.3204 102.605 29.3468 102.126 29.3468C101.646 29.3468 101.351 29.3204 101.117 29.2977C100.996 29.2864 100.902 29.2788 100.823 29.2788C100.392 29.2788 100.449 29.6792 100.449 29.853C100.449 30.1703 100.883 30.2043 101.068 30.2043C102.095 30.2043 102.311 30.2043 102.311 32.1533V35.6058C102.311 38.3028 103.191 39.4549 105.253 39.4549C106.035 39.4549 107.286 39.1225 108.392 38.3784C108.373 38.5597 108.354 38.7712 108.354 38.945C108.354 39.1565 108.513 39.3869 108.751 39.3869C109.072 39.3869 109.979 39.0281 111.316 38.809C111.954 38.7108 112.154 38.6654 112.154 38.3935C112.154 38.0535 112.105 37.842 111.822 37.842L111.818 37.8458Z" fill="#003594"></path><path d="M119.611 28.9275C118.814 28.9275 117.915 29.4035 116.948 30.3403C116.895 30.3894 116.804 30.4234 116.74 30.3931C116.676 30.3629 116.657 30.2798 116.661 30.208C116.68 29.8303 116.706 29.547 116.729 29.3355C116.744 29.1882 116.755 29.0635 116.755 28.9691C116.755 28.8558 116.797 28.6178 116.536 28.6178C116.427 28.6178 116.328 28.6745 116.181 28.7613C115.86 28.9502 115.195 29.3468 113.412 29.7057C113.235 29.7397 113.129 29.9059 113.129 30.1438C113.129 30.2609 113.129 30.4989 113.446 30.5405C114.462 30.6424 114.636 30.99 114.636 31.7379V37.3585C114.636 38.2348 114.515 38.3557 113.639 38.3557C113.084 38.3557 112.823 38.3557 112.823 38.775C112.823 39.1527 113.053 39.1943 113.152 39.1943C113.288 39.1943 113.412 39.1905 113.605 39.183C113.971 39.1716 114.527 39.149 115.716 39.149C116.249 39.149 116.687 39.1603 117.114 39.1716H117.133C117.488 39.183 117.858 39.1943 118.244 39.1943C118.58 39.1943 118.704 39.1603 118.704 38.7523C118.704 38.3104 118.519 38.3557 117.666 38.3557C116.691 38.3557 116.691 38.012 116.691 37.181V32.1571C116.691 31.9418 116.71 31.6888 116.812 31.5339C117.205 30.9371 117.945 30.6915 118.244 30.6915C118.497 30.6915 118.659 30.8389 118.863 31.0277C119.105 31.2506 119.407 31.5301 119.947 31.5301C120.706 31.5301 121.163 30.8993 121.163 30.2911C121.163 29.4601 120.555 28.92 119.615 28.92L119.611 28.9275Z" fill="#003594"></path><path d="M130.006 30.6122C130.221 30.9333 130.486 31.3374 130.969 31.3374C131.494 31.3374 131.94 30.9219 131.94 30.4309C131.94 30.0191 131.766 29.0597 130.15 29.0597C129.753 29.0597 129.205 29.1239 128.495 29.6225C128.439 29.6641 128.363 29.6641 128.303 29.6263C127.585 29.1466 126.618 28.8633 125.723 28.8633C124.714 28.8633 123.698 29.2523 122.931 29.9323C122.123 30.65 121.677 31.6056 121.677 32.6255C121.677 34.0193 122.134 35.009 123.075 35.6473C123.124 35.6813 123.173 35.7267 123.173 35.7833C123.173 35.84 123.128 35.8966 123.082 35.9269C122.229 36.5577 121.696 37.1847 121.696 38.3557C121.696 38.9109 122.074 39.4096 122.637 39.6589C122.689 39.6815 122.757 39.7231 122.765 39.7797C122.769 39.8326 122.731 39.893 122.689 39.9346C121.862 40.7618 121.099 41.574 121.099 42.7902C121.099 44.2785 122.078 45 124.083 45C125.024 45 126.826 44.8791 128.355 44.0783C129.851 43.2926 130.61 42.1217 130.61 40.5503C130.61 40.2821 130.565 39.5606 130.214 39.0658C129.7 38.3443 128.805 37.9515 127.472 37.9515H124.197C123.543 37.9515 123.286 37.7853 123.286 37.3509C123.286 36.7088 123.698 36.331 123.966 36.1535C124.053 36.0968 124.159 36.1006 124.208 36.1157C124.699 36.2819 125.402 36.3084 125.655 36.3084C128.204 36.3084 129.727 34.8352 129.727 32.3724C129.727 31.8474 129.372 30.7935 128.952 30.2571C129.039 30.1325 129.164 30.0305 129.428 30.0305C129.734 30.0305 129.836 30.3553 130.002 30.6084L130.006 30.6122ZM122.625 41.8157C122.625 40.7203 123.766 39.8553 123.766 39.8553H127.037C128.601 39.8553 129.247 40.1839 129.247 41.3511C129.247 42.7714 128.148 43.7195 125.681 43.7195C122.844 43.7195 122.625 42.2614 122.625 41.8119V41.8157ZM125.723 35.4774C124.102 35.4774 123.86 33.9098 123.86 32.973C123.86 30.7973 124.518 29.6943 125.809 29.6943C127.37 29.6943 127.54 31.4772 127.54 32.2402C127.54 33.4489 127.302 35.4736 125.723 35.4736V35.4774Z" fill="#003594"></path><path d="M143.026 38.3558C141.72 38.3558 141.72 37.9856 141.72 37.691V32.3801C141.72 30.1552 140.635 28.9314 138.667 28.9314C137.398 28.9314 136.435 29.4337 135.585 29.9777C135.532 30.0117 135.468 30.0155 135.411 29.9815C135.355 29.9512 135.325 29.8946 135.325 29.8341V25.7433C135.325 24.1304 135.415 23.103 135.434 22.7932C135.453 22.4835 135.362 22.3966 135.173 22.3966C135.075 22.3966 134.932 22.457 134.667 22.5666C134.15 22.7819 133.292 23.1596 132.072 23.3485C131.793 23.39 131.789 23.5487 131.789 23.7867C131.789 24.0057 131.902 24.1493 132.106 24.1833C133.251 24.289 133.27 24.289 133.27 26.1399V33.8872C133.27 35.2735 133.213 37.725 133.149 37.9063C133.054 38.1254 132.918 38.3596 132.473 38.3596C131.672 38.3596 131.502 38.4011 131.502 38.8242C131.502 38.9261 131.502 39.1981 131.808 39.1981C131.865 39.1981 131.94 39.1981 132.061 39.1906C132.405 39.1792 133.126 39.1528 134.682 39.1528C135.899 39.1528 136.333 39.1792 136.518 39.1906C136.571 39.1906 136.605 39.1943 136.631 39.1943C136.983 39.1943 136.983 38.8884 136.983 38.7751C136.983 38.3558 136.824 38.3558 136.208 38.3558C135.389 38.3558 135.321 38.25 135.321 36.9582V31.0807C135.479 30.8087 136.397 30.4045 137.315 30.4045C139.506 30.4045 139.665 31.651 139.665 33.7021V37.6645C139.665 38.2651 139.589 38.352 138.463 38.352C138.139 38.352 138.093 38.59 138.093 38.7939C138.093 39.1603 138.312 39.1906 138.38 39.1906C138.426 39.1906 138.479 39.1906 138.569 39.183C138.826 39.1717 139.359 39.1452 140.703 39.1452C141.376 39.1452 141.784 39.1603 142.143 39.1717H142.173C142.433 39.183 142.702 39.1906 142.977 39.1906C143.378 39.1906 143.374 38.9299 143.374 38.7939C143.374 38.5786 143.348 38.352 143.023 38.352L143.026 38.3558Z" fill="#003594"></path><path d="M111.082 13.9996C109.284 13.9996 107.928 15.3557 107.928 17.1537C107.928 18.9517 109.254 20.3078 111.082 20.3078C112.91 20.3078 114.247 19.0424 114.247 17.1537C114.247 15.265 112.918 13.9996 111.082 13.9996ZM112.74 17.1537C112.74 19.2539 111.837 19.6958 111.082 19.6958C109.722 19.6958 109.439 18.3133 109.439 17.1537C109.439 14.7966 110.696 14.6116 111.082 14.6116C112.619 14.6116 112.74 16.5569 112.74 17.1537Z" fill="#003594"></path></svg>