<svg xmlns="http://www.w3.org/2000/svg" width="106" height="48" viewBox="0 0 106 48" fill="none"><path d="M31.2299 22.7027C27.8648 22.7027 27.5975 20.1396 27.5975 19.3849C27.5975 18.4886 27.8019 16.8218 29.9876 16.0198C32.1733 15.2179 32.6451 15.1235 34.2018 14.6361V14.2587C34.2018 13.5039 34.2018 13.3624 34.0288 12.875C33.7615 12.0101 32.9124 11.4283 31.7331 11.4283C30.6166 11.4283 29.6574 12.0573 29.2171 12.985L28.5882 12.6076C28.9656 11.2239 30.3965 9.84013 32.8495 9.84013C34.5477 9.84013 35.7271 10.3276 36.4189 11.3969C36.9378 12.2617 37.0007 13.4253 37.0007 14.6046C37.0007 15.6739 36.9378 16.8532 36.9378 17.8124C36.9378 18.4414 36.8749 19.0547 36.8749 19.4006C36.8749 20.2654 37.0479 20.9573 37.7398 20.9573C38.0543 20.9573 38.1172 20.8472 38.3688 20.69L38.7462 21.1775C38.1172 22.0423 37.3624 22.7342 36.1202 22.7342C35.161 22.7342 34.4691 22.2467 34.1861 21.4605C33.793 22.0109 32.7709 22.7027 31.2299 22.7027ZM34.2018 16.1771C32.5507 16.6645 31.9532 16.9319 31.4815 17.1834C30.7267 17.5608 30.4122 18.2527 30.4122 19.149C30.4122 19.8409 30.6795 20.9573 32.2834 20.9573C32.8023 20.9573 33.5571 20.8472 34.249 20.3755V16.1614H34.2018V16.1771ZM6.4167 22.0423C6.4167 20.8001 6.4167 19.7465 6.30663 18.4729H7.0614C7.0614 19.2748 7.26582 19.8566 7.6432 20.234C8.16211 20.8158 9.40434 21.1932 10.5208 21.1932C12.8637 21.1932 13.9802 20.2969 13.9802 18.3628C13.9802 16.7117 12.9738 16.0198 11.59 15.0449L11.3856 14.872L9.8918 13.8656C7.81617 12.4818 6.74691 11.4126 6.74691 9.22688C6.74691 8.15762 7.17147 4.63534 12.3448 4.63534C13.6814 4.63534 15.3796 4.80831 16.4017 4.94983C16.4017 5.1228 16.3388 5.90902 16.3388 6.6009C16.3388 7.40284 16.3388 7.60726 16.4017 8.56645H15.7727C15.7727 7.70161 15.5054 7.1827 15.1438 6.80532C14.6563 6.31786 13.5556 6.05054 12.3763 6.05054C9.60876 6.05054 9.29427 7.43429 9.29427 8.50356C9.29427 9.9502 10.049 10.4691 11.6844 11.5384L13.5556 12.7806C15.1438 13.8499 16.6376 14.8562 16.6376 17.5294C16.6376 22.0109 12.4234 22.4826 10.6623 22.4826C9.04268 22.7027 7.69038 22.4669 6.4167 22.0423ZM39.9098 10.6421C40.5387 10.705 41.4979 10.6421 42.4257 10.4691C43.2276 10.2961 43.4949 10.2018 44.0767 9.9502L44.3441 10.1232V11.0824C44.973 10.5949 46.2153 9.90303 47.9764 9.90303C50.225 9.90303 51.6717 10.9723 52.0805 12.8435C52.1906 13.331 52.2535 14.4317 52.2535 15.0921V18.7244C52.2535 20.7529 52.3635 21.3504 52.7409 21.7121C52.9453 21.8851 53.3699 22.0895 53.9831 22.0895V22.6713C53.1812 22.6084 51.7346 22.5612 50.9012 22.5612C49.7847 22.5612 48.511 22.6241 47.8192 22.6713V22.0895C48.4481 22.0266 48.8255 21.8222 49.0614 21.6649C49.4388 21.2875 49.486 20.5957 49.5489 19.0389C49.5489 18.5515 49.6118 17.5923 49.6118 16.9004C49.6118 16.0041 49.6118 15.0292 49.5017 14.07C49.3287 12.4818 48.4953 11.7271 46.8757 11.7271C45.7593 11.7271 45.0674 11.9944 44.5328 12.246V18.7559C44.5328 20.7843 44.6428 21.3819 45.0202 21.7435C45.2246 21.9165 45.7121 22.1209 46.1995 22.1209V22.7027C45.1932 22.6398 43.9509 22.5927 43.1647 22.5927C41.5137 22.5927 40.979 22.6556 40.0198 22.7027V22.0895C40.5387 22.0895 41.0891 21.8851 41.3564 21.5706C41.7338 21.146 41.781 20.0767 41.781 18.0011V14.3059C41.781 12.7492 41.7181 12.1202 41.5137 11.79C41.3407 11.5226 40.9319 11.3025 40.067 11.3025V10.6106H39.9569V10.6421H39.9098ZM55.3354 22.0109C55.8544 22.0109 56.4047 21.8379 56.672 21.4919C57.0494 21.0674 57.0966 19.9981 57.0966 17.9225V11.7113H55.5084V11.0195C56.2003 10.7522 56.7821 10.4377 57.0966 10.1546C57.0966 9.03819 57.1595 7.63871 57.301 6.83676C57.7885 4.27368 59.4395 3 62.2542 3C63.4964 3 64.6443 3.42456 65.3991 4.00636L65.462 4.27368L64.2198 5.97192H63.9053C63.4807 4.96555 62.836 4.38375 61.7196 4.38375C61.3422 4.38375 60.8233 4.49382 60.4773 4.80831C59.9584 5.32722 59.8484 6.14489 59.8484 7.74878V10.1389H62.6159V11.6956H59.8484V18.5829C59.8484 20.234 59.9113 21.0359 60.1157 21.3504C60.4302 21.8693 61.5623 21.9322 62.0812 21.9322V22.5612C61.1849 22.4983 59.7383 22.4511 58.7162 22.4511C57.1595 22.4511 56.1531 22.514 55.3512 22.5612L55.3354 22.0109ZM69.629 22.7971C65.8551 22.7971 63.6065 20.4541 63.6065 16.5073C63.6065 13.4253 65.2576 9.84013 69.8963 9.84013C73.6702 9.84013 75.9187 12.1831 75.9187 16.1299C75.9187 19.2119 74.252 22.7971 69.629 22.7971ZM69.7862 11.2711C69.0314 11.2711 68.4496 11.4755 68.0251 11.8529C67.0187 12.7177 66.5313 14.1958 66.5313 16.3815C66.5313 17.2463 66.7042 21.3976 69.739 21.3976C70.4938 21.3976 71.0756 21.1932 71.5002 20.8158C72.5065 19.951 72.994 18.4729 72.994 16.2872C72.9783 15.438 72.8368 11.2711 69.7862 11.2711ZM77.1924 10.5792C78.0573 10.6421 78.9536 10.5163 79.9128 10.3748C80.6675 10.2647 81.155 10.1074 81.4066 9.9502L81.611 10.0603V11.1295C82.1928 10.5477 83.1677 9.9502 84.4886 9.9502C85.4478 9.9502 86.0767 10.2175 86.6743 10.705V11.0824L85.605 13.0165H85.0861C84.7716 12.4347 84.1269 11.9 83.0105 11.9C82.4916 11.9 82.0513 12.0101 81.6739 12.2774V18.6301C81.6739 20.2812 81.7368 21.0202 81.9412 21.3504C82.2557 21.8693 83.325 21.9322 83.9068 21.8693V22.5612C83.0419 22.4983 81.5638 22.4511 80.5417 22.4511C79.3624 22.4511 78.1516 22.4511 77.1767 22.5612V21.9322C77.8686 21.8693 78.246 21.7278 78.5133 21.4133C78.8907 20.9888 78.9378 19.9667 78.9378 17.8439V14.3845C78.9378 12.8278 78.9378 12.1988 78.6705 11.8686C78.4661 11.6013 78.0415 11.444 77.2239 11.444V10.6421L77.1924 10.5792ZM94.6466 3.75477C95.4013 3.75477 96.3448 3.5818 97.587 3.37739C98.2789 3.26731 98.7035 3.11007 98.9236 3.0629L99.128 3.17297C99.018 4.17933 99.018 6.49083 99.018 8.12617V18.2527C99.018 19.7465 99.018 20.7057 99.2224 21.0202C99.4268 21.2875 99.8514 21.5077 100.669 21.5077V22.1366C99.8671 22.1366 98.9708 22.2467 98.0116 22.404C97.3826 22.514 96.8952 22.6084 96.6278 22.7185L96.3134 22.6084V21.5391C95.6844 22.0266 94.505 22.7185 92.854 22.7185C89.4418 22.7185 87.2561 20.3755 87.2561 16.696C87.2561 15.4538 87.4605 14.353 87.885 13.331C88.9543 11.0824 91.0928 9.80868 93.7974 9.80868C94.8038 9.80868 95.6687 9.91875 96.1876 10.0131V7.38712C96.1876 5.8304 96.1876 5.04418 95.9202 4.66679C95.7473 4.39947 95.4957 4.2894 94.5837 4.24223V3.73905H94.6466V3.75477ZM94.2063 20.973C95.0711 20.973 95.6529 20.863 96.2347 20.4856V12.1831C96.0303 11.9787 95.2755 11.3182 93.7817 11.3182C91.3916 11.3182 90.2123 12.9693 90.2123 16.3972C90.1651 17.8281 90.5897 20.973 94.2063 20.973ZM26.371 21.3504C25.9936 21.8379 25.0344 22.7971 23.006 22.7971C21.0719 22.7971 20.0183 22.1052 19.5466 20.5485C19.3422 19.9667 19.3422 18.7402 19.3422 18.0326C19.3422 16.067 19.3422 14.4631 19.4051 12.5919V11.7271H17.7383V11.2396C18.3673 10.9723 18.8547 10.7207 19.295 10.3748C20.2542 9.61999 20.8832 8.7237 21.5908 7.38712H22.1097V10.1546H26.3238V11.7113H22.1097V18.2213C22.1097 20.1868 22.4871 21.2561 24.2954 21.2561C25.1602 21.2561 25.742 20.9888 26.0565 20.7686L26.371 21.3504Z" fill="#8C1515"></path><path d="M85.4792 32.9865C85.2748 32.9865 84.9918 33.0494 84.8503 33.1909C84.6773 33.301 84.6773 33.4582 84.6773 33.5683C84.6773 33.7727 84.7402 33.9457 84.8817 34.3703L86.061 37.4523C86.234 37.9397 86.3755 38.3171 86.4384 38.5687L87.8851 34.3545C88.058 33.8671 88.0895 33.7727 88.0895 33.5526C88.0895 33.4425 88.0266 33.3482 87.9165 33.2381C87.7435 33.128 87.5391 33.0337 87.2875 33.0337V32.5462C87.4605 32.5462 87.8064 32.5462 87.9794 32.6091C88.1524 32.6091 88.4669 32.672 88.7342 32.672C89.2531 32.672 90.0079 32.6091 90.3224 32.6091V33.0966C90.1179 33.1595 89.6305 33.0337 89.2059 34.2759L86.1711 42.374C85.7466 43.5533 85.1647 45 83.0891 45C82.2243 45 81.6425 44.7956 81.155 44.371V44.1666L81.9098 43.2703H82.1142C82.3186 43.7578 82.7432 43.9622 83.3564 43.9622C84.3156 43.9622 84.7402 43.0973 85.3849 41.3991L85.5579 40.9116L83.0105 34.2602C83.0105 34.1973 82.9476 34.0872 82.9004 33.9929C82.8375 33.8199 82.696 33.5054 82.696 33.5054C82.523 33.1909 82.2714 33.0809 81.9412 33.0809V32.5934C82.4287 32.6563 83.2778 32.6563 83.7024 32.6563C83.9697 32.6563 84.3942 32.6563 84.8188 32.5934C85.0232 32.5934 85.4006 32.5305 85.5736 32.5305V32.9551H85.5107V32.9865H85.4792ZM57.2381 32.8764C57.757 32.9393 58.3546 32.8135 58.9364 32.7035C59.4238 32.5934 59.6911 32.5305 59.8956 32.4361L60.0685 32.4991V33.1909C60.4459 32.8135 61.0277 32.4361 61.8768 32.4361C62.5058 32.4361 62.8832 32.6091 63.2606 32.9236V33.1909L62.6316 34.4332H62.3171C62.1127 34.0558 61.7353 33.7413 60.9805 33.7413C60.6661 33.7413 60.3987 33.8513 60.1157 34.0086V38.0183C60.1157 39.0876 60.1786 39.5751 60.2887 39.7795C60.4931 40.094 61.1535 40.1569 61.5309 40.1569V40.5814C61.012 40.5185 60.0371 40.5185 59.3924 40.5185C58.6376 40.5185 57.8357 40.5185 57.2538 40.6286V40.204C57.6784 40.204 57.9457 40.0311 58.1187 39.8895C58.386 39.6222 58.386 38.9932 58.386 37.5938V35.3452C58.386 34.386 58.386 33.9614 58.213 33.757C58.103 33.584 57.7885 33.4897 57.3167 33.4897V32.9079H57.2381V32.8764ZM21.7323 40.6129C19.4837 40.6129 18.1629 39.921 17.6754 38.4272C17.4081 37.6724 17.4081 36.7289 17.4081 35.9742V31.7128C17.4081 30.4391 17.3452 30.219 17.0936 30.0146C16.9835 29.9045 16.7162 29.8102 16.3388 29.7473V29.3227C16.8577 29.3856 17.7855 29.4328 18.3044 29.4328C19.2007 29.4328 19.751 29.4328 20.3328 29.3227V29.8102C19.9555 29.8102 19.7039 29.9202 19.468 30.1247C19.2007 30.392 19.2007 30.8794 19.2007 32.2632V36.0371C19.2007 38.2856 19.4051 39.7323 21.921 39.7323C24.4841 39.7323 24.6413 38.2385 24.6413 35.9584V31.8072C24.6413 30.5335 24.5784 30.3134 24.3269 30.1089C24.1539 29.9989 23.9023 29.9045 23.5721 29.8416V29.4171C24.0595 29.4171 24.6885 29.48 25.3332 29.48C25.915 29.48 26.5126 29.48 27.2044 29.3699V29.8573C26.827 29.8573 26.5755 29.9674 26.3396 30.1718C26.0723 30.4391 26.0723 30.9266 26.0723 32.3104V35.5181C26.0723 36.5245 26.0723 37.6567 25.7578 38.553C25.2546 39.921 23.9652 40.6129 21.7323 40.6129ZM36.9379 40.1254C37.3624 40.0625 37.6297 40.0153 37.8342 39.8109C38.1015 39.5436 38.1015 38.9146 38.1015 37.5151V35.2666C38.1015 34.3074 38.1015 33.8199 37.9285 33.6155C37.8184 33.4425 37.614 33.3482 37.0322 33.301V32.8135C37.3467 32.8764 38.2115 32.7506 38.8405 32.6406C39.155 32.5777 39.4695 32.4676 39.7054 32.3733L39.8783 32.5462C39.8154 33.0651 39.8154 34.1973 39.8154 35.6911V37.9869C39.8154 39.0561 39.8783 39.5436 39.9884 39.748C40.1614 39.9524 40.4759 40.1254 40.9476 40.1254V40.5028C40.523 40.4399 39.7054 40.4399 39.0135 40.4399C38.2115 40.4399 37.3624 40.5028 36.9379 40.55V40.1254ZM38.9034 31.0052C38.2744 31.0052 37.8971 30.6278 37.8971 30.046C37.8971 29.4642 38.3216 29.0397 38.9663 29.0397C39.5953 29.0397 39.9727 29.4171 39.9727 29.9989C39.957 30.6278 39.5324 31.0052 38.9034 31.0052ZM70.6511 40.1254C71.0756 40.0625 71.343 40.0153 71.5474 39.8109C71.8147 39.5436 71.8147 38.9146 71.8147 37.5151V35.2666C71.8147 34.3074 71.8147 33.8199 71.6417 33.6155C71.5316 33.4425 71.3272 33.3482 70.7454 33.301V32.8135C71.0599 32.8764 71.9248 32.7506 72.5537 32.6406C72.8682 32.5777 73.2456 32.4676 73.4186 32.3733L73.5915 32.5462C73.5287 33.0651 73.5286 34.1973 73.5286 35.6911V37.9869C73.5286 39.0561 73.5915 39.5436 73.7016 39.748C73.8746 39.9524 74.1891 40.1254 74.6608 40.1254V40.5028C74.1734 40.4399 73.3871 40.4399 72.6953 40.4399C71.8933 40.4399 71.0442 40.5028 70.6196 40.55V40.1254H70.6511ZM72.6166 31.0052C71.9877 31.0052 71.6103 30.6278 71.6103 30.046C71.6103 29.4642 72.0348 29.0397 72.6795 29.0397C73.3085 29.0397 73.6859 29.4171 73.6859 29.9989C73.6859 30.6278 73.2456 31.0052 72.6166 31.0052ZM64.1883 40.2355C64.1883 39.4335 64.1254 38.5844 64.0783 38.1599H64.5972C64.5972 38.5844 64.7072 38.9618 64.9117 39.1662C65.2261 39.5436 65.6035 39.6851 66.2954 39.6851H66.4055C67.2703 39.6851 67.7421 39.3077 67.7421 38.5687C67.7421 37.9869 67.3647 37.7038 66.7357 37.3265L65.6193 36.6346C65.0374 36.2572 64.3456 35.7383 64.3456 34.6061C64.3456 33.7098 64.723 33.018 65.462 32.6406C65.9495 32.3733 66.7042 32.3733 67.0502 32.3733C67.6792 32.3733 68.6069 32.4833 69.1258 32.5777C69.0629 32.7821 69.0629 33.3324 69.0629 33.5369C69.0629 33.7098 69.0629 34.4332 69.1258 34.6061H68.6069C68.6069 34.2916 68.4968 33.9771 68.2924 33.7098C68.088 33.4425 67.6005 33.2853 67.0187 33.2853C66.2168 33.2853 65.7765 33.5998 65.7765 34.2916C65.7765 34.8105 66.2011 35.0936 66.5784 35.3609H66.6413L67.7106 35.9899C68.4025 36.4144 69.2988 36.9491 69.2988 38.1756C69.2988 40.2512 67.3647 40.5657 66.264 40.5657C65.635 40.55 64.9431 40.5028 64.1883 40.2355ZM80.9349 39.7166C80.6675 39.9839 80.07 40.6129 78.7963 40.6129C77.5541 40.6129 76.8622 40.1883 76.6106 39.1662C76.5006 38.7888 76.5006 37.9869 76.5006 37.578C76.5006 36.3044 76.5006 35.2823 76.5006 34.1187V33.5998H75.4313V33.2853C75.8559 33.1123 76.1232 32.9708 76.4377 32.7664C77.0195 32.2789 77.444 31.6971 77.9315 30.8323H78.3089V32.5934H80.9663V33.5526H78.3089V37.7038C78.3089 38.9461 78.5133 39.6694 79.6926 39.6694C80.2115 39.6694 80.5889 39.4964 80.8091 39.3549L80.9349 39.7166ZM44.863 32.5619C44.69 32.5619 44.3441 32.5619 44.1082 32.6248C43.6837 32.6248 43.2434 32.6877 42.9289 32.6877C42.3471 32.6877 41.4822 32.6248 41.2306 32.6248V33.1123C41.3407 33.1123 41.7495 33.0494 42.0326 33.5998C42.1427 33.8042 42.2056 33.9771 42.237 34.0872C42.2999 34.1973 42.3471 34.2916 42.3471 34.3545L44.9102 40.7544L45.7121 40.5814L48.5425 34.2916C48.5425 34.2287 48.6054 34.1816 48.6526 34.0872C48.7155 34.0243 48.7155 33.9143 48.9199 33.5998C49.0929 33.2853 49.4388 33.1123 49.7218 33.1123V32.6248C49.4073 32.6248 48.7155 32.6877 48.1651 32.6877C47.8978 32.6877 47.6462 32.6877 47.3632 32.6248C47.1588 32.6248 46.8443 32.5619 46.6084 32.5619V32.9865C46.8757 32.9865 47.1273 33.0966 47.2374 33.1909C47.3003 33.2538 47.4103 33.3953 47.4103 33.5054C47.4103 33.6784 47.3474 33.8199 47.2059 34.3074L45.6492 38.0812C45.5863 37.8768 45.4762 37.5623 45.3347 37.122L44.2655 34.2916C44.0925 33.8671 44.061 33.7098 44.061 33.4897C44.061 33.3796 44.061 33.2853 44.1711 33.2224C44.3441 33.0494 44.5957 32.9551 44.863 32.9551V32.5305V32.5619ZM27.4403 32.8764C27.8649 32.9393 28.4467 32.8764 29.0285 32.7664C29.5159 32.6563 29.7203 32.5934 30.0977 32.4519L30.2707 32.5619V33.1909C30.6481 32.8764 31.5129 32.4361 32.5665 32.4361C34.0131 32.4361 34.9094 33.128 35.1924 34.3074C35.2553 34.6219 35.3025 35.3137 35.3025 35.754V38.0498C35.3025 39.3235 35.3654 39.7008 35.617 39.9839C35.7271 40.094 36.0416 40.1883 36.3718 40.1883V40.5657C35.8529 40.5657 34.9251 40.5028 34.4062 40.5028C33.6515 40.5028 32.8495 40.5657 32.4407 40.6129V40.2355C32.8181 40.1726 33.0697 40.0625 33.2426 39.9682C33.447 39.7637 33.5099 39.2763 33.5571 38.3171C33.5571 38.0026 33.5571 37.4208 33.5571 36.9333C33.5571 36.3515 33.5571 35.6911 33.4942 35.125C33.3841 34.1187 32.8652 33.6312 31.8431 33.6312C31.1513 33.6312 30.6638 33.8042 30.3493 33.9457V38.1284C30.3493 39.4021 30.4122 39.7795 30.6638 40.0625C30.7739 40.1726 31.0884 40.2669 31.4186 40.2669V40.6443C30.7267 40.4713 29.9248 40.4713 29.3901 40.4713C28.3209 40.4713 28.0064 40.4713 27.4246 40.5814V40.204C27.7391 40.204 28.1164 40.094 28.2894 39.8895C28.4938 39.6222 28.5567 38.9303 28.5567 37.5938V35.3452C28.5567 34.386 28.5567 33.9614 28.3838 33.757C28.2737 33.584 28.0064 33.4425 27.4875 33.4897V32.8922H27.4403V32.8764ZM53.3542 40.6129C50.9641 40.6129 49.6589 39.2291 49.6589 36.7132C49.6589 36.2886 49.769 32.389 53.3856 32.389C54.4549 32.389 55.4141 32.8135 55.8386 33.5683C56.3261 34.3231 56.3576 35.0621 56.3576 35.7068V36.1943H51.4044C51.4044 36.6189 51.4673 36.9491 51.5144 37.2007C51.7817 38.7574 52.6309 39.4964 54.1404 39.4964C55.0053 39.4964 55.5242 39.3235 56.0116 39.009L56.216 39.3864C55.7129 40.094 54.6436 40.6129 53.3542 40.6129ZM51.4358 35.2823H54.5178C54.5178 34.3231 54.3448 33.2538 52.9611 33.2538C51.7503 33.3167 51.4987 34.4646 51.4358 35.2823Z" fill="#8C1515"></path></svg>