<svg xmlns="http://www.w3.org/2000/svg" width="170" height="48" viewBox="0 0 170 48" fill="none"><path d="M131.602 38.7628L131.146 39.9837L131.754 40.0664L131.715 40.2917L130.882 40.268L130.135 40.2913L130.098 40.0664L130.641 39.9953L132.36 35.777L132.777 35.6706L134.597 40.0074L135.141 40.0785L135.103 40.3033L134.142 40.2801L133.22 40.3033L133.182 40.0785L133.776 39.9953L133.308 38.7749H131.602V38.7628ZM132.524 36.7373L132.474 36.3814L131.703 38.4553H133.182L132.524 36.7373ZM138.111 39.4504C138.111 39.7347 138.149 39.8295 138.199 39.9363H138.553L138.579 40.1612L137.681 40.327L137.492 39.7942L136.481 40.3865C135.558 40.3865 135.406 40.0785 135.406 39.3198V37.6139L134.913 37.6492L134.875 37.4007L135.71 37.2348L136.051 37.2112V39.3793C136.051 39.7231 136.203 39.8652 136.544 39.8652C136.759 39.8652 137.037 39.6989 137.302 39.5331L137.441 39.4504V37.6139L137.024 37.6492L136.986 37.4007L137.757 37.2348L138.111 37.2112V39.4504ZM140.753 37.5902C140.59 37.5009 140.408 37.4521 140.222 37.4481C139.956 37.4481 139.691 37.5902 139.691 37.8272C139.691 38.0404 139.868 38.171 140.171 38.3127L140.702 38.5617C141.17 38.787 141.359 39.0355 141.359 39.4025C141.359 39.9953 140.854 40.2086 140.058 40.3744C139.628 40.3744 139.185 40.1733 138.996 40.0785L138.869 39.3435H139.312L139.552 39.8889C139.723 39.9954 139.92 40.0528 140.121 40.0548C140.487 40.0548 140.677 39.8295 140.677 39.5568C140.677 39.3082 140.525 39.1898 140.171 39.0118L139.628 38.7396C139.325 38.5974 139.047 38.3484 139.047 37.9809C139.047 37.5308 139.502 37.2702 140.31 37.1043C140.69 37.1043 141.094 37.2585 141.296 37.4007V38.052H140.929L140.753 37.5902ZM141.6 37.6019V37.495L141.84 37.2702H142.295V36.8437L142.75 36.4172H142.926V37.3059H143.976V37.6019H142.939V39.5094C142.939 39.6989 143.015 39.9006 143.306 39.9006C143.508 39.9006 143.66 39.8295 143.85 39.7463L143.963 39.9716L143.155 40.3981C142.37 40.3981 142.27 40.1379 142.27 39.5452V37.6014L141.6 37.6019ZM145.202 40.2796L144.406 40.3033L144.368 40.0785L144.848 40.019V37.6376L144.368 37.6729L144.329 37.4481L145.164 37.2465L145.505 37.2232V40.019L146.023 40.0785L145.986 40.3033L145.202 40.2796ZM144.86 35.7891L145.366 35.7538L145.556 35.7891L145.594 36.1561L145.518 36.4646L145.025 36.4999L144.835 36.4646L144.797 36.0976L144.86 35.7891ZM147.186 40.2796L146.39 40.3033L146.352 40.0785L146.832 40.019V37.6376L146.352 37.6729L146.314 37.4481L147.148 37.2465L147.452 37.2232L147.489 37.7677L148.513 37.1401C149.398 37.1401 149.549 37.4244 149.549 38.2063V40.019L150.081 40.0785L150.043 40.3033L149.246 40.2801L148.577 40.3033L148.538 40.0785L148.892 40.019V38.1589C148.892 37.8151 148.728 37.6729 148.437 37.6729C148.197 37.6729 147.957 37.8151 147.717 37.9693L147.502 38.0994V40.0311L147.882 40.0901L147.843 40.3154L147.186 40.2796ZM124.739 37.128C125.611 37.128 125.838 37.3417 125.838 38.1589V39.4383C125.838 39.7226 125.889 39.8179 125.952 39.9242H126.306L126.331 40.1496L125.434 40.3154L125.219 39.8179L124.398 40.3865C123.803 40.3865 123.374 40.0785 123.374 39.5568C123.374 39.3198 123.462 39.154 123.614 38.9528L125.181 38.4669V38.1468C125.181 37.7561 125.143 37.5192 124.777 37.5192C124.587 37.5192 124.359 37.5782 124.208 37.6376L124.094 38.1589H123.499V37.6613L124.739 37.128ZM125.168 38.7275L124.157 39.1187C124.056 39.2135 124.018 39.3435 124.018 39.4857C124.018 39.8179 124.221 39.9363 124.422 39.9363C124.612 39.9363 124.789 39.8295 124.877 39.77L125.168 39.5805V38.7275ZM126.293 37.6019V37.495L126.533 37.2702H126.988V36.8437L127.444 36.4172H127.62V37.3059H128.669V37.6019H127.62V39.5094C127.62 39.6989 127.696 39.9006 127.987 39.9006C128.189 39.9006 128.341 39.8295 128.543 39.7463L128.657 39.9716L127.848 40.3981C127.064 40.3981 126.963 40.1379 126.963 39.5452V37.6014L126.293 37.6019ZM107.979 40.3033L106.854 40.2801L105.691 40.3033L105.653 40.0785L106.487 39.9953V36.0497L105.438 36.0618L105.122 36.8911H104.844V35.7417L106.841 35.7654L108.839 35.7422V36.8911H108.573L108.257 36.0618L107.207 36.0497V39.9953L108.004 40.0785L107.979 40.3033ZM109.217 38.6327C109.217 39.3793 109.647 39.9006 110.367 39.9006C110.646 39.9006 110.974 39.7821 111.239 39.6278L111.353 39.8769C111.025 40.0906 110.582 40.2796 110.14 40.3865C109.293 40.3865 108.547 39.8295 108.547 38.7986C108.547 37.8388 109.167 37.3175 110.115 37.128C111.037 37.128 111.341 37.6729 111.341 38.3484V38.6211H109.218V38.6327H109.217ZM110.608 38.301C110.608 37.8035 110.506 37.4481 109.963 37.4481C109.546 37.4481 109.268 37.8151 109.217 38.36L110.608 38.301ZM112.921 40.0664L112.883 40.2917L112.339 40.268L111.619 40.2913L111.581 40.0664L112.074 40.0074L113.098 38.8228L112.086 37.5312L111.657 37.4597L111.695 37.2228L112.491 37.2465L113.148 37.2232L113.186 37.4602L112.908 37.5308L113.426 38.2537L113.477 38.4195L114.134 37.5308L113.793 37.4597L113.831 37.2228L114.374 37.2465L115.094 37.2232L115.133 37.4602L114.627 37.5308L113.704 38.5737L114.792 40.019L115.221 40.0785L115.183 40.3033L114.387 40.2801L113.73 40.3033L113.691 40.0785L113.982 40.019L113.363 39.1781L113.312 39.0239L112.579 40.019L112.921 40.0664ZM116.864 37.128C117.737 37.128 117.964 37.3417 117.964 38.1589V39.4383C117.964 39.7226 118.015 39.8179 118.078 39.9242H118.419L118.444 40.1496L117.547 40.3154L117.332 39.8179L116.498 40.3865C115.904 40.3865 115.474 40.0785 115.474 39.5568C115.474 39.3198 115.562 39.154 115.714 38.9528L117.281 38.4669V38.1468C117.281 37.7561 117.244 37.5192 116.877 37.5192C116.687 37.5192 116.46 37.5782 116.308 37.6376L116.194 38.1589H115.6V37.6613L116.864 37.128ZM117.294 38.7275L116.283 39.1187C116.182 39.2135 116.143 39.3435 116.143 39.4857C116.143 39.8179 116.346 39.9363 116.548 39.9363C116.738 39.9363 116.915 39.8295 117.003 39.77L117.294 39.5805V38.7275ZM120.606 37.5902C120.53 37.5545 120.327 37.4481 120.075 37.4481C119.809 37.4481 119.544 37.5902 119.544 37.8272C119.544 38.0404 119.721 38.171 120.024 38.3127L120.555 38.5617C121.022 38.787 121.212 39.0355 121.212 39.4025C121.212 39.9953 120.707 40.2086 119.91 40.3744C119.493 40.3744 119.038 40.1733 118.849 40.0785L118.722 39.3435H119.165L119.405 39.8889C119.556 39.9837 119.759 40.0548 119.973 40.0548C120.34 40.0548 120.53 39.8295 120.53 39.5568C120.53 39.3082 120.391 39.1898 120.024 39.0118L119.48 38.7396C119.177 38.5974 118.899 38.3484 118.899 37.9809C118.899 37.5308 119.355 37.2702 120.163 37.1043C120.542 37.1043 120.947 37.2585 121.149 37.4007V38.052H120.782L120.606 37.5902ZM100.218 38.6922C100.218 39.6636 99.5862 40.2206 98.5117 40.3865C97.589 40.3865 96.9572 39.711 96.9572 38.8344C96.9572 37.8509 97.589 37.3059 98.6636 37.128C99.5988 37.128 100.218 37.8035 100.218 38.6922ZM98.6887 40.0664C99.2448 40.0664 99.5356 39.5331 99.5356 38.8344C99.5356 38.0046 99.1059 37.4481 98.5117 37.4481C97.943 37.4481 97.6648 37.9809 97.6648 38.6922C97.6522 39.4383 98.0694 40.0664 98.6887 40.0664ZM101.785 37.2938H102.657V37.6019H101.785V40.0074L102.582 40.0548L102.544 40.3033L101.47 40.2801L100.673 40.3033L100.635 40.0785L101.128 40.019V37.6139H100.521V37.5071L100.736 37.2822H101.141V37.2228C101.141 36.8316 101.267 36.571 101.52 36.3104L102.101 35.6943H102.973V36.2156H102.076L101.937 36.3935C101.836 36.512 101.785 36.7015 101.785 37.128V37.2938ZM67.9244 35.955L67.9625 35.7301L68.847 35.7533L69.6558 35.7301L69.6939 35.955L69.0997 36.0381V38.6922C69.0997 39.5452 68.7332 40.1022 67.3432 40.4102C65.9778 40.4102 65.4849 39.7226 65.4849 38.6801V36.0381L64.8531 35.955L64.8907 35.7301L65.8515 35.7533L66.7992 35.7301L66.8373 35.955L66.2436 36.0381V38.7749C66.2436 39.5805 66.6101 40.0432 67.4064 40.0432C68.1265 40.0432 68.5311 39.5925 68.5311 38.7517V36.026L67.9244 35.955ZM70.6421 40.2801L69.8454 40.3033L69.8077 40.0785L70.2881 40.019V37.6376L69.8077 37.6729L69.7696 37.4481L70.604 37.2465L70.9074 37.2232L70.945 37.7677L71.9689 37.1401C72.8539 37.1401 73.0054 37.4244 73.0054 38.2063V40.019L73.5364 40.0785L73.4983 40.3033L72.702 40.2801L72.0321 40.3033L71.9945 40.0785L72.348 40.019V38.1589C72.348 37.8151 72.184 37.6729 71.8927 37.6729C71.653 37.6729 71.4128 37.8151 71.1726 37.9693L70.9706 38.0994V40.0311L71.3497 40.0901L71.3116 40.3154L70.6416 40.2796L70.6421 40.2801ZM74.6235 40.2801L73.8272 40.3033L73.7891 40.0785L74.2695 40.019V37.6376L73.7891 37.6729L73.751 37.4481L74.5854 37.2465L74.9394 37.2232V40.019L75.4574 40.0785L75.4197 40.3033L74.6235 40.2801ZM74.2695 35.7891L74.7749 35.7538L74.9645 35.7891L75.0026 36.1561L74.9268 36.4646L74.4335 36.4999L74.2439 36.4646L74.2063 36.0976L74.2695 35.7891ZM77.4165 39.8769L78.2634 37.5192L77.9475 37.4481L77.9856 37.2228L78.5918 37.2465L79.1735 37.2232L79.2116 37.4481L78.7688 37.5192L77.6316 40.1969L77.1261 40.3981L75.9127 37.5192L75.4829 37.4481L75.5206 37.2228L76.3168 37.2465L77.0499 37.2232L77.088 37.4481L76.6327 37.5192L77.3914 39.4267L77.4165 39.8769ZM79.8685 38.6327C79.8685 39.3793 80.2982 39.9006 81.0187 39.9006C81.297 39.9006 81.6255 39.7821 81.8907 39.6278L82.0046 39.8769C81.6761 40.0906 81.2334 40.2796 80.7911 40.3865C79.9447 40.3865 79.186 39.8295 79.186 38.7986C79.186 37.8388 79.8053 37.3175 80.7535 37.128C81.6761 37.128 81.9795 37.6729 81.9795 38.3484V38.6211H79.8685V38.6327ZM81.2715 38.301C81.2715 37.8035 81.1707 37.4481 80.6271 37.4481C80.1974 37.4481 79.9317 37.8151 79.8815 38.36L81.2715 38.301ZM83.5469 38.0757L84.3432 37.1638H84.8993V37.8151H84.3808C84.2164 37.8509 83.913 38.0641 83.7235 38.2773L83.5846 38.4316V39.9832L84.3177 40.0427L84.2796 40.2917L83.2687 40.268L82.4849 40.2913L82.4473 40.0664L82.9272 40.0074V37.6256L82.4473 37.6613L82.4092 37.436L83.2436 37.2348L83.5214 37.2112L83.5469 38.0757ZM87.0856 37.5902C87.0098 37.5545 86.8078 37.4481 86.555 37.4481C86.2893 37.4481 86.024 37.5902 86.024 37.8272C86.024 38.0404 86.2006 38.171 86.5044 38.3127L87.0354 38.5617C87.5028 38.787 87.6923 39.0355 87.6923 39.4025C87.6923 39.9953 87.1868 40.2086 86.3906 40.3744C85.9608 40.3744 85.5186 40.1733 85.329 40.0785L85.2027 39.3435H85.6449L85.8851 39.8889C86.0366 39.9837 86.2391 40.0548 86.4538 40.0548C86.8203 40.0548 87.0098 39.8295 87.0098 39.5568C87.0098 39.3082 86.8705 39.1898 86.5044 39.0118L85.9608 38.7396C85.6575 38.5974 85.3792 38.3484 85.3792 37.9809C85.3792 37.5308 85.8345 37.2702 86.6433 37.1043C87.0224 37.1043 87.427 37.2585 87.6291 37.4007V38.052H87.2626L87.0856 37.5902ZM89.007 40.2801L88.2108 40.3033L88.1727 40.0785L88.653 40.019V37.6376L88.1727 37.6729L88.135 37.4481L88.9689 37.2465L89.3104 37.2232V40.019L89.8284 40.0785L89.7908 40.3033L89.007 40.2801ZM88.6656 35.7891L89.171 35.7538L89.361 35.7891L89.3987 36.1561L89.3229 36.4646L88.83 36.4999L88.6405 36.4646L88.6024 36.0976L88.6656 35.7891ZM92.4574 41.8202V41.1684H93.0516L93.7466 40.1849L93.4688 40.268L92.3059 37.5192H91.2569V39.5094C91.2569 39.6989 91.3327 39.9006 91.6235 39.9006C91.8256 39.9006 92.0402 39.8058 92.2298 39.7226L92.3436 39.9479L91.4716 40.3986C90.6878 40.3986 90.587 40.1375 90.587 39.5452V37.6014H89.9171V37.4945L90.1573 37.2697H90.6121V36.8432L91.0674 36.4167H91.2439V37.2344H93.4307L93.4688 37.4592L93.0135 37.5303L93.7847 39.4378L93.8353 39.8885L94.6948 37.5303L94.3789 37.4592L94.4165 37.2344L95.0232 37.2576L95.6049 37.2344L95.6425 37.4592L95.2002 37.5303L94.0755 40.1965L93.2918 41.8434H92.4574V41.8202ZM59.2662 40.2796L58.6093 40.3033L58.5712 40.0785L58.9126 40.019V38.1589C58.9126 37.8151 58.7482 37.6729 58.4699 37.6729C58.2553 37.6729 57.99 37.8151 57.7368 37.9693L57.5347 38.0878V40.019L57.9138 40.0785L57.8762 40.3033L57.2188 40.2801L56.4857 40.3033L56.4476 40.0785L56.8648 40.019V36.0265L56.6121 36.0623L55.1965 36.0386V39.9842L55.9928 40.0669L55.9547 40.2922L54.83 40.2685L53.6672 40.2917L53.6291 40.0669L54.4635 39.9842V36.0386L53.4145 36.0618L53.0985 36.8795H52.8328V35.7306L54.83 35.7422L56.5364 35.7306L57.282 35.6474H57.5222V37.7566L58.5331 37.1405C59.4181 37.1405 59.5695 37.4486 59.5695 38.2778V40.0079L60.088 40.0669L60.0499 40.2922L59.2662 40.2796ZM61.0738 38.6327C61.0738 39.3793 61.5035 39.9006 62.2241 39.9006C62.5019 39.9006 62.8308 39.7821 63.0961 39.6278L63.2099 39.8769C62.8815 40.0906 62.4387 40.2796 61.9965 40.3865C61.1495 40.3865 60.3914 39.8295 60.3914 38.7986C60.3914 37.8388 61.0106 37.3175 61.9584 37.128C62.8815 37.128 63.1848 37.6729 63.1848 38.3484V38.6211H61.0738V38.6327ZM62.4643 38.301C62.4643 37.8035 62.363 37.4481 61.8195 37.4481C61.3897 37.4481 61.1245 37.8151 61.0738 38.36L62.4643 38.301ZM144.768 17.5821C147.337 18.6901 149.579 20.3152 149.579 23.6401C149.579 26.7007 147.501 29.661 141.381 30.9325C138.383 30.9325 136.369 30.0763 134.643 28.716L133.925 24.3203H136.205L137.339 27.091C138.308 28.3002 140.096 29.1444 141.922 29.1444C144.718 29.1444 146.342 27.3934 146.342 25.0129C146.342 22.7965 144.907 21.524 142.955 20.6804L139.013 18.9549C136.671 17.9468 134.744 16.4486 134.744 13.5515C134.744 9.99989 138.005 7.92141 142.526 6.97693C144.579 6.97693 146.859 7.65707 148.483 8.86634V13.2616H146.859L145.914 10.3023C145.07 9.42057 144.025 8.70235 142.073 8.70235C139.492 8.70235 137.968 10.1007 137.968 12.2795C137.968 14.0681 139.24 15.1761 141.028 15.9571L144.768 17.5821ZM122.705 7.24128L131.205 28.9302L133.749 29.2828L133.585 30.4164L129.09 30.3155L124.796 30.4164L124.632 29.2828L127.402 28.8545L125.186 22.7709H117.151L115.035 28.8545L117.869 29.2828L117.705 30.4164L113.801 30.3155L111.131 30.3913L107.328 30.3155L102.669 30.4164L102.505 29.2447L105.275 28.8168L100.213 20.7305L94.6595 28.8419L97.3293 29.2322L97.1653 30.4038L93.3624 30.303L89.7229 30.4038L89.5594 29.2322L92.1029 28.8796L99.13 19.2067L92.3928 9.01733L89.8488 8.66425L90.0128 7.5307L94.6725 7.65707L99.294 7.53117L99.4575 8.66472L96.6868 9.09305L101.284 16.7129L106.447 9.11814L103.613 8.6898L103.777 7.55625L107.58 7.65707L111.383 7.55625L111.547 8.6898L109.003 9.04288L102.329 18.2242L109.557 28.8675L111.119 29.1063L112.68 28.8926L120.752 7.79551L122.705 7.24128H122.705ZM117.655 21.197H124.581L121.03 11.4354L117.655 21.197ZM84.9253 28.7537L87.1041 24.3579H88.3381L87.2045 30.3787L74.2843 30.2779L69.7887 30.3783L69.6247 29.2447L72.5589 28.8168V9.09305L69.6247 8.66472L69.7887 7.53117L74.2843 7.63198L87.205 7.53117L87.5325 13.388H86.424L84.5983 9.15577L75.9717 9.05496V17.7206L80.5305 17.5821L81.8276 14.1685H82.9737L82.6461 18.2367L82.9737 22.6325H81.8276L80.5305 19.2193L75.9717 19.0808V28.8545L84.9253 28.7537ZM49.1232 7.53117L58.4671 7.63198L67.8366 7.53117V13.2872H66.5646L65.0659 9.15577L60.1925 9.09305V28.8164L63.9323 29.2442L63.7688 30.3778L58.4927 30.2774L53.027 30.3778L52.8635 29.2442L56.7673 28.8164V9.09305L51.8939 9.15577L50.3952 13.2872H49.1232V7.53117ZM43.154 6.63687V15.932C43.154 19.3703 42.8139 23.8037 40.157 27.6958C39.5941 28.508 38.953 29.2631 38.243 29.9504L38.23 29.9629C36.7819 31.3483 34.8804 32.6584 32.1604 34.1696C29.4398 32.6584 27.5258 31.3483 26.0903 29.9629L26.0778 29.9504C25.3344 29.2322 24.705 28.5019 24.1637 27.6958C21.5059 23.8167 21.1663 19.3707 21.1663 15.932V6.63687L21.6072 6.5867C21.6699 6.57369 27.5635 5.84338 32.1604 5.84338C36.7568 5.84338 42.6504 6.57369 42.7131 6.5867L43.154 6.63687ZM39.3259 27.1291C41.8067 23.4892 42.1338 19.2569 42.1338 15.9701L32.1604 15.4154L22.174 15.9696C22.174 19.2569 22.501 23.4892 24.9948 27.1286C25.5274 27.8964 26.1348 28.6096 26.8081 29.2577C28.9994 31.2726 31.4677 32.381 32.1599 32.6709C32.8526 32.381 35.3208 31.2726 37.5122 29.2577C38.2174 28.5776 38.8098 27.8844 39.3259 27.1291ZM22.7147 7.48053L22.1865 14.7984H42.1338L41.6176 7.48053C39.7538 7.27937 35.5856 6.86358 32.1604 6.86358C28.7346 6.86358 24.5665 7.27937 22.7157 7.48053H22.7147ZM39.2623 21.7888L38.9854 21.8515C38.9598 22.0406 38.9222 22.2418 38.8465 22.4183C39.174 22.2167 39.5517 22.0782 39.9424 22.0532L40.2193 22.0281V22.305C40.2339 22.914 40.0129 23.5051 39.6023 23.9551C39.1921 24.4079 38.6245 24.6871 38.0154 24.7356L37.7761 24.7611C37.7103 24.9415 37.626 25.1145 37.5243 25.2773C37.7944 25.1775 38.08 25.1263 38.368 25.1263C38.4688 25.1263 38.5696 25.1263 38.6699 25.1388L38.9347 25.1769L38.8846 25.4413C38.7603 26.0414 38.4197 26.5748 37.9275 26.94C37.5184 27.2388 37.0238 27.3978 36.5171 27.3934C36.4163 27.3934 36.3155 27.3934 36.2147 27.3809L35.9754 27.3558C35.8746 27.5193 35.7617 27.6707 35.6228 27.8092C36.0073 27.748 36.401 27.7826 36.7689 27.91L37.0207 27.9983L36.9199 28.2501C36.6822 28.8104 36.2415 29.2602 35.686 29.5091C35.382 29.6499 35.051 29.7231 34.716 29.7237C34.4458 29.7216 34.1778 29.6746 33.923 29.5848L33.7339 29.5221C33.4189 29.7869 33.0663 30.0512 32.5752 30.3908C32.8019 30.5423 33.0412 30.7058 33.3185 30.8823L32.84 31.1717C32.5752 30.9952 32.336 30.8317 32.1218 30.6932C31.9081 30.8447 31.6684 30.9952 31.4041 31.1717L30.9255 30.8823C31.2024 30.6932 31.4417 30.5423 31.6689 30.3913C31.1773 30.0512 30.8247 29.7864 30.5098 29.5221L30.3211 29.5848C30.0661 29.6746 29.798 29.7216 29.5277 29.7237C29.2001 29.7237 28.8726 29.648 28.5581 29.5095C27.9998 29.2643 27.5577 28.8132 27.3237 28.2501L27.2234 27.9978L27.4752 27.9095C27.843 27.7824 28.2365 27.7479 28.6208 27.8092C28.4858 27.6725 28.3675 27.5203 28.2682 27.3558L28.029 27.3809C27.9286 27.3934 27.8278 27.3934 27.727 27.3934C27.2203 27.3978 26.7257 27.2388 26.3165 26.94C25.8165 26.5822 25.4737 26.0454 25.3595 25.4413L25.3089 25.1765L25.5737 25.1393C25.674 25.1263 25.7749 25.1263 25.8757 25.1263C26.1637 25.1252 26.4495 25.1764 26.7193 25.2773C26.6131 25.1171 26.5284 24.9435 26.4675 24.7611L26.2283 24.7361C25.6193 24.6873 25.0518 24.408 24.6418 23.9551C24.2342 23.5032 24.0135 22.9134 24.0244 22.305V22.0281L24.2892 22.0532C24.6794 22.0782 25.0571 22.2041 25.3846 22.4183C25.3207 22.2342 25.2744 22.0444 25.2462 21.8515L25.0195 21.7888C24.4353 21.6127 23.94 21.2209 23.6341 20.6929C23.328 20.1638 23.2334 19.5384 23.3693 18.9424L23.4325 18.6776L23.6973 18.7533C23.9878 18.8503 24.26 18.9951 24.5029 19.1817C24.4399 18.8869 24.4399 18.5821 24.5029 18.2874C24.6173 17.6865 24.9546 17.1511 25.4473 16.7887L25.649 16.6121L25.7874 16.8388C26.1149 17.3554 26.2287 17.9724 26.1149 18.5768C25.9971 19.173 25.6601 19.7034 25.1705 20.0634C25.2713 20.2646 25.334 20.4787 25.3595 20.7054C25.5013 20.2995 25.7544 19.9417 26.0898 19.6727L26.3035 19.4962L26.4675 19.7229C26.8202 20.22 26.973 20.8316 26.8959 21.4362C26.8206 22.0436 26.5137 22.5985 26.0392 22.9851L26.0267 22.9976C26.1656 23.1867 26.2785 23.4009 26.3542 23.615C26.4174 23.1867 26.5809 22.7835 26.8578 22.4434L27.0218 22.2297L27.2234 22.4183C27.6762 22.8286 27.9553 23.3962 28.0039 24.0053C28.0533 24.617 27.8688 25.2246 27.4877 25.7056L27.4752 25.7182C27.6517 25.8696 27.8022 26.0457 27.9286 26.2473C27.9031 25.819 27.9788 25.3906 28.1804 25.0004L28.3058 24.7611L28.5456 24.8996C29.0741 25.2107 29.4655 25.7102 29.641 26.2979C29.8086 26.8854 29.7502 27.5143 29.4775 28.061L29.4649 28.0735C29.6786 28.1869 29.8552 28.3383 30.0187 28.5019C29.9053 28.0861 29.8933 27.6452 30.0062 27.2299L30.0693 26.9651L30.3211 27.0533C30.9043 27.2475 31.3909 27.6576 31.6809 28.1994C31.9583 28.7208 32.0346 29.3259 31.8951 29.8998C31.9708 29.9504 32.0466 30.0006 32.1344 30.0637C32.2101 30.0131 32.2984 29.9504 32.3736 29.8998C32.2341 29.3259 32.3104 28.7208 32.5878 28.1994C32.8844 27.6627 33.3688 27.2546 33.948 27.0533L34.1998 26.9651L34.2626 27.2299C34.3718 27.6474 34.3675 28.0866 34.25 28.5019C34.4075 28.3322 34.5902 28.1877 34.7917 28.0735V28.061C34.5148 27.5068 34.4516 26.8898 34.6282 26.2975C34.8038 25.71 35.1951 25.2106 35.7236 24.8996L35.9629 24.7611L36.0883 25.0004C36.2904 25.3906 36.3657 25.819 36.3406 26.2473C36.4665 26.0582 36.6175 25.8696 36.794 25.7182L36.7815 25.7056C36.402 25.2286 36.2174 24.6255 36.2648 24.0178C36.3162 23.4094 36.5951 22.8428 37.0458 22.4309L37.2474 22.2422L37.4109 22.4559C37.6883 22.809 37.8518 23.2118 37.9145 23.6276C37.9903 23.4009 38.1036 23.1993 38.2421 23.0102L38.2295 22.9976C37.7636 22.6074 37.449 22.0532 37.3733 21.4488C37.285 20.8439 37.449 20.2395 37.8016 19.7359L37.9652 19.5092L38.1789 19.6857C38.5107 19.958 38.7631 20.3146 38.9096 20.718C38.9476 20.4974 39.011 20.2819 39.0987 20.076C38.6072 19.7103 38.2671 19.1942 38.1543 18.5893C38.0409 17.9854 38.1543 17.3675 38.4813 16.8518L38.6198 16.6247L38.8339 16.7887C39.3266 17.1511 39.664 17.6865 39.7784 18.2874C39.829 18.5893 39.829 18.8918 39.7784 19.1817C40.0167 18.9879 40.2905 18.8424 40.5844 18.7533L40.8492 18.6776L40.9119 18.9424C41.0479 19.5384 40.9533 20.1638 40.6471 20.6929C40.3444 21.2234 39.8481 21.6161 39.2623 21.7888ZM39.2497 23.6146C39.5145 23.3348 39.6823 22.9773 39.7282 22.5949C39.3593 22.6827 39.0256 22.8803 38.7712 23.1616C38.5108 23.4445 38.3437 23.8007 38.2927 24.1818C38.6579 24.0936 38.9979 23.9045 39.2497 23.615V23.6146ZM37.8769 21.3986C37.929 21.7768 38.091 22.1314 38.3429 22.4183C38.5177 22.0768 38.5837 21.69 38.532 21.3099C38.48 20.9315 38.318 20.5767 38.066 20.2897C37.8912 20.6311 37.8252 21.018 37.8769 21.3981V21.3986ZM38.6328 18.5015C38.7108 18.8766 38.8942 19.2217 39.1614 19.4962C39.3124 19.1436 39.3631 18.7529 39.2873 18.3756C39.212 17.9994 39.0282 17.6535 38.7587 17.3805C38.6041 17.7328 38.5602 18.1237 38.6328 18.5015ZM40.4711 19.3452C40.1263 19.506 39.8402 19.7702 39.6525 20.101C39.4646 20.4342 39.3771 20.8147 39.4007 21.1965C39.7429 21.0322 40.0281 20.7691 40.2193 20.4411C40.4073 20.1078 40.4947 19.7271 40.4711 19.3452ZM37.6627 26.5367C37.9709 26.3135 38.2037 26.0017 38.3303 25.6429C37.9492 25.6565 37.5809 25.7837 37.2725 26.008C36.9705 26.2348 36.7308 26.5372 36.6049 26.9023C36.986 26.8887 37.3544 26.7611 37.6627 26.5367ZM36.7689 24.0685C36.7442 24.4488 36.8272 24.8285 37.0082 25.1639C37.2474 24.862 37.3984 24.4968 37.4235 24.1186C37.4604 23.7374 37.3767 23.3543 37.1842 23.0232C36.945 23.3252 36.794 23.6782 36.7689 24.0685ZM35.7738 26.6505C35.8872 26.2849 35.8746 25.8947 35.7613 25.5295C35.4697 25.7739 35.2553 26.0976 35.1443 26.4615C35.031 26.8266 35.0435 27.2173 35.1568 27.5825C35.4484 27.3381 35.6628 27.0144 35.7738 26.6505ZM36.3531 28.3128C35.9782 28.2503 35.5931 28.2984 35.2451 28.4512C34.8965 28.61 34.6028 28.8687 34.4015 29.1945C34.5148 29.2071 34.6282 29.2196 34.7411 29.2196C35.0059 29.2196 35.2702 29.1694 35.5095 29.0561C35.8581 28.8974 36.1517 28.6387 36.3531 28.3128ZM33.0537 28.4642C32.8657 28.7966 32.7907 29.181 32.84 29.5597C33.1799 29.3833 33.4569 29.1062 33.6331 28.7662C33.8097 28.4297 33.884 28.0489 33.8468 27.6707C33.5122 27.8543 33.2371 28.1296 33.0537 28.4642ZM28.7843 29.0561C29.1325 29.209 29.5177 29.2572 29.8928 29.1945C29.6951 28.8656 29.4004 28.6059 29.0491 28.4512C28.6965 28.2877 28.3188 28.2501 27.9411 28.3128C28.1389 28.6417 28.4331 28.9014 28.7843 29.0561ZM28.5075 26.6505C28.6186 27.0144 28.8331 27.3382 29.1249 27.5825C29.2382 27.2173 29.2503 26.8266 29.1374 26.4615C29.0264 26.0976 28.812 25.7739 28.5205 25.5295C28.4071 25.8947 28.3941 26.2849 28.5075 26.6505ZM30.4345 27.6833C30.3964 28.0575 30.4708 28.4345 30.6482 28.7662C30.8246 29.1061 31.1017 29.3833 31.4417 29.5597C31.4785 29.1815 31.4043 28.8008 31.228 28.4642C31.0475 28.1304 30.7711 27.8584 30.4345 27.6833ZM26.6185 26.5372C26.926 26.7542 27.2881 26.8807 27.6638 26.9023C27.5408 26.5416 27.3074 26.2287 26.9967 26.008C26.6883 25.7837 26.32 25.6565 25.9388 25.6429C26.0773 25.9955 26.304 26.3105 26.6185 26.5372ZM27.097 23.0357C26.9084 23.3633 26.8327 23.7409 26.8452 24.1312C26.8833 24.5214 27.0218 24.8745 27.261 25.1765C27.4516 24.8443 27.5392 24.463 27.5128 24.081C27.4793 23.6994 27.3348 23.3361 27.097 23.0357ZM25.032 23.615C25.2809 23.903 25.6169 24.102 25.989 24.1818C25.9258 23.8037 25.7623 23.4385 25.5105 23.1616C25.2547 22.8821 24.9216 22.6848 24.5535 22.5949C24.6156 22.9726 24.7812 23.3258 25.032 23.615ZM24.8936 21.1965C24.9295 20.8138 24.8412 20.4296 24.6418 20.101C24.4506 19.7729 24.1655 19.5096 23.8232 19.3452C23.7981 19.7273 23.8857 20.1083 24.075 20.4411C24.2662 20.7691 24.5513 21.0322 24.8936 21.1965ZM24.9944 18.3756C24.9312 18.7533 24.9688 19.1436 25.1198 19.4836C25.3918 19.2125 25.5763 18.866 25.6494 18.489C25.7153 18.115 25.6714 17.73 25.5231 17.3805C25.2513 17.6519 25.0672 17.9985 24.9944 18.3756ZM25.7623 21.3099C25.7106 21.69 25.7766 22.0768 25.9514 22.4183C26.2034 22.1313 26.3654 21.7765 26.4174 21.3981C26.4702 21.018 26.4041 20.6308 26.2283 20.2897C25.9763 20.5767 25.8143 20.9315 25.7623 21.3099ZM27.4998 19.3703C27.4752 19.3703 27.4752 19.3577 27.4752 19.3326C27.4877 19.3201 27.5003 19.3201 27.5128 19.3201H31.0389L32.1344 15.9571C32.1344 15.9445 32.1469 15.932 32.1599 15.932C32.1725 15.932 32.185 15.9445 32.185 15.9571L33.2805 19.3201H36.8191C36.8316 19.3201 36.8442 19.3201 36.8442 19.3326C36.8567 19.3577 36.8442 19.3703 36.8316 19.3703L33.9731 21.4488L35.0686 24.8239C35.0811 24.8239 35.0811 24.8369 35.0686 24.8494H35.057L32.1734 22.7588L29.2893 24.8494H29.2768C29.2642 24.8494 29.2642 24.8369 29.2642 24.8369L30.3597 21.4488L27.5012 19.3703H27.4998ZM31.5044 19.9496L29.7293 20.076L31.1021 21.2095L30.6607 22.9224L32.1599 21.9774L33.6581 22.9224L33.2177 21.2095L34.5775 20.076L32.8145 19.9626L32.1594 18.3124L31.5044 19.9496ZM37.7886 10.5792V10.5667H37.3227V11.5994H37.7886V12.3548H37.3227V13.7657H37.0082C36.3029 13.7657 35.5977 13.6523 34.9176 13.5515C34.3508 13.4633 33.8096 13.375 33.3436 13.375C32.9655 13.375 32.6886 13.4256 32.4749 13.539H31.87C31.6563 13.4256 31.379 13.375 31.0013 13.375C30.5478 13.375 30.0062 13.4633 29.4268 13.5515C28.7597 13.6523 28.0545 13.7652 27.3363 13.7652H27.0218V12.3548H26.5558V11.5994H27.0218V10.5667H26.5558V9.81081H27.0218V8.51373H27.3363C28.0039 8.51373 28.6715 8.42546 29.3135 8.32465C29.8928 8.24893 30.447 8.16066 30.9632 8.16066C31.4417 8.16066 31.8449 8.23638 32.1725 8.38737C32.4995 8.23638 32.9028 8.16066 33.3813 8.16066C33.8849 8.16066 34.4391 8.23638 35.0305 8.32465C35.673 8.41292 36.3406 8.51373 37.0082 8.51373H37.3227V9.82382H37.7886V10.5792ZM29.3135 12.9216C29.9053 12.8333 30.4721 12.745 30.9887 12.745C31.2656 12.745 31.5044 12.7706 31.719 12.8212L31.8324 9.48329V8.92906C31.6057 8.82825 31.3158 8.77807 30.9506 8.77807C30.4847 8.77807 29.956 8.8538 29.3892 8.9416C28.8796 9.0205 28.3671 9.07939 27.8529 9.11814L27.7144 13.1107C28.2431 13.0856 28.7848 13.0098 29.3135 12.9216ZM35.0059 12.9216C35.5345 13.0098 36.0762 13.0856 36.6049 13.1107L36.4665 9.11814C35.9522 9.08011 35.4397 9.02121 34.9301 8.9416C34.3634 8.85333 33.8347 8.77807 33.3687 8.77807C33.0036 8.77807 32.7262 8.82825 32.487 8.92906V9.48329L32.6003 12.8212C32.84 12.7677 33.0851 12.7423 33.3306 12.7455C33.8472 12.7455 34.414 12.8338 35.0059 12.922V12.9216ZM28.9358 10.7427H28.9483V11.2593L28.3444 11.3346L28.3565 10.8185L28.9358 10.7427ZM29.7795 9.47075C30.2961 9.39502 30.7996 9.34485 31.2531 9.39502L31.2405 9.89908C30.8122 9.86099 30.3207 9.91162 29.7795 9.98735V9.47075ZM29.4018 11.8387H29.4268V12.3678H29.4018C29.0491 12.418 28.684 12.4682 28.3188 12.5062L28.3314 11.9896C28.6589 11.952 28.9864 11.9014 29.3135 11.8512C29.339 11.8512 29.3641 11.8387 29.4018 11.8387ZM29.7795 11.788C30.2705 11.7253 30.7365 11.6747 31.1648 11.6998L31.1523 12.2038C30.7495 12.1787 30.2835 12.2289 29.7795 12.3046V11.788ZM29.326 10.6926C29.9936 10.5918 30.6361 10.5035 31.215 10.5411L31.2024 11.0452C30.6863 11.0075 30.0689 11.0953 29.3892 11.1962C29.3641 11.2087 29.3516 11.2087 29.326 11.2087V10.6926ZM34.3137 9.44566V9.9618C33.8602 9.89908 33.4449 9.87353 33.0793 9.89908L33.0667 9.39502C33.457 9.35739 33.8728 9.39502 34.3137 9.44566ZM35.9257 9.65936L35.9383 10.176C35.5982 10.1383 35.2707 10.0877 34.9431 10.0375C34.8549 10.025 34.7796 10.0124 34.6914 9.99989V9.48329C34.8047 9.50838 34.9051 9.52092 35.0189 9.53393C35.3208 9.5841 35.6233 9.6222 35.9257 9.65936ZM34.2128 10.5918V11.0953C33.8226 11.0452 33.4575 11.0201 33.1299 11.0452L33.1174 10.5411C33.4575 10.5286 33.8226 10.5541 34.2128 10.5918ZM35.9633 10.8185L35.9759 11.3346C35.6233 11.2974 35.2837 11.2463 34.9431 11.1962C34.8298 11.1836 34.7039 11.1585 34.5905 11.146V10.6294C34.729 10.6545 34.8804 10.6675 35.0189 10.6926C35.3339 10.7302 35.6484 10.7813 35.9633 10.8185ZM34.9682 12.3548H34.9812V11.8261C35.0063 11.8387 35.0184 11.8387 35.0314 11.8387C35.3464 11.8888 35.6735 11.9395 36.0135 11.9771L36.0261 12.4937C35.6725 12.4552 35.3198 12.4089 34.9682 12.3548ZM34.5905 11.788V12.2921C34.0744 12.2164 33.5834 12.1662 33.1676 12.1913L33.155 11.6877C33.5959 11.6621 34.0869 11.7128 34.5905 11.788ZM29.4022 9.52092V10.0375H29.3771C29.0496 10.0877 28.7221 10.1383 28.382 10.176L28.3946 9.65983C28.697 9.62173 28.9994 9.5841 29.3014 9.53393C29.3395 9.53393 29.3646 9.53393 29.4022 9.52092Z" fill="#BF5700"></path></svg>